<svg width="57" height="46" viewBox="0 0 57 46" fill="none" xmlns="http://www.w3.org/2000/svg">
    <path d="M2.33374 45H54.7147" stroke="#141414" stroke-width="2" stroke-linecap="round" stroke-linejoin="round" />
    <path
        d="M32.7148 45V2.91304C32.7148 2.40567 32.5098 1.91908 32.1449 1.56032C31.7801 1.20155 31.2852 1 30.7692 1H7.42226C6.90626 1 6.4114 1.20155 6.04653 1.56032C5.68166 1.91908 5.47668 2.40567 5.47668 2.91304V45"
        stroke="#141414" stroke-width="2" stroke-linecap="round" stroke-linejoin="round" />
    <path d="M32.7147 13.5715H48.5719C50.2287 13.5715 51.5719 14.9147 51.5719 16.5715V43.9525H32.7147V13.5715Z"
        fill="#FFD550" stroke="#141414" stroke-width="2" stroke-linecap="round" stroke-linejoin="round" />
    <path d="M13.8575 10.4285H21.1909" stroke="#141414" stroke-width="2" stroke-linecap="round"
        stroke-linejoin="round" />
    <path d="M1.28613 40.8096L1.28613 26.1429" stroke="#141414" stroke-width="2" stroke-linecap="round"
        stroke-linejoin="round" />
    <path d="M55.7627 30.3333L55.7627 15.6666" stroke="#141414" stroke-width="2" stroke-linecap="round"
        stroke-linejoin="round" />
    <path d="M35.8575 9.38086L43.1909 9.38086" stroke="#141414" stroke-width="2" stroke-linecap="round"
        stroke-linejoin="round" />
    <path d="M17 26.1428H24.3333" stroke="#141414" stroke-width="2" stroke-linecap="round" stroke-linejoin="round" />
    <path d="M13.8575 35.5715H21.1909" stroke="#141414" stroke-width="2" stroke-linecap="round"
        stroke-linejoin="round" />
    <path d="M40.0481 35.5715H44.2386" stroke="#141414" stroke-width="2" stroke-linecap="round"
        stroke-linejoin="round" />
    <path d="M40.0481 26.1428H44.2386" stroke="#141414" stroke-width="2" stroke-linecap="round"
        stroke-linejoin="round" />
</svg>