<svg width="53" height="61" viewBox="0 0 53 61" fill="none" xmlns="http://www.w3.org/2000/svg">
    <path
        d="M52 43.5236H43C41.9 43.5236 41 44.4236 41 45.5236V46.1336H37.93C36.52 46.1336 35.13 45.8736 33.81 45.3536L29.65 43.7136C29.58 43.6836 29.5 43.6636 29.43 43.6536L19.48 42.2336C17.72 41.9836 16.06 43.1536 15.71 44.9036C15.67 45.1236 15.64 45.3536 15.64 45.5636C15.64 47.0736 16.66 48.3936 18.12 48.7836L22.35 49.9436L20.43 50.5836H15.55L3.77 46.6636C2.73 46.3236 1.61 46.5836 0.84 47.3536C0.3 47.8936 0 48.6136 0 49.3836C0 50.4536 0.58 51.4236 1.52 51.9136L14.05 58.5436C14.13 58.5936 14.23 58.6236 14.32 58.6436L23 60.3836C23.06 60.3936 23.13 60.4036 23.2 60.4036C23.28 60.4036 23.36 60.4036 23.44 60.3736L31.94 58.2836C32.81 58.0636 33.72 57.9536 34.64 57.9536H41V58.5236C41 59.6236 41.9 60.5236 43 60.5236H52C52.55 60.5236 53 60.0736 53 59.5236V44.5236C53 43.9736 52.55 43.5236 52 43.5236ZM41 55.9536H34.64C33.56 55.9536 32.49 56.0836 31.46 56.3436L23.18 58.3836L14.86 56.7136L2.45 50.1536C2.17 50.0036 2 49.7236 2 49.3936C2 49.1636 2.09 48.9436 2.26 48.7836C2.49 48.5536 2.84 48.4736 3.15 48.5736L15.08 52.5436C15.18 52.5736 15.29 52.5936 15.4 52.5936H20.6C20.71 52.5936 20.81 52.5736 20.92 52.5436L26.13 50.8136C26.55 50.6736 26.83 50.2736 26.81 49.8336C26.79 49.3936 26.5 49.0136 26.07 48.8936L18.65 46.8636C18.06 46.7036 17.65 46.1736 17.65 45.5736C17.65 45.4836 17.66 45.3836 17.68 45.2936C17.82 44.5936 18.48 44.1236 19.2 44.2236L29.03 45.6236L33.08 47.2236C34.64 47.8336 36.27 48.1436 37.93 48.1436H41V55.9636V55.9536ZM51 58.5236H43V45.5236H51V58.5236Z"
        fill="black" />
    <path
        d="M12.04 42.8936C9.43 39.6936 8 35.6636 8 31.5236C8 30.8736 8.04 30.2336 8.11 29.5936L11.47 30.2736C12.06 30.3936 12.56 30.7336 12.88 31.2436C13.2 31.7436 13.3 32.3436 13.15 32.9136L12.7 34.6836C12.43 35.8236 12.64 37.0336 13.29 38.0036L14.9 40.4036C15.18 40.8236 15.3 41.3436 15.26 41.8536L17.25 42.0436C17.34 41.0836 17.1 40.1036 16.57 39.3036L14.96 36.9036C14.62 36.3936 14.51 35.7536 14.65 35.1636L15.09 33.4036C15.37 32.3136 15.18 31.1336 14.57 30.1736C13.96 29.2136 12.97 28.5336 11.86 28.3136L8.45 27.6236C9.66 22.1536 13.38 17.6236 18.32 15.2736L22.99 17.1336C23.44 17.3136 23.79 17.6636 23.97 18.1036C24.15 18.5436 24.14 19.0236 23.94 19.4536L19.7 29.0036C18.97 30.6636 19.53 32.6136 21.04 33.6236L22.14 34.3536C22.79 34.7836 23.07 35.5936 22.82 36.3336L22.04 38.6636L23.94 39.2936L24.72 36.9736C25.26 35.3736 24.65 33.6136 23.25 32.6836L22.16 31.9536C21.46 31.4836 21.19 30.5736 21.54 29.8036L25.78 20.2536C26.19 19.3236 26.21 18.2836 25.83 17.3436C25.45 16.3936 24.71 15.6536 23.75 15.2636L21.1 14.2036C22.67 13.7536 24.32 13.5036 26.02 13.5036C28.39 13.5036 30.64 13.9736 32.71 14.8036L29.64 23.7936C29.31 24.8136 29.64 25.8736 30.52 26.4936C31.39 27.1136 32.49 27.1036 33.35 26.4536C33.54 26.3136 33.75 26.3636 33.88 26.5236C33.95 26.6136 33.98 26.7136 33.96 26.8336L33.57 29.2136C33.4 30.2036 33.85 31.1736 34.72 31.6836C35.1 31.9036 35.52 32.0136 35.93 32.0136C36.47 32.0136 37 31.8236 37.44 31.4636L43.35 26.6936C43.77 28.2236 44.02 29.8236 44.02 31.4936C44.02 35.2536 42.87 38.8636 40.7 41.9136L42.33 43.0736C44.74 39.6736 46.02 35.6736 46.02 31.4936C46.02 20.8036 37.58 12.0736 27.02 11.5436V8.6136C27.21 8.6236 27.41 8.6336 27.62 8.6336C28.98 8.6336 30.81 8.3636 32.02 7.1436C34.13 5.0336 33.39 1.1136 33.35 0.943599C33.27 0.543599 32.96 0.233599 32.56 0.153599C32.39 0.123599 28.47 -0.626401 26.36 1.4836C26.12 1.7236 25.92 1.9936 25.74 2.2936C25.71 2.2636 25.68 2.2236 25.65 2.1936C23.75 0.293599 20.33 0.833599 20.18 0.853599C19.76 0.923599 19.43 1.2536 19.36 1.6736C19.34 1.8136 18.8 5.2336 20.7 7.1436C21.9 8.3436 23.7 8.5736 24.9 8.5736C24.94 8.5736 24.97 8.5736 25 8.5736V11.5536C14.44 12.0836 6 20.8136 6 31.5036C6 36.0936 7.6 40.5836 10.49 44.1336L12.04 42.8736V42.8936ZM42.65 24.7136L36.16 29.9536C35.97 30.1036 35.79 30.0436 35.7 29.9936C35.61 29.9436 35.48 29.8236 35.52 29.5936L35.91 27.2136C36.03 26.5036 35.85 25.8236 35.39 25.2736C34.6 24.3336 33.12 24.1436 32.12 24.8936C31.93 25.0336 31.77 24.9736 31.66 24.8936C31.57 24.8336 31.44 24.6836 31.51 24.4536L34.51 15.6736C38.16 17.6436 41.05 20.8436 42.64 24.7036L42.65 24.7136ZM27.77 2.9336C28.66 2.0436 30.38 1.9636 31.47 2.0536C31.56 3.1436 31.49 4.8636 30.59 5.7536C29.75 6.5936 28.16 6.7036 27.07 6.6436C27.08 6.1436 27.06 5.5236 26.93 4.8636C27.02 4.2436 27.23 3.4536 27.76 2.9236L27.77 2.9336ZM22.11 5.7636C21.38 5.0336 21.24 3.7136 21.27 2.7936C22.19 2.7736 23.51 2.9136 24.24 3.6336C24.97 4.3636 25.11 5.6836 25.08 6.6036C24.16 6.6236 22.84 6.4836 22.11 5.7636Z"
        fill="black" />
</svg>