<svg width="56" height="56" viewBox="0 0 56 56" fill="none" xmlns="http://www.w3.org/2000/svg">
    <mask id="path-1-inside-1_11_1767" fill="white">
        <path fill-rule="evenodd" clip-rule="evenodd"
            d="M0.235865 40.9552C0.31288 40.4946 0.750071 40.1833 1.21241 40.2601C1.67462 40.3368 1.98694 40.7725 1.90992 41.2333C1.63381 42.8862 1.623 44.3773 1.8985 45.6542C2.15202 46.8293 2.65323 47.821 3.4195 48.5847C5.8495 51.0063 10.5612 50.7915 16.2144 48.4868C22.0868 46.0928 28.8938 41.4481 35.2432 35.1205L35.2433 35.1204C41.5928 28.7928 46.2535 22.0094 48.6558 16.1572C50.9685 10.5235 51.1839 5.82821 48.754 3.40659C48.0397 2.69478 47.1283 2.21261 46.056 1.94629C44.892 1.6572 43.5412 1.61508 42.0456 1.80296C41.5815 1.86143 41.1576 1.53397 41.099 1.07141C41.0403 0.608853 41.3689 0.186487 41.833 0.128016C43.5395 -0.0863749 45.0981 -0.0340785 46.4613 0.304517C47.8398 0.646865 49.0201 1.27527 49.9564 2.20837C52.9154 5.15719 52.8008 10.5147 50.2237 16.7928C47.7363 22.8524 42.947 29.8399 36.4458 36.3186L36.4457 36.3187C29.9446 42.7974 22.9329 47.5702 16.8522 50.0492C10.5523 52.6175 5.17628 52.7316 2.21725 49.7829C1.21338 48.7825 0.56142 47.5046 0.237808 46.0051C-0.0826445 44.5203 -0.0752346 42.8176 0.235865 40.9552ZM37.2476 12.6058C37.0026 12.3616 36.6639 12.2106 36.2897 12.2106C35.9157 12.2106 35.5769 12.3616 35.3319 12.6058C35.0869 12.85 34.9353 13.1875 34.9353 13.5603C34.9353 13.9332 35.0869 14.2707 35.3319 14.5149C35.5769 14.759 35.9156 14.9101 36.2897 14.9101C36.6639 14.9101 37.0026 14.759 37.2476 14.5149C37.4926 14.2707 37.6442 13.9332 37.6442 13.5603C37.6442 13.1875 37.4926 12.85 37.2476 12.6058ZM36.2897 10.5158C35.4462 10.5158 34.6824 10.8567 34.1295 11.4076C33.5766 11.9586 33.2346 12.7197 33.2346 13.5603C33.2346 14.4009 33.5766 15.162 34.1295 15.7131C34.6824 16.264 35.4462 16.6049 36.2897 16.6049C37.1333 16.6049 37.8971 16.264 38.4499 15.7131C39.0028 15.1622 39.3448 14.4009 39.3448 13.5603C39.3448 12.7197 39.0029 11.9586 38.4499 11.4076C37.897 10.8565 37.1333 10.5158 36.2897 10.5158ZM36.0819 9.10654C34.9211 9.10654 33.7607 9.54477 32.8814 10.4211L32.8812 10.4212C32.002 11.2975 31.5623 12.4538 31.5623 13.6106C31.5623 13.8273 31.5777 14.0441 31.6085 14.2588L31.6087 14.2593L31.6089 14.2611C31.7431 15.1923 32.1673 16.0884 32.8812 16.7999H32.8814L36.0819 19.9894L39.2824 16.7999C39.9964 16.0884 40.4206 15.1923 40.5549 14.2611L40.5551 14.2594V14.2588C40.586 14.044 40.6014 13.8273 40.6014 13.6106C40.6014 12.4538 40.1616 11.2974 39.2824 10.4212L39.2823 10.4211C38.403 9.54477 37.2428 9.10654 36.0819 9.10654ZM16.5801 22.8439C16.335 22.5996 15.9964 22.4487 15.6222 22.4487C15.2481 22.4487 14.9094 22.5997 14.6644 22.8439C14.4194 23.0881 14.2678 23.4256 14.2678 23.7985C14.2678 24.1713 14.4194 24.5087 14.6644 24.753C14.9094 24.9972 15.2481 25.1482 15.6222 25.1482C15.9964 25.1482 16.335 24.9972 16.5801 24.753C16.8251 24.5088 16.9767 24.1713 16.9767 23.7985C16.9767 23.4256 16.8251 23.0881 16.5801 22.8439ZM15.6222 20.7539C14.7787 20.7539 14.0149 21.0948 13.462 21.6457C12.9092 22.1966 12.5671 22.9578 12.5671 23.7985C12.5671 24.6391 12.9092 25.4003 13.462 25.9512C14.0149 26.5021 14.7787 26.843 15.6222 26.843C16.4657 26.843 17.2295 26.5021 17.7824 25.9512C18.3354 25.4003 18.6773 24.6391 18.6773 23.7985C18.6773 22.9578 18.3353 22.1966 17.7824 21.6457C17.2296 21.0948 16.4657 20.7539 15.6222 20.7539ZM15.4144 19.3447C14.2536 19.3447 13.0932 19.7829 12.2139 20.6592L12.2137 20.6593C11.3344 21.5357 10.8947 22.6919 10.8947 23.8487C10.8947 25.0055 11.3345 26.1617 12.2137 27.038L15.4144 30.2275L18.6149 27.038C19.4943 26.1617 19.934 25.0055 19.934 23.8487C19.934 22.6919 19.4944 21.5355 18.615 20.6593L18.6149 20.6592C17.7357 19.7828 16.5753 19.3447 15.4144 19.3447ZM53.9173 21.0789C54.4503 24.284 54.4403 27.5892 53.8438 30.8496C53.2701 33.9861 52.1535 37.0843 50.4559 40.0153L50.4544 40.0145C47.4515 45.1976 43.0686 49.0884 38.0369 51.4912C32.854 53.9664 26.9823 54.8662 21.2207 53.9772C20.7585 53.9059 20.3256 54.2217 20.2541 54.6823C20.1825 55.1429 20.4993 55.5742 20.9616 55.6455C27.063 56.5869 33.2803 55.6344 38.7676 53.0139C44.1011 50.4668 48.7445 46.3471 51.9224 40.8619L51.921 40.861L51.9224 40.8586C53.72 37.7557 54.9028 34.473 55.5111 31.1476C56.143 27.6927 56.1545 24.195 55.5911 20.8075C55.5159 20.3469 55.0802 20.0341 54.6179 20.1091C54.1559 20.1839 53.8421 20.6182 53.9173 21.0789ZM45.2414 15.2356H42.087C41.8136 16.2491 41.2795 17.2061 40.4848 17.9981L40.4846 17.9983L37.2142 21.2575C37.2681 21.9394 37.3116 22.6583 37.3439 23.4141C37.382 24.3029 37.4015 25.1648 37.4015 25.9956C37.4015 26.287 37.3983 26.6025 37.3922 26.9416C38.7761 25.3019 40.0422 23.655 41.1817 22.0235C42.8002 19.706 44.1623 17.4218 45.2414 15.2356ZM25.293 38.4503H17.9004C18.2666 39.9183 18.6962 41.287 19.18 42.5347C20.2073 41.9397 21.2493 41.2892 22.2999 40.5852C23.2917 39.9206 24.2912 39.2083 25.293 38.4503ZM17.9001 13.5408H29.8621C29.8795 11.9744 30.4851 10.4126 31.6789 9.22288L31.679 9.22275C31.9634 8.93936 32.2689 8.68938 32.5906 8.47245C31.7203 6.46739 30.7072 4.84571 29.5965 3.71601C28.4949 2.59551 27.3072 1.9751 26.0867 1.9751C24.1056 1.9751 22.2184 3.60077 20.6399 6.35323C19.5374 8.27573 18.6031 10.7217 17.9001 13.5408ZM30.0767 15.2356H17.5149C17.3398 16.0852 17.1845 16.963 17.0509 17.8657C18.0658 18.1386 19.024 18.6704 19.8174 19.461L19.8175 19.4611C21.029 20.6684 21.6348 22.259 21.6348 23.8487C21.6348 25.4384 21.029 27.029 19.8175 28.2363L16.7167 31.3262C16.8947 33.2364 17.1648 35.0555 17.5151 36.7556H27.4431C29.2837 35.2462 31.1203 33.5877 32.9212 31.793C33.8613 30.8562 34.7645 29.909 35.6288 28.9564C35.6519 28.5027 35.6696 28.0609 35.6814 27.6315C35.6944 27.1621 35.7009 26.6173 35.7009 25.9956C35.7009 25.1057 35.6837 24.2672 35.6499 23.4803C35.6272 22.9495 35.5955 22.4065 35.555 21.8527C35.5293 21.8325 35.5045 21.8105 35.4807 21.7869L31.679 17.9983L31.6789 17.9981C30.8842 17.2061 30.3501 16.2491 30.0767 15.2356ZM5.1498 38.4503C6.8903 41.3697 9.26491 43.8701 12.1548 45.8108C13.9067 45.2127 15.7636 44.3926 17.684 43.3674C17.0958 41.885 16.5815 40.2348 16.1554 38.4503H5.1498ZM4.35085 15.2356C2.73243 18.4763 1.82209 22.13 1.82209 25.9955C1.82209 29.9083 2.67121 33.548 4.23399 36.7554H15.7851C15.497 35.3058 15.2654 33.786 15.0972 32.2119C14.9938 32.1705 14.8969 32.1081 14.8131 32.0247L11.0114 28.2361C9.79989 27.0288 9.19409 25.4383 9.19409 23.8486C9.19409 22.2589 9.79989 20.6683 11.0114 19.461C12.2115 18.265 13.789 17.6614 15.3693 17.6501C15.4909 16.8253 15.6301 16.0197 15.7857 15.2356H4.35085ZM21.6973 2.20983C16.7563 3.10952 12.3378 5.50014 8.92903 8.89711C7.53376 10.2874 6.30807 11.8467 5.28439 13.541H16.1559C16.908 10.3917 17.9369 7.65422 19.1651 5.51261C19.9317 4.17591 20.7813 3.0617 21.6973 2.20983ZM46.3793 12.7115C44.2339 9.39066 41.3196 6.67512 37.876 4.78506C35.6098 3.54133 33.1133 2.65556 30.4545 2.19046C30.5726 2.29965 30.6897 2.4132 30.8056 2.53111C32.0493 3.79627 33.1684 5.56648 34.1146 7.72649C34.7518 7.5167 35.4169 7.41175 36.0819 7.41175C37.6772 7.41175 39.2732 8.01546 40.4848 9.22275L40.4849 9.22288C41.6786 10.4126 42.2843 11.9744 42.3017 13.5408H46.0298C46.1512 13.2624 46.2677 12.9859 46.3793 12.7115ZM26.0867 50.1764C27.4203 50.1764 28.7169 49.4206 29.9063 48.0722C30.6813 47.1937 31.4043 46.0732 32.0592 44.7503C31.4834 45.213 30.9071 45.6617 30.3312 46.0961C28.3139 47.6179 26.3011 48.9627 24.333 50.1146C24.9105 50.1555 25.4954 50.1764 26.0867 50.1764ZM46.889 38.4503H38.9843C38.7274 38.7135 38.4677 38.976 38.205 39.2376C37.1148 40.3241 36.0096 41.3631 34.8964 42.3517C33.8935 45.2045 32.6278 47.5519 31.1818 49.191C31.0092 49.3867 30.8339 49.5724 30.6559 49.7481C35.5243 48.8236 39.877 46.4498 43.2445 43.094C44.6396 41.7037 45.8654 40.1445 46.889 38.4503ZM50.206 23.4773C49.0408 25.6676 47.6181 27.9325 45.9617 30.2138C44.3776 32.3959 42.5802 34.5934 40.5908 36.7554H47.8226C49.4411 33.5147 50.3513 29.8611 50.3513 25.9955C50.3513 25.2094 50.2978 24.3503 50.209 23.5063L50.206 23.4773Z" />
    </mask>
    <path fill-rule="evenodd" clip-rule="evenodd"
        d="M0.235865 40.9552C0.31288 40.4946 0.750071 40.1833 1.21241 40.2601C1.67462 40.3368 1.98694 40.7725 1.90992 41.2333C1.63381 42.8862 1.623 44.3773 1.8985 45.6542C2.15202 46.8293 2.65323 47.821 3.4195 48.5847C5.8495 51.0063 10.5612 50.7915 16.2144 48.4868C22.0868 46.0928 28.8938 41.4481 35.2432 35.1205L35.2433 35.1204C41.5928 28.7928 46.2535 22.0094 48.6558 16.1572C50.9685 10.5235 51.1839 5.82821 48.754 3.40659C48.0397 2.69478 47.1283 2.21261 46.056 1.94629C44.892 1.6572 43.5412 1.61508 42.0456 1.80296C41.5815 1.86143 41.1576 1.53397 41.099 1.07141C41.0403 0.608853 41.3689 0.186487 41.833 0.128016C43.5395 -0.0863749 45.0981 -0.0340785 46.4613 0.304517C47.8398 0.646865 49.0201 1.27527 49.9564 2.20837C52.9154 5.15719 52.8008 10.5147 50.2237 16.7928C47.7363 22.8524 42.947 29.8399 36.4458 36.3186L36.4457 36.3187C29.9446 42.7974 22.9329 47.5702 16.8522 50.0492C10.5523 52.6175 5.17628 52.7316 2.21725 49.7829C1.21338 48.7825 0.56142 47.5046 0.237808 46.0051C-0.0826445 44.5203 -0.0752346 42.8176 0.235865 40.9552ZM37.2476 12.6058C37.0026 12.3616 36.6639 12.2106 36.2897 12.2106C35.9157 12.2106 35.5769 12.3616 35.3319 12.6058C35.0869 12.85 34.9353 13.1875 34.9353 13.5603C34.9353 13.9332 35.0869 14.2707 35.3319 14.5149C35.5769 14.759 35.9156 14.9101 36.2897 14.9101C36.6639 14.9101 37.0026 14.759 37.2476 14.5149C37.4926 14.2707 37.6442 13.9332 37.6442 13.5603C37.6442 13.1875 37.4926 12.85 37.2476 12.6058ZM36.2897 10.5158C35.4462 10.5158 34.6824 10.8567 34.1295 11.4076C33.5766 11.9586 33.2346 12.7197 33.2346 13.5603C33.2346 14.4009 33.5766 15.162 34.1295 15.7131C34.6824 16.264 35.4462 16.6049 36.2897 16.6049C37.1333 16.6049 37.8971 16.264 38.4499 15.7131C39.0028 15.1622 39.3448 14.4009 39.3448 13.5603C39.3448 12.7197 39.0029 11.9586 38.4499 11.4076C37.897 10.8565 37.1333 10.5158 36.2897 10.5158ZM36.0819 9.10654C34.9211 9.10654 33.7607 9.54477 32.8814 10.4211L32.8812 10.4212C32.002 11.2975 31.5623 12.4538 31.5623 13.6106C31.5623 13.8273 31.5777 14.0441 31.6085 14.2588L31.6087 14.2593L31.6089 14.2611C31.7431 15.1923 32.1673 16.0884 32.8812 16.7999H32.8814L36.0819 19.9894L39.2824 16.7999C39.9964 16.0884 40.4206 15.1923 40.5549 14.2611L40.5551 14.2594V14.2588C40.586 14.044 40.6014 13.8273 40.6014 13.6106C40.6014 12.4538 40.1616 11.2974 39.2824 10.4212L39.2823 10.4211C38.403 9.54477 37.2428 9.10654 36.0819 9.10654ZM16.5801 22.8439C16.335 22.5996 15.9964 22.4487 15.6222 22.4487C15.2481 22.4487 14.9094 22.5997 14.6644 22.8439C14.4194 23.0881 14.2678 23.4256 14.2678 23.7985C14.2678 24.1713 14.4194 24.5087 14.6644 24.753C14.9094 24.9972 15.2481 25.1482 15.6222 25.1482C15.9964 25.1482 16.335 24.9972 16.5801 24.753C16.8251 24.5088 16.9767 24.1713 16.9767 23.7985C16.9767 23.4256 16.8251 23.0881 16.5801 22.8439ZM15.6222 20.7539C14.7787 20.7539 14.0149 21.0948 13.462 21.6457C12.9092 22.1966 12.5671 22.9578 12.5671 23.7985C12.5671 24.6391 12.9092 25.4003 13.462 25.9512C14.0149 26.5021 14.7787 26.843 15.6222 26.843C16.4657 26.843 17.2295 26.5021 17.7824 25.9512C18.3354 25.4003 18.6773 24.6391 18.6773 23.7985C18.6773 22.9578 18.3353 22.1966 17.7824 21.6457C17.2296 21.0948 16.4657 20.7539 15.6222 20.7539ZM15.4144 19.3447C14.2536 19.3447 13.0932 19.7829 12.2139 20.6592L12.2137 20.6593C11.3344 21.5357 10.8947 22.6919 10.8947 23.8487C10.8947 25.0055 11.3345 26.1617 12.2137 27.038L15.4144 30.2275L18.6149 27.038C19.4943 26.1617 19.934 25.0055 19.934 23.8487C19.934 22.6919 19.4944 21.5355 18.615 20.6593L18.6149 20.6592C17.7357 19.7828 16.5753 19.3447 15.4144 19.3447ZM53.9173 21.0789C54.4503 24.284 54.4403 27.5892 53.8438 30.8496C53.2701 33.9861 52.1535 37.0843 50.4559 40.0153L50.4544 40.0145C47.4515 45.1976 43.0686 49.0884 38.0369 51.4912C32.854 53.9664 26.9823 54.8662 21.2207 53.9772C20.7585 53.9059 20.3256 54.2217 20.2541 54.6823C20.1825 55.1429 20.4993 55.5742 20.9616 55.6455C27.063 56.5869 33.2803 55.6344 38.7676 53.0139C44.1011 50.4668 48.7445 46.3471 51.9224 40.8619L51.921 40.861L51.9224 40.8586C53.72 37.7557 54.9028 34.473 55.5111 31.1476C56.143 27.6927 56.1545 24.195 55.5911 20.8075C55.5159 20.3469 55.0802 20.0341 54.6179 20.1091C54.1559 20.1839 53.8421 20.6182 53.9173 21.0789ZM45.2414 15.2356H42.087C41.8136 16.2491 41.2795 17.2061 40.4848 17.9981L40.4846 17.9983L37.2142 21.2575C37.2681 21.9394 37.3116 22.6583 37.3439 23.4141C37.382 24.3029 37.4015 25.1648 37.4015 25.9956C37.4015 26.287 37.3983 26.6025 37.3922 26.9416C38.7761 25.3019 40.0422 23.655 41.1817 22.0235C42.8002 19.706 44.1623 17.4218 45.2414 15.2356ZM25.293 38.4503H17.9004C18.2666 39.9183 18.6962 41.287 19.18 42.5347C20.2073 41.9397 21.2493 41.2892 22.2999 40.5852C23.2917 39.9206 24.2912 39.2083 25.293 38.4503ZM17.9001 13.5408H29.8621C29.8795 11.9744 30.4851 10.4126 31.6789 9.22288L31.679 9.22275C31.9634 8.93936 32.2689 8.68938 32.5906 8.47245C31.7203 6.46739 30.7072 4.84571 29.5965 3.71601C28.4949 2.59551 27.3072 1.9751 26.0867 1.9751C24.1056 1.9751 22.2184 3.60077 20.6399 6.35323C19.5374 8.27573 18.6031 10.7217 17.9001 13.5408ZM30.0767 15.2356H17.5149C17.3398 16.0852 17.1845 16.963 17.0509 17.8657C18.0658 18.1386 19.024 18.6704 19.8174 19.461L19.8175 19.4611C21.029 20.6684 21.6348 22.259 21.6348 23.8487C21.6348 25.4384 21.029 27.029 19.8175 28.2363L16.7167 31.3262C16.8947 33.2364 17.1648 35.0555 17.5151 36.7556H27.4431C29.2837 35.2462 31.1203 33.5877 32.9212 31.793C33.8613 30.8562 34.7645 29.909 35.6288 28.9564C35.6519 28.5027 35.6696 28.0609 35.6814 27.6315C35.6944 27.1621 35.7009 26.6173 35.7009 25.9956C35.7009 25.1057 35.6837 24.2672 35.6499 23.4803C35.6272 22.9495 35.5955 22.4065 35.555 21.8527C35.5293 21.8325 35.5045 21.8105 35.4807 21.7869L31.679 17.9983L31.6789 17.9981C30.8842 17.2061 30.3501 16.2491 30.0767 15.2356ZM5.1498 38.4503C6.8903 41.3697 9.26491 43.8701 12.1548 45.8108C13.9067 45.2127 15.7636 44.3926 17.684 43.3674C17.0958 41.885 16.5815 40.2348 16.1554 38.4503H5.1498ZM4.35085 15.2356C2.73243 18.4763 1.82209 22.13 1.82209 25.9955C1.82209 29.9083 2.67121 33.548 4.23399 36.7554H15.7851C15.497 35.3058 15.2654 33.786 15.0972 32.2119C14.9938 32.1705 14.8969 32.1081 14.8131 32.0247L11.0114 28.2361C9.79989 27.0288 9.19409 25.4383 9.19409 23.8486C9.19409 22.2589 9.79989 20.6683 11.0114 19.461C12.2115 18.265 13.789 17.6614 15.3693 17.6501C15.4909 16.8253 15.6301 16.0197 15.7857 15.2356H4.35085ZM21.6973 2.20983C16.7563 3.10952 12.3378 5.50014 8.92903 8.89711C7.53376 10.2874 6.30807 11.8467 5.28439 13.541H16.1559C16.908 10.3917 17.9369 7.65422 19.1651 5.51261C19.9317 4.17591 20.7813 3.0617 21.6973 2.20983ZM46.3793 12.7115C44.2339 9.39066 41.3196 6.67512 37.876 4.78506C35.6098 3.54133 33.1133 2.65556 30.4545 2.19046C30.5726 2.29965 30.6897 2.4132 30.8056 2.53111C32.0493 3.79627 33.1684 5.56648 34.1146 7.72649C34.7518 7.5167 35.4169 7.41175 36.0819 7.41175C37.6772 7.41175 39.2732 8.01546 40.4848 9.22275L40.4849 9.22288C41.6786 10.4126 42.2843 11.9744 42.3017 13.5408H46.0298C46.1512 13.2624 46.2677 12.9859 46.3793 12.7115ZM26.0867 50.1764C27.4203 50.1764 28.7169 49.4206 29.9063 48.0722C30.6813 47.1937 31.4043 46.0732 32.0592 44.7503C31.4834 45.213 30.9071 45.6617 30.3312 46.0961C28.3139 47.6179 26.3011 48.9627 24.333 50.1146C24.9105 50.1555 25.4954 50.1764 26.0867 50.1764ZM46.889 38.4503H38.9843C38.7274 38.7135 38.4677 38.976 38.205 39.2376C37.1148 40.3241 36.0096 41.3631 34.8964 42.3517C33.8935 45.2045 32.6278 47.5519 31.1818 49.191C31.0092 49.3867 30.8339 49.5724 30.6559 49.7481C35.5243 48.8236 39.877 46.4498 43.2445 43.094C44.6396 41.7037 45.8654 40.1445 46.889 38.4503ZM50.206 23.4773C49.0408 25.6676 47.6181 27.9325 45.9617 30.2138C44.3776 32.3959 42.5802 34.5934 40.5908 36.7554H47.8226C49.4411 33.5147 50.3513 29.8611 50.3513 25.9955C50.3513 25.2094 50.2978 24.3503 50.209 23.5063L50.206 23.4773Z"
        fill="#FFD550" stroke="black" stroke-width="2" mask="url(#path-1-inside-1_11_1767)" />
</svg>