<svg width="75" height="75" viewBox="0 0 75 75" fill="none" xmlns="http://www.w3.org/2000/svg">
    <path d="M8.69531 37.8877L14.7105 43.9029" stroke="#3244CA" stroke-width="2" stroke-linecap="round"
        stroke-linejoin="round" />
    <mask id="path-2-inside-1_1_696" fill="white">
        <path
            d="M66.5024 26.3995C66.1952 26.2042 65.8071 26.1781 65.4764 26.3318L51.0472 33.0761C50.7868 33.1985 50.5863 33.4198 50.4899 33.6907C50.4665 33.7584 50.4509 33.8287 50.4404 33.899C47.2921 32.722 42.4175 31.0762 41.7195 30.8419C41.3836 30.7299 40.9878 30.6049 40.5451 30.5815C40.1025 30.5606 39.6911 30.6388 39.3603 30.7039L31.9781 32.1543C31.7281 32.2038 31.3114 32.2845 30.952 32.5996C30.7385 32.7871 30.6109 32.9954 30.5224 33.1621C28.1631 33.2767 25.7934 33.4147 23.4474 33.5657C23.3406 33.3548 23.1688 33.1803 22.95 33.0787L8.52078 26.3344C8.19007 26.1808 7.80209 26.2042 7.49477 26.4021C7.18749 26.5974 7 26.9386 7 27.3032V43.2683C7 43.6798 7.23697 44.0548 7.60934 44.2318L15.5623 48.0311C15.7107 48.1014 15.8669 48.1352 16.0232 48.1352C16.4164 48.1352 16.7939 47.9165 16.9815 47.5415L17.1377 47.229C17.3486 47.3592 17.557 47.479 17.7549 47.591L19.9995 48.8539C19.8954 48.9607 19.7886 49.0701 19.6975 49.1742C19.0829 49.8721 18.7314 50.6586 18.6845 51.4502C18.622 52.497 19.122 53.4865 19.9605 53.9761C20.3537 54.2053 20.8068 54.3225 21.2834 54.3225C21.4969 54.3225 21.7131 54.2964 21.9318 54.2495C21.9318 54.2574 21.9292 54.2652 21.9292 54.273C21.8589 55.437 22.4136 56.5411 23.3432 57.0854C23.7807 57.3406 24.2806 57.4682 24.8119 57.4682C25.1243 57.4682 25.4446 57.4187 25.7675 57.3301C25.7181 58.5306 26.291 59.6582 27.2493 60.218C27.6998 60.481 28.231 60.6112 28.7882 60.6112C29.2726 60.6112 29.7804 60.507 30.2752 60.3091C30.4132 60.981 30.8116 61.5695 31.3819 61.9028C31.7413 62.1111 32.1501 62.2179 32.5798 62.2179C32.9912 62.2179 33.4183 62.1215 33.8401 61.9314C34.7099 61.5382 35.452 60.8924 36.0822 60.3169C36.4338 59.9966 36.9207 59.5488 37.3321 59.0149C38.5821 59.4706 41.7069 60.5226 42.8761 60.5226C42.9881 60.5226 43.0818 60.5122 43.1522 60.4914C44.0271 60.244 45.2354 59.5383 46.0061 58.5358C46.5582 58.7285 47.0035 58.8456 47.2639 58.8639C47.3758 58.8717 47.506 58.8795 47.6467 58.8795C47.9461 58.8795 48.2977 58.843 48.644 58.679C49.5919 58.2311 49.8497 57.1973 49.9747 56.6999C49.9747 56.6973 49.9929 56.6192 50.0137 56.4942C50.295 56.5905 50.5241 56.6504 50.6726 56.6608C50.7741 56.6686 50.8939 56.6765 51.0293 56.6765C51.3574 56.6765 51.7663 56.627 52.1621 56.3822C52.9823 55.8744 53.2453 54.9005 53.425 54.0255C53.4276 54.0177 53.5083 53.6141 53.5265 53.1037C53.8442 53.1532 54.1645 53.187 54.4952 53.187C54.8129 53.187 55.1358 53.161 55.4639 53.1063C56.7477 52.8902 57.6773 52.0803 57.956 50.9345C58.2633 49.6611 57.693 48.2316 56.5394 47.3722C56.5186 47.3566 56.4951 47.341 56.4743 47.3253C56.5941 47.2706 56.7139 47.2212 56.831 47.1639L57.0185 47.5415C57.206 47.9164 57.5836 48.1352 57.9768 48.1352C58.1305 48.1352 58.2893 48.1013 58.4377 48.031L66.3907 44.2318C66.763 44.0547 67 43.6797 67 43.2683V27.3031C67 26.9385 66.8125 26.5974 66.5052 26.4021L66.5024 26.3995ZM20.9708 52.2448C20.7911 52.1407 20.6687 51.8516 20.687 51.573C20.7078 51.2371 20.8901 50.8569 21.2026 50.5001C22.0124 49.5809 23.5358 48.4039 24.7675 48.0315C24.9472 47.9768 25.1086 47.9508 25.2362 47.9508C25.3404 47.9508 25.4211 47.969 25.4784 48.0029C25.5643 48.0575 25.632 48.1643 25.6451 48.2659C25.7414 48.9976 24.4785 50.1512 23.9394 50.6433C23.3197 51.2084 22.5983 51.8386 21.8666 52.1719C21.5203 52.3308 21.1687 52.3568 20.9734 52.2422L20.9708 52.2448ZM24.3508 55.3541C24.0826 55.1978 23.9029 54.7942 23.929 54.3958C23.955 53.9609 24.1868 53.474 24.58 53.026C25.5747 51.8985 27.3637 50.5184 28.8636 50.0653C29.0173 50.0184 29.249 49.9611 29.4678 49.9611C29.6084 49.9611 29.7438 49.9845 29.8479 50.0522C29.9938 50.146 30.1031 50.3152 30.1266 50.4897C30.2542 51.4454 28.7178 52.849 28.0615 53.4453C27.322 54.1197 26.4601 54.8749 25.5721 55.2759C25.106 55.4895 24.6399 55.5181 24.356 55.3515L24.3508 55.3541ZM28.2569 58.4867C27.9392 58.3018 27.7387 57.8513 27.7673 57.3904C27.796 56.9061 28.0512 56.3697 28.4834 55.8775C29.5563 54.6588 31.4911 53.1693 33.1108 52.6797C33.28 52.6276 33.5352 52.5652 33.78 52.5652C33.9441 52.5652 34.1029 52.5938 34.2279 52.6719C34.4024 52.7839 34.5326 52.987 34.5612 53.1927C34.7018 54.2552 33.0952 55.7239 32.3217 56.4296C31.5249 57.156 30.5926 57.9711 29.6317 58.4087C29.2229 58.5935 28.6474 58.7133 28.2594 58.4868L28.2569 58.4867ZM34.7253 58.8356C34.2097 59.307 33.6081 59.833 33.0066 60.1038C32.7358 60.2262 32.491 60.2288 32.3895 60.1715C32.3009 60.1194 32.2124 59.9397 32.2228 59.7418C32.2384 59.4892 32.3791 59.2002 32.6212 58.9267C33.4103 58.0309 34.681 57.1507 35.5716 56.88C35.7305 56.8331 35.8451 56.8175 35.9232 56.8175C35.9935 56.8175 36.0325 56.8279 36.0456 56.8383C36.0794 56.8617 36.1133 56.9112 36.1185 56.9503C36.1888 57.4919 35.0847 58.5023 34.7201 58.8356L34.7253 58.8356ZM56.0055 50.4661C55.9196 50.8228 55.6253 51.0468 55.1332 51.1301C53.4249 51.4191 51.7115 50.4505 50.1986 49.6015C48.4721 48.6302 46.8289 47.4975 45.3082 46.2345C44.8837 45.8803 44.251 45.9376 43.8942 46.3647C43.5401 46.7891 43.5974 47.4219 44.0244 47.7761C45.6363 49.1171 47.3836 50.3202 49.2143 51.3488C49.9096 51.7394 50.6777 52.1665 51.5006 52.5128V52.5154C51.5345 52.781 51.5032 53.406 51.459 53.6195C51.2949 54.4163 51.1647 54.6273 51.1308 54.6637C51.0762 54.6793 50.8965 54.6663 50.8288 54.6611C49.7403 54.4997 43.6232 51.1405 42.9072 49.9712C42.6182 49.4999 42.001 49.3515 41.5271 49.6405C41.0557 49.9296 40.9073 50.5467 41.1964 51.0206C41.9828 52.307 45.493 54.4189 48.0607 55.661C48.0685 55.8459 48.0503 56.1089 48.0268 56.2131C47.9044 56.7052 47.8159 56.8354 47.7951 56.8615C47.7274 56.8849 47.5008 56.8693 47.3966 56.8641C46.4175 56.7625 40.613 54.1012 39.8344 53.1247C39.488 52.6924 38.8605 52.6195 38.4256 52.9658C37.9933 53.3096 37.9204 53.9423 38.2667 54.3746C38.9776 55.2652 41.7014 56.7286 44.0138 57.7442C43.6128 58.101 43.1259 58.3848 42.7222 58.5255C42.0321 58.4343 39.3891 57.6583 38.1183 57.1844C38.1313 57.023 38.1313 56.8589 38.1079 56.6896C38.0246 56.0647 37.6574 55.4866 37.1262 55.148C36.91 55.01 36.6054 54.8798 36.2147 54.833C36.4882 54.234 36.634 53.5934 36.5455 52.9294C36.4413 52.1378 35.9752 51.4087 35.3033 50.9816C34.7877 50.6534 33.8919 50.3488 32.53 50.7576C32.392 50.7993 32.254 50.8566 32.116 50.9086C32.1394 50.6847 32.142 50.4581 32.1107 50.229C32.0118 49.4712 31.5665 48.7733 30.9233 48.3645C30.4312 48.0494 29.5745 47.7578 28.2803 48.1484C28.072 48.2109 27.861 48.2916 27.6501 48.3775C27.6527 48.2551 27.6475 48.1301 27.6293 48.0051C27.5381 47.3177 27.1345 46.6849 26.5512 46.3125C26.1059 46.0287 25.3377 45.7631 24.1841 46.112C23.3222 46.3724 22.4212 46.8801 21.6139 47.4635L18.7339 45.8437C18.4839 45.7031 18.2521 45.5625 18.0334 45.4193L22.9107 35.6098C25.0304 35.4692 27.1709 35.3468 29.3115 35.2348C28.8948 35.8832 28.4495 36.516 27.9834 37.1227C27.3871 37.8987 26.5694 38.9637 26.809 40.2762C27.0642 41.6746 28.413 42.4818 29.6135 42.5574C29.6942 42.5626 29.7723 42.5652 29.8531 42.5652C30.9025 42.5652 31.8556 42.1355 32.5847 41.7527C33.8555 41.0809 34.9127 40.297 35.7512 39.4195C37.4803 39.4455 42.0634 39.7736 44.1361 41.0053C44.3366 41.1251 44.5346 41.2501 44.7299 41.3777C46.5866 42.5808 48.4041 43.9374 50.1618 45.2499L50.7686 45.703C51.5367 46.2759 52.318 46.8279 53.0992 47.38C53.8492 47.9086 54.5991 48.4398 55.3335 48.9867C55.9272 49.4294 56.0938 50.0648 55.9975 50.4684L56.0055 50.4661ZM54.4821 45.896C54.4092 45.8439 54.3389 45.7918 54.266 45.7397C53.4978 45.1981 52.7296 44.6539 51.9744 44.0913L51.3677 43.6382C49.5839 42.305 47.7377 40.93 45.8263 39.6905C45.6076 39.5499 45.3862 39.4093 45.1649 39.2765C42.9515 37.9614 39.0012 37.5734 36.9593 37.4588C36.9307 37.1646 36.777 36.8859 36.5114 36.7141C36.0479 36.412 35.4255 36.5474 35.1235 37.0109C34.3865 38.1489 33.2173 39.1462 31.6497 39.9769C31.0664 40.2842 30.379 40.6019 29.7436 40.555C29.2827 40.5264 28.8426 40.2321 28.7853 39.917C28.7046 39.4795 29.1889 38.8519 29.5769 38.3468C30.5795 37.0422 31.4805 35.6386 32.2538 34.1751C32.2591 34.1647 32.2643 34.1517 32.2721 34.1413C32.3033 34.1361 32.332 34.1308 32.3632 34.123L39.7482 32.6726C40.0034 32.6231 40.2429 32.5736 40.4383 32.5866C40.6284 32.5971 40.8601 32.67 41.0815 32.7455C44.1542 33.7793 49.5963 35.6594 51.5156 36.4745L55.9398 45.37C55.4789 45.607 54.9867 45.7789 54.4842 45.896L54.4821 45.896Z" />
    </mask>
    <path
        d="M66.5024 26.3995C66.1952 26.2042 65.8071 26.1781 65.4764 26.3318L51.0472 33.0761C50.7868 33.1985 50.5863 33.4198 50.4899 33.6907C50.4665 33.7584 50.4509 33.8287 50.4404 33.899C47.2921 32.722 42.4175 31.0762 41.7195 30.8419C41.3836 30.7299 40.9878 30.6049 40.5451 30.5815C40.1025 30.5606 39.6911 30.6388 39.3603 30.7039L31.9781 32.1543C31.7281 32.2038 31.3114 32.2845 30.952 32.5996C30.7385 32.7871 30.6109 32.9954 30.5224 33.1621C28.1631 33.2767 25.7934 33.4147 23.4474 33.5657C23.3406 33.3548 23.1688 33.1803 22.95 33.0787L8.52078 26.3344C8.19007 26.1808 7.80209 26.2042 7.49477 26.4021C7.18749 26.5974 7 26.9386 7 27.3032V43.2683C7 43.6798 7.23697 44.0548 7.60934 44.2318L15.5623 48.0311C15.7107 48.1014 15.8669 48.1352 16.0232 48.1352C16.4164 48.1352 16.7939 47.9165 16.9815 47.5415L17.1377 47.229C17.3486 47.3592 17.557 47.479 17.7549 47.591L19.9995 48.8539C19.8954 48.9607 19.7886 49.0701 19.6975 49.1742C19.0829 49.8721 18.7314 50.6586 18.6845 51.4502C18.622 52.497 19.122 53.4865 19.9605 53.9761C20.3537 54.2053 20.8068 54.3225 21.2834 54.3225C21.4969 54.3225 21.7131 54.2964 21.9318 54.2495C21.9318 54.2574 21.9292 54.2652 21.9292 54.273C21.8589 55.437 22.4136 56.5411 23.3432 57.0854C23.7807 57.3406 24.2806 57.4682 24.8119 57.4682C25.1243 57.4682 25.4446 57.4187 25.7675 57.3301C25.7181 58.5306 26.291 59.6582 27.2493 60.218C27.6998 60.481 28.231 60.6112 28.7882 60.6112C29.2726 60.6112 29.7804 60.507 30.2752 60.3091C30.4132 60.981 30.8116 61.5695 31.3819 61.9028C31.7413 62.1111 32.1501 62.2179 32.5798 62.2179C32.9912 62.2179 33.4183 62.1215 33.8401 61.9314C34.7099 61.5382 35.452 60.8924 36.0822 60.3169C36.4338 59.9966 36.9207 59.5488 37.3321 59.0149C38.5821 59.4706 41.7069 60.5226 42.8761 60.5226C42.9881 60.5226 43.0818 60.5122 43.1522 60.4914C44.0271 60.244 45.2354 59.5383 46.0061 58.5358C46.5582 58.7285 47.0035 58.8456 47.2639 58.8639C47.3758 58.8717 47.506 58.8795 47.6467 58.8795C47.9461 58.8795 48.2977 58.843 48.644 58.679C49.5919 58.2311 49.8497 57.1973 49.9747 56.6999C49.9747 56.6973 49.9929 56.6192 50.0137 56.4942C50.295 56.5905 50.5241 56.6504 50.6726 56.6608C50.7741 56.6686 50.8939 56.6765 51.0293 56.6765C51.3574 56.6765 51.7663 56.627 52.1621 56.3822C52.9823 55.8744 53.2453 54.9005 53.425 54.0255C53.4276 54.0177 53.5083 53.6141 53.5265 53.1037C53.8442 53.1532 54.1645 53.187 54.4952 53.187C54.8129 53.187 55.1358 53.161 55.4639 53.1063C56.7477 52.8902 57.6773 52.0803 57.956 50.9345C58.2633 49.6611 57.693 48.2316 56.5394 47.3722C56.5186 47.3566 56.4951 47.341 56.4743 47.3253C56.5941 47.2706 56.7139 47.2212 56.831 47.1639L57.0185 47.5415C57.206 47.9164 57.5836 48.1352 57.9768 48.1352C58.1305 48.1352 58.2893 48.1013 58.4377 48.031L66.3907 44.2318C66.763 44.0547 67 43.6797 67 43.2683V27.3031C67 26.9385 66.8125 26.5974 66.5052 26.4021L66.5024 26.3995ZM20.9708 52.2448C20.7911 52.1407 20.6687 51.8516 20.687 51.573C20.7078 51.2371 20.8901 50.8569 21.2026 50.5001C22.0124 49.5809 23.5358 48.4039 24.7675 48.0315C24.9472 47.9768 25.1086 47.9508 25.2362 47.9508C25.3404 47.9508 25.4211 47.969 25.4784 48.0029C25.5643 48.0575 25.632 48.1643 25.6451 48.2659C25.7414 48.9976 24.4785 50.1512 23.9394 50.6433C23.3197 51.2084 22.5983 51.8386 21.8666 52.1719C21.5203 52.3308 21.1687 52.3568 20.9734 52.2422L20.9708 52.2448ZM24.3508 55.3541C24.0826 55.1978 23.9029 54.7942 23.929 54.3958C23.955 53.9609 24.1868 53.474 24.58 53.026C25.5747 51.8985 27.3637 50.5184 28.8636 50.0653C29.0173 50.0184 29.249 49.9611 29.4678 49.9611C29.6084 49.9611 29.7438 49.9845 29.8479 50.0522C29.9938 50.146 30.1031 50.3152 30.1266 50.4897C30.2542 51.4454 28.7178 52.849 28.0615 53.4453C27.322 54.1197 26.4601 54.8749 25.5721 55.2759C25.106 55.4895 24.6399 55.5181 24.356 55.3515L24.3508 55.3541ZM28.2569 58.4867C27.9392 58.3018 27.7387 57.8513 27.7673 57.3904C27.796 56.9061 28.0512 56.3697 28.4834 55.8775C29.5563 54.6588 31.4911 53.1693 33.1108 52.6797C33.28 52.6276 33.5352 52.5652 33.78 52.5652C33.9441 52.5652 34.1029 52.5938 34.2279 52.6719C34.4024 52.7839 34.5326 52.987 34.5612 53.1927C34.7018 54.2552 33.0952 55.7239 32.3217 56.4296C31.5249 57.156 30.5926 57.9711 29.6317 58.4087C29.2229 58.5935 28.6474 58.7133 28.2594 58.4868L28.2569 58.4867ZM34.7253 58.8356C34.2097 59.307 33.6081 59.833 33.0066 60.1038C32.7358 60.2262 32.491 60.2288 32.3895 60.1715C32.3009 60.1194 32.2124 59.9397 32.2228 59.7418C32.2384 59.4892 32.3791 59.2002 32.6212 58.9267C33.4103 58.0309 34.681 57.1507 35.5716 56.88C35.7305 56.8331 35.8451 56.8175 35.9232 56.8175C35.9935 56.8175 36.0325 56.8279 36.0456 56.8383C36.0794 56.8617 36.1133 56.9112 36.1185 56.9503C36.1888 57.4919 35.0847 58.5023 34.7201 58.8356L34.7253 58.8356ZM56.0055 50.4661C55.9196 50.8228 55.6253 51.0468 55.1332 51.1301C53.4249 51.4191 51.7115 50.4505 50.1986 49.6015C48.4721 48.6302 46.8289 47.4975 45.3082 46.2345C44.8837 45.8803 44.251 45.9376 43.8942 46.3647C43.5401 46.7891 43.5974 47.4219 44.0244 47.7761C45.6363 49.1171 47.3836 50.3202 49.2143 51.3488C49.9096 51.7394 50.6777 52.1665 51.5006 52.5128V52.5154C51.5345 52.781 51.5032 53.406 51.459 53.6195C51.2949 54.4163 51.1647 54.6273 51.1308 54.6637C51.0762 54.6793 50.8965 54.6663 50.8288 54.6611C49.7403 54.4997 43.6232 51.1405 42.9072 49.9712C42.6182 49.4999 42.001 49.3515 41.5271 49.6405C41.0557 49.9296 40.9073 50.5467 41.1964 51.0206C41.9828 52.307 45.493 54.4189 48.0607 55.661C48.0685 55.8459 48.0503 56.1089 48.0268 56.2131C47.9044 56.7052 47.8159 56.8354 47.7951 56.8615C47.7274 56.8849 47.5008 56.8693 47.3966 56.8641C46.4175 56.7625 40.613 54.1012 39.8344 53.1247C39.488 52.6924 38.8605 52.6195 38.4256 52.9658C37.9933 53.3096 37.9204 53.9423 38.2667 54.3746C38.9776 55.2652 41.7014 56.7286 44.0138 57.7442C43.6128 58.101 43.1259 58.3848 42.7222 58.5255C42.0321 58.4343 39.3891 57.6583 38.1183 57.1844C38.1313 57.023 38.1313 56.8589 38.1079 56.6896C38.0246 56.0647 37.6574 55.4866 37.1262 55.148C36.91 55.01 36.6054 54.8798 36.2147 54.833C36.4882 54.234 36.634 53.5934 36.5455 52.9294C36.4413 52.1378 35.9752 51.4087 35.3033 50.9816C34.7877 50.6534 33.8919 50.3488 32.53 50.7576C32.392 50.7993 32.254 50.8566 32.116 50.9086C32.1394 50.6847 32.142 50.4581 32.1107 50.229C32.0118 49.4712 31.5665 48.7733 30.9233 48.3645C30.4312 48.0494 29.5745 47.7578 28.2803 48.1484C28.072 48.2109 27.861 48.2916 27.6501 48.3775C27.6527 48.2551 27.6475 48.1301 27.6293 48.0051C27.5381 47.3177 27.1345 46.6849 26.5512 46.3125C26.1059 46.0287 25.3377 45.7631 24.1841 46.112C23.3222 46.3724 22.4212 46.8801 21.6139 47.4635L18.7339 45.8437C18.4839 45.7031 18.2521 45.5625 18.0334 45.4193L22.9107 35.6098C25.0304 35.4692 27.1709 35.3468 29.3115 35.2348C28.8948 35.8832 28.4495 36.516 27.9834 37.1227C27.3871 37.8987 26.5694 38.9637 26.809 40.2762C27.0642 41.6746 28.413 42.4818 29.6135 42.5574C29.6942 42.5626 29.7723 42.5652 29.8531 42.5652C30.9025 42.5652 31.8556 42.1355 32.5847 41.7527C33.8555 41.0809 34.9127 40.297 35.7512 39.4195C37.4803 39.4455 42.0634 39.7736 44.1361 41.0053C44.3366 41.1251 44.5346 41.2501 44.7299 41.3777C46.5866 42.5808 48.4041 43.9374 50.1618 45.2499L50.7686 45.703C51.5367 46.2759 52.318 46.8279 53.0992 47.38C53.8492 47.9086 54.5991 48.4398 55.3335 48.9867C55.9272 49.4294 56.0938 50.0648 55.9975 50.4684L56.0055 50.4661ZM54.4821 45.896C54.4092 45.8439 54.3389 45.7918 54.266 45.7397C53.4978 45.1981 52.7296 44.6539 51.9744 44.0913L51.3677 43.6382C49.5839 42.305 47.7377 40.93 45.8263 39.6905C45.6076 39.5499 45.3862 39.4093 45.1649 39.2765C42.9515 37.9614 39.0012 37.5734 36.9593 37.4588C36.9307 37.1646 36.777 36.8859 36.5114 36.7141C36.0479 36.412 35.4255 36.5474 35.1235 37.0109C34.3865 38.1489 33.2173 39.1462 31.6497 39.9769C31.0664 40.2842 30.379 40.6019 29.7436 40.555C29.2827 40.5264 28.8426 40.2321 28.7853 39.917C28.7046 39.4795 29.1889 38.8519 29.5769 38.3468C30.5795 37.0422 31.4805 35.6386 32.2538 34.1751C32.2591 34.1647 32.2643 34.1517 32.2721 34.1413C32.3033 34.1361 32.332 34.1308 32.3632 34.123L39.7482 32.6726C40.0034 32.6231 40.2429 32.5736 40.4383 32.5866C40.6284 32.5971 40.8601 32.67 41.0815 32.7455C44.1542 33.7793 49.5963 35.6594 51.5156 36.4745L55.9398 45.37C55.4789 45.607 54.9867 45.7789 54.4842 45.896L54.4821 45.896Z"
        fill="#FFD550" />
    <path
        d="M48.7382 30.7624C48.0796 30.5246 47.3952 30.2842 46.7291 30.0501L46.3974 30.9935C47.0646 31.228 47.7447 31.4668 48.3985 31.7029L48.7382 30.7624ZM44.7371 29.3591C43.9524 29.088 43.259 28.8507 42.7296 28.6708L42.4078 29.6176C42.9356 29.797 43.6275 30.0337 44.4105 30.3043L44.7371 29.3591ZM28.5707 30.757C27.9042 30.7933 27.2314 30.8274 26.5636 30.8665L26.6221 31.8648C27.2875 31.8258 27.9532 31.7921 28.6251 31.7555L28.5707 30.757ZM40.4875 27.9737L38.4824 28.3591L38.6712 29.3411L40.6763 28.9558L40.4875 27.9737ZM36.4929 28.7449L34.4878 29.1303L34.6766 30.1123L36.6817 29.7269L36.4929 28.7449ZM32.4984 29.5127L30.4933 29.8981L30.682 30.8801L32.6871 30.4947L32.4984 29.5127ZM66.5024 26.3995L67.1817 25.6655L67.1152 25.6041L67.0389 25.5555L66.5024 26.3995ZM65.4764 26.3318L65.0551 25.4249L65.053 25.4259L65.4764 26.3318ZM51.0472 33.0761L50.6237 32.1702L50.6218 32.1711L51.0472 33.0761ZM50.4899 33.6907L49.5477 33.3555L49.5449 33.3635L50.4899 33.6907ZM50.4404 33.899L50.0903 34.8357L51.2484 35.2686L51.4296 34.0455L50.4404 33.899ZM41.7195 30.8419L42.0378 29.8939L42.0358 29.8932L41.7195 30.8419ZM40.5451 30.5815L40.598 29.5828L40.5922 29.5826L40.5451 30.5815ZM39.3603 30.7039L39.5531 31.6851L39.5535 31.685L39.3603 30.7039ZM31.9781 32.1543L31.7853 31.1731L31.7839 31.1733L31.9781 32.1543ZM30.952 32.5996L30.2928 31.8477L30.2922 31.8482L30.952 32.5996ZM30.5224 33.1621L30.5709 34.1609L31.1388 34.1333L31.4055 33.6312L30.5224 33.1621ZM23.4474 33.5657L22.5552 34.0173L22.8532 34.606L23.5117 34.5636L23.4474 33.5657ZM22.95 33.0787L22.5266 33.9847L22.5289 33.9857L22.95 33.0787ZM8.52078 26.3344L8.94422 25.4285L8.94211 25.4275L8.52078 26.3344ZM7.49477 26.4021L8.03119 27.2461L8.03619 27.2429L7.49477 26.4021ZM7.60934 44.2318L8.0404 43.3295L8.03875 43.3287L7.60934 44.2318ZM15.5623 48.0311L15.1312 48.9334L15.1342 48.9348L15.5623 48.0311ZM16.9815 47.5415L17.8759 47.9888L17.8759 47.9888L16.9815 47.5415ZM17.1377 47.229L17.663 46.3781L16.7324 45.8037L16.2433 46.7818L17.1377 47.229ZM17.7549 47.591L17.2624 48.4613L17.2645 48.4625L17.7549 47.591ZM19.9995 48.8539L20.7153 49.5523L21.6242 48.6206L20.4899 47.9824L19.9995 48.8539ZM19.6975 49.1742L20.448 49.8351L20.4501 49.8327L19.6975 49.1742ZM18.6845 51.4502L19.6828 51.5098L19.6828 51.5093L18.6845 51.4502ZM19.9605 53.9761L19.4563 54.8397L19.457 54.8401L19.9605 53.9761ZM21.9318 54.2495H22.9318V53.0125L21.7223 53.2717L21.9318 54.2495ZM21.9292 54.273L22.9274 54.3333L22.9292 54.3032V54.273H21.9292ZM23.3432 57.0854L22.8379 57.9483L22.8393 57.9491L23.3432 57.0854ZM25.7675 57.3301L26.7667 57.3713L26.8231 56.0038L25.5031 56.3657L25.7675 57.3301ZM27.2493 60.218L26.7448 61.0815L26.7451 61.0816L27.2493 60.218ZM30.2752 60.3091L31.2547 60.1079L31.0141 58.9366L29.9038 59.3807L30.2752 60.3091ZM31.3819 61.9028L30.8773 62.7662L30.8804 62.7679L31.3819 61.9028ZM33.8401 61.9314L34.251 62.8431L34.2521 62.8426L33.8401 61.9314ZM36.0822 60.3169L35.4087 59.5777L35.4079 59.5785L36.0822 60.3169ZM37.3321 59.0149L37.6747 58.0754L36.9869 57.8247L36.5401 58.4045L37.3321 59.0149ZM43.1522 60.4914L42.8801 59.529L42.8681 59.5326L43.1522 60.4914ZM46.0061 58.5358L46.3357 57.5916L45.6536 57.3536L45.2133 57.9263L46.0061 58.5358ZM47.2639 58.8639L47.194 59.8614L47.1943 59.8614L47.2639 58.8639ZM48.644 58.679L48.2168 57.7748L48.2159 57.7752L48.644 58.679ZM49.9747 56.6999L50.9445 56.9436L50.9747 56.8236V56.6999H49.9747ZM50.0137 56.4942L50.3378 55.5481L49.2214 55.1657L49.0273 56.3298L50.0137 56.4942ZM50.6726 56.6608L50.7493 55.6638L50.7425 55.6633L50.6726 56.6608ZM52.1621 56.3822L52.6881 57.2327L52.6884 57.2325L52.1621 56.3822ZM53.425 54.0255L52.4763 53.7093L52.4574 53.7659L52.4454 53.8244L53.425 54.0255ZM53.5265 53.1037L53.6804 52.1156L52.5674 51.9423L52.5272 53.068L53.5265 53.1037ZM55.4639 53.1063L55.6283 54.0927L55.6299 54.0924L55.4639 53.1063ZM57.956 50.9345L58.9277 51.1709L58.9281 51.1691L57.956 50.9345ZM56.5394 47.3722L55.9394 48.1722L55.942 48.1741L56.5394 47.3722ZM56.4743 47.3253L56.059 46.4156L54.5271 47.115L55.8743 48.1253L56.4743 47.3253ZM56.831 47.1639L57.7267 46.7191L57.2847 45.829L56.3918 46.2655L56.831 47.1639ZM57.0185 47.5415L56.1229 47.9862L56.1241 47.9887L57.0185 47.5415ZM58.4377 48.031L58.8658 48.9348L58.8688 48.9333L58.4377 48.031ZM66.3907 44.2318L65.9612 43.3287L65.9596 43.3294L66.3907 44.2318ZM66.5052 26.4021L65.826 27.136L65.8924 27.1975L65.9688 27.246L66.5052 26.4021ZM20.9708 52.2448L20.4693 53.11L21.1263 53.4909L21.6696 52.9601L20.9708 52.2448ZM20.687 51.573L21.6848 51.6383L21.685 51.6349L20.687 51.573ZM21.2026 50.5001L20.4522 49.8391L20.4503 49.8412L21.2026 50.5001ZM24.7675 48.0315L25.0569 48.9887L25.0587 48.9882L24.7675 48.0315ZM25.4784 48.0029L26.0153 47.1592L26.0013 47.1503L25.9871 47.1419L25.4784 48.0029ZM25.6451 48.2659L24.6532 48.393L24.6536 48.3964L25.6451 48.2659ZM23.9394 50.6433L24.6132 51.3823L24.6137 51.3818L23.9394 50.6433ZM21.8666 52.1719L21.4521 51.2619L21.4497 51.263L21.8666 52.1719ZM20.9734 52.2422L21.4795 51.3798L20.8209 50.9933L20.2746 51.5269L20.9734 52.2422ZM24.3508 55.3541L23.8475 56.2181L24.315 56.4905L24.7987 56.2482L24.3508 55.3541ZM23.929 54.3958L24.9269 54.461L24.9272 54.4555L23.929 54.3958ZM24.58 53.026L23.8301 52.3645L23.8285 52.3663L24.58 53.026ZM28.8636 50.0653L29.1528 51.0225L29.1554 51.0217L28.8636 50.0653ZM29.8479 50.0522L29.3029 50.8907L29.3072 50.8934L29.8479 50.0522ZM30.1266 50.4897L31.1178 50.3574L31.1177 50.3566L30.1266 50.4897ZM28.0615 53.4453L27.389 52.7052L27.3877 52.7064L28.0615 53.4453ZM25.5721 55.2759L25.1605 54.3646L25.1556 54.3668L25.5721 55.2759ZM24.356 55.3515L24.8623 54.4891L24.3938 54.2141L23.9081 54.4574L24.356 55.3515ZM28.2569 58.4867L27.7539 59.351L27.9725 59.4782L28.2253 59.4862L28.2569 58.4867ZM27.7673 57.3904L28.7654 57.4524L28.7656 57.4495L27.7673 57.3904ZM28.4834 55.8775L27.7328 55.2167L27.7321 55.2176L28.4834 55.8775ZM33.1108 52.6797L33.4001 53.637L33.4049 53.6355L33.1108 52.6797ZM34.2279 52.6719L34.7681 51.8303L34.7579 51.8239L34.2279 52.6719ZM34.5612 53.1927L35.5526 53.0615L35.5517 53.0548L34.5612 53.1927ZM32.3217 56.4296L32.9955 57.1685L32.9958 57.1683L32.3217 56.4296ZM29.6317 58.4087L30.0438 59.3198L30.0461 59.3188L29.6317 58.4087ZM28.2594 58.4868L28.7637 57.6232L28.5446 57.4953L28.291 57.4873L28.2594 58.4868ZM34.7253 58.8356L35.4 59.5737L37.2668 57.8672L34.7377 57.8357L34.7253 58.8356ZM33.0066 60.1038L32.5961 59.1919L32.5948 59.1925L33.0066 60.1038ZM32.3895 60.1715L31.8825 61.0334L31.8903 61.038L31.8981 61.0424L32.3895 60.1715ZM32.2228 59.7418L31.2247 59.6801L31.2242 59.6892L32.2228 59.7418ZM32.6212 58.9267L33.3699 59.5897L33.3717 59.5877L32.6212 58.9267ZM35.5716 56.88L35.2886 55.9208L35.2807 55.9232L35.5716 56.88ZM36.0456 56.8383L35.4208 57.6191L35.4479 57.6408L35.4764 57.6605L36.0456 56.8383ZM36.1185 56.9503L37.1102 56.8215L37.1097 56.818L36.1185 56.9503ZM34.7201 58.8356L34.0453 58.0975L32.1788 59.804L34.7076 59.8355L34.7201 58.8356ZM56.0055 50.4661L56.9777 50.7003L57.3824 49.0203L55.7242 49.5065L56.0055 50.4661ZM55.1332 51.1301L55.3 52.1161L55.3001 52.1161L55.1332 51.1301ZM50.1986 49.6015L49.7082 50.473L49.7092 50.4736L50.1986 49.6015ZM45.3082 46.2345L44.6676 47.0023L44.6693 47.0038L45.3082 46.2345ZM43.8942 46.3647L43.1268 45.7235L43.1264 45.724L43.8942 46.3647ZM44.0244 47.7761L44.664 47.0073L44.6628 47.0063L44.0244 47.7761ZM49.2143 51.3488L48.7244 52.2206L48.7245 52.2207L49.2143 51.3488ZM51.5006 52.5128H52.5006V51.8487L51.8885 51.5911L51.5006 52.5128ZM51.5006 52.5154H50.5006V52.5789L50.5087 52.6419L51.5006 52.5154ZM51.459 53.6195L50.4798 53.4165L50.4795 53.4179L51.459 53.6195ZM51.1308 54.6637L51.4056 55.6253L51.6739 55.5486L51.8637 55.3441L51.1308 54.6637ZM50.8288 54.6611L50.6821 55.6503L50.7169 55.6555L50.7521 55.6582L50.8288 54.6611ZM42.9072 49.9712L43.76 49.449L43.7597 49.4485L42.9072 49.9712ZM41.5271 49.6405L41.0063 48.7868L41.0043 48.788L41.5271 49.6405ZM41.1964 51.0206L40.3426 51.5414L40.3432 51.5422L41.1964 51.0206ZM48.0607 55.661L49.0598 55.6188L49.0345 55.0212L48.4961 54.7608L48.0607 55.661ZM48.0268 56.2131L48.9973 56.4544L49 56.4435L49.0024 56.4326L48.0268 56.2131ZM47.7951 56.8615L48.1222 57.8064L48.3954 57.7119L48.576 57.4861L47.7951 56.8615ZM47.3966 56.8641L47.2935 57.8587L47.32 57.8615L47.3467 57.8628L47.3966 56.8641ZM39.8344 53.1247L40.6163 52.5012L40.6148 52.4994L39.8344 53.1247ZM38.4256 52.9658L39.048 53.7485L39.0485 53.7481L38.4256 52.9658ZM38.2667 54.3746L39.0482 53.7507L39.0472 53.7494L38.2667 54.3746ZM44.0138 57.7442L44.6785 58.4914L45.843 57.4554L44.416 56.8287L44.0138 57.7442ZM42.7222 58.5255L42.5913 59.5169L42.8269 59.548L43.0512 59.4698L42.7222 58.5255ZM38.1183 57.1844L37.1216 57.104L37.0608 57.8573L37.7689 58.1214L38.1183 57.1844ZM38.1079 56.6896L37.1167 56.8218L37.1174 56.8268L38.1079 56.6896ZM37.1262 55.148L36.588 55.9909L36.5888 55.9914L37.1262 55.148ZM36.2147 54.833L35.3051 54.4177L34.7366 55.6627L36.0956 55.8258L36.2147 54.833ZM36.5455 52.9294L35.554 53.0598L35.5542 53.0616L36.5455 52.9294ZM35.3033 50.9816L34.7664 51.8252L34.7668 51.8255L35.3033 50.9816ZM32.53 50.7576L32.2425 49.7998L32.241 49.8003L32.53 50.7576ZM32.116 50.9086L31.1214 50.8046L30.9527 52.4164L32.469 51.8442L32.116 50.9086ZM32.1107 50.229L31.1192 50.3585L31.1199 50.3641L32.1107 50.229ZM30.9233 48.3645L30.3842 49.2067L30.3869 49.2084L30.9233 48.3645ZM28.2803 48.1484L28.5676 49.1062L28.5692 49.1057L28.2803 48.1484ZM27.6501 48.3775L26.6503 48.3562L26.6179 49.8779L28.0274 49.3036L27.6501 48.3775ZM27.6293 48.0051L26.6379 48.1366L26.6397 48.1495L27.6293 48.0051ZM26.5512 46.3125L27.0893 45.4696L27.0887 45.4692L26.5512 46.3125ZM24.1841 46.112L24.4733 47.0693L24.4736 47.0692L24.1841 46.112ZM21.6139 47.4635L21.1237 48.3351L21.6812 48.6486L22.1996 48.274L21.6139 47.4635ZM18.7339 45.8437L18.2436 46.7153L18.2437 46.7154L18.7339 45.8437ZM18.0334 45.4193L17.1379 44.9741L16.7425 45.7694L17.4856 46.2559L18.0334 45.4193ZM22.9107 35.6098L22.8445 34.612L22.2711 34.65L22.0153 35.1646L22.9107 35.6098ZM29.3115 35.2348L30.1527 35.7754L31.2073 34.1343L29.2592 34.2362L29.3115 35.2348ZM27.9834 37.1227L28.7763 37.732L28.7764 37.7319L27.9834 37.1227ZM26.809 40.2762L27.7927 40.0967L27.7927 40.0966L26.809 40.2762ZM29.6135 42.5574L29.6779 41.5594L29.6763 41.5593L29.6135 42.5574ZM32.5847 41.7527L33.0496 42.6381L33.0521 42.6367L32.5847 41.7527ZM35.7512 39.4195L35.7663 38.4196L35.3298 38.413L35.0282 38.7286L35.7512 39.4195ZM44.1361 41.0053L44.649 40.1468L44.647 40.1457L44.1361 41.0053ZM44.7299 41.3777L44.1829 42.2149L44.1861 42.2169L44.7299 41.3777ZM50.1618 45.2499L50.7602 44.4487L50.7601 44.4486L50.1618 45.2499ZM50.7686 45.703L50.1702 46.5042L50.1707 46.5046L50.7686 45.703ZM53.0992 47.38L52.5221 48.1967L52.5231 48.1973L53.0992 47.38ZM55.3335 48.9867L55.9312 48.185L55.9308 48.1847L55.3335 48.9867ZM55.9975 50.4684L55.0248 50.2363L54.6246 51.913L56.2789 51.428L55.9975 50.4684ZM54.4821 45.896L53.9009 46.7097L54.1449 46.884L54.4446 46.8953L54.4821 45.896ZM54.266 45.7397L54.8473 44.926L54.8423 44.9225L54.266 45.7397ZM51.9744 44.0913L51.3761 44.8926L51.3771 44.8933L51.9744 44.0913ZM51.3677 43.6382L50.769 44.4392L50.7694 44.4395L51.3677 43.6382ZM45.8263 39.6905L46.3704 38.8515L46.3671 38.8493L45.8263 39.6905ZM45.1649 39.2765L45.6794 38.419L45.6757 38.4168L45.1649 39.2765ZM36.9593 37.4588L35.964 37.5557L36.0471 38.4092L36.9033 38.4573L36.9593 37.4588ZM36.5114 36.7141L35.9654 37.5519L35.9682 37.5536L36.5114 36.7141ZM35.1235 37.0109L34.2857 36.465L34.2841 36.4673L35.1235 37.0109ZM31.6497 39.9769L32.1158 40.8617L32.118 40.8605L31.6497 39.9769ZM29.7436 40.555L29.8171 39.5577L29.8056 39.5569L29.7436 40.555ZM28.7853 39.917L29.7692 39.7382L29.7687 39.7356L28.7853 39.917ZM29.5769 38.3468L28.784 37.7374L28.7838 37.7376L29.5769 38.3468ZM32.2538 34.1751L33.138 34.6423L33.1432 34.6324L33.1482 34.6224L32.2538 34.1751ZM32.2721 34.1413L32.1077 33.1549L31.7125 33.2207L31.4721 33.5413L32.2721 34.1413ZM32.3632 34.123L32.1705 33.1418L32.1455 33.1467L32.1207 33.1529L32.3632 34.123ZM39.7482 32.6726L39.5578 31.6909L39.5554 31.6913L39.7482 32.6726ZM40.4383 32.5866L40.3718 33.5845L40.3836 33.5851L40.4383 32.5866ZM41.0815 32.7455L40.7586 33.6919L40.7626 33.6933L41.0815 32.7455ZM51.5156 36.4745L52.411 36.0292L52.2465 35.6985L51.9065 35.5541L51.5156 36.4745ZM55.9398 45.37L56.3971 46.2594L57.2746 45.8082L56.8352 44.9247L55.9398 45.37ZM54.4842 45.896L54.4467 46.8953L54.5807 46.9004L54.7112 46.8699L54.4842 45.896ZM67.0389 25.5555C66.4446 25.1778 65.6957 25.1273 65.0551 25.4249L65.8978 27.2387C65.9186 27.229 65.9457 27.2305 65.966 27.2434L67.0389 25.5555ZM65.053 25.4259L50.6237 32.1702L51.4706 33.982L65.8999 27.2377L65.053 25.4259ZM50.6218 32.1711C50.1198 32.407 49.7334 32.8337 49.5478 33.3555L51.4321 34.0258C51.4391 34.006 51.4537 33.99 51.4725 33.9811L50.6218 32.1711ZM49.5449 33.3635C49.4968 33.5026 49.4685 33.6356 49.4512 33.7524L51.4296 34.0455C51.4313 34.0341 51.4329 34.0262 51.4341 34.0214C51.4352 34.0165 51.4357 34.0155 51.4349 34.0178L49.5449 33.3635ZM50.7906 32.9623C47.6242 31.7785 42.7343 30.1277 42.0378 29.8939L41.4013 31.7899C42.1007 32.0247 46.96 33.6654 50.0903 34.8357L50.7906 32.9623ZM42.0358 29.8932C41.6962 29.78 41.1878 29.6141 40.598 29.5829L40.4923 31.5801C40.7878 31.5957 41.071 31.6798 41.4033 31.7906L42.0358 29.8932ZM40.5922 29.5826C40.0148 29.5554 39.4951 29.6581 39.1672 29.7227L39.5535 31.685C39.887 31.6194 40.1902 31.5659 40.4981 31.5804L40.5922 29.5826ZM39.1675 29.7226L31.7853 31.1731L32.1708 33.1356L39.5531 31.6851L39.1675 29.7226ZM31.7839 31.1733C31.5368 31.2223 30.8737 31.3384 30.2928 31.8477L31.6113 33.3515C31.7491 33.2307 31.9194 33.1853 32.1722 33.1353L31.7839 31.1733ZM30.2922 31.8482C29.9489 32.1496 29.7538 32.4774 29.6393 32.6929L31.4055 33.6312C31.4681 33.5134 31.5281 33.4246 31.6118 33.351L30.2922 31.8482ZM30.4739 32.1633C28.1082 32.2781 25.7332 32.4165 23.3832 32.5678L23.5117 34.5636C25.8537 34.4129 28.218 34.2752 30.5709 34.1609L30.4739 32.1633ZM24.3396 33.1141C24.1386 32.7169 23.8076 32.3744 23.3712 32.1717L22.5289 33.9857C22.53 33.9862 22.5427 33.9926 22.5552 34.0173L24.3396 33.1141ZM23.3735 32.1728L8.94422 25.4285L8.09735 27.2404L22.5266 33.9847L23.3735 32.1728ZM8.94211 25.4275C8.30625 25.1321 7.55441 25.1743 6.95335 25.5614L8.03619 27.2429C8.04976 27.2341 8.0739 27.2295 8.09946 27.2413L8.94211 25.4275ZM6.95836 25.5582C6.36232 25.937 6 26.5965 6 27.3032H8C8 27.2806 8.01266 27.2579 8.03118 27.2461L6.95836 25.5582ZM6 27.3032V43.2683H8V27.3032H6ZM6 43.2683C6 44.0662 6.45953 44.7924 7.17993 45.1349L8.03875 43.3287C8.0144 43.3171 8 43.2933 8 43.2683H6ZM7.17828 45.1341L15.1312 48.9334L15.9933 47.1288L8.0404 43.3295L7.17828 45.1341ZM15.1342 48.9348C15.4179 49.0692 15.7205 49.1352 16.0232 49.1352V47.1352C16.0175 47.1352 16.0126 47.1347 16.008 47.1336C16.0035 47.1326 15.9977 47.1308 15.9903 47.1273L15.1342 48.9348ZM16.0232 49.1352C16.7839 49.1352 17.514 48.7125 17.8759 47.9888L16.0871 47.0942C16.0797 47.109 16.0704 47.1182 16.0598 47.1246C16.0479 47.1319 16.0347 47.1352 16.0232 47.1352V49.1352ZM17.8759 47.9888L18.0321 47.6763L16.2433 46.7818L16.087 47.0943L17.8759 47.9888ZM16.6125 48.08C16.8397 48.2203 17.061 48.3474 17.2624 48.4613L18.2473 46.7207C18.0529 46.6106 17.8576 46.4982 17.663 46.3781L16.6125 48.08ZM17.2645 48.4625L19.5092 49.7255L20.4899 47.9824L18.2452 46.7195L17.2645 48.4625ZM19.2838 48.1556C19.1843 48.2576 19.0573 48.3873 18.9449 48.5158L20.4501 49.8327C20.5199 49.7529 20.6065 49.6638 20.7153 49.5523L19.2838 48.1556ZM18.947 48.5134C18.2128 49.3471 17.7486 50.3383 17.6863 51.3911L19.6828 51.5093C19.7142 50.9788 19.953 50.3972 20.448 49.8351L18.947 48.5134ZM17.6863 51.3906C17.6036 52.7761 18.2611 54.1419 19.4563 54.8397L20.4647 53.1125C19.9829 52.8312 19.6405 52.2179 19.6828 51.5098L17.6863 51.3906ZM19.457 54.8401C20.0131 55.1642 20.6419 55.3225 21.2834 55.3225V53.3225C20.9718 53.3225 20.6944 53.2464 20.4641 53.1121L19.457 54.8401ZM21.2834 55.3225C21.5782 55.3225 21.8652 55.2865 22.1413 55.2273L21.7223 53.2717C21.5609 53.3063 21.4157 53.3225 21.2834 53.3225V55.3225ZM20.9318 54.2495C20.9318 54.2228 20.9329 54.1993 20.9343 54.1797C20.9358 54.1602 20.9376 54.1437 20.9391 54.1313C20.9407 54.119 20.9421 54.1093 20.943 54.1039C20.9437 54.099 20.9444 54.095 20.9441 54.0968C20.9441 54.0969 20.9431 54.1029 20.942 54.1097C20.9409 54.1171 20.9391 54.1288 20.9373 54.143C20.9355 54.1574 20.9335 54.1758 20.932 54.1973C20.9304 54.2188 20.9292 54.2443 20.9292 54.273H22.9292C22.9292 54.2997 22.9281 54.3232 22.9267 54.3428C22.9252 54.3623 22.9234 54.3788 22.9219 54.3912C22.9203 54.4035 22.9189 54.4132 22.918 54.4186C22.9173 54.4235 22.9166 54.4275 22.9169 54.4257C22.9169 54.4256 22.9179 54.4196 22.919 54.4128C22.9201 54.4054 22.9219 54.3937 22.9237 54.3795C22.9255 54.3651 22.9275 54.3467 22.929 54.3252C22.9306 54.3037 22.9318 54.2782 22.9318 54.2495H20.9318ZM20.931 54.2127C20.8404 55.7135 21.5506 57.1946 22.8379 57.9483L23.8485 56.2224C23.2765 55.8875 22.8774 55.1605 22.9274 54.3333L20.931 54.2127ZM22.8393 57.9491C23.4419 58.3006 24.1181 58.4682 24.8119 58.4682V56.4682C24.4431 56.4682 24.1195 56.3805 23.8471 56.2216L22.8393 57.9491ZM24.8119 58.4682C25.2292 58.4682 25.6393 58.4022 26.032 58.2946L25.5031 56.3657C25.25 56.4352 25.0195 56.4682 24.8119 56.4682V58.4682ZM24.7684 57.289C24.7055 58.8156 25.4308 60.3138 26.7448 61.0815L27.7537 59.3545C27.1511 59.0025 26.7307 58.2456 26.7667 57.3713L24.7684 57.289ZM26.7451 61.0816C27.3678 61.4451 28.0774 61.6112 28.7882 61.6112V59.6112C28.3846 59.6112 28.0318 59.5169 27.7534 59.3544L26.7451 61.0816ZM28.7882 61.6112C29.4139 61.6112 30.0475 61.4772 30.6466 61.2376L29.9038 59.3807C29.5133 59.5368 29.1313 59.6112 28.7882 59.6112V61.6112ZM29.2956 60.5104C29.4853 61.4334 30.0391 62.2763 30.8773 62.7662L31.8865 61.0394C31.5841 60.8627 31.3411 60.5285 31.2547 60.1079L29.2956 60.5104ZM30.8804 62.7679C31.3991 63.0686 31.9822 63.2179 32.5798 63.2179V61.2179C32.318 61.2179 32.0834 61.1536 31.8834 61.0377L30.8804 62.7679ZM32.5798 63.2179C33.148 63.2179 33.7145 63.0849 34.251 62.8431L33.4293 61.0197C33.122 61.1582 32.8345 61.2179 32.5798 61.2179V63.2179ZM34.2521 62.8426C35.2821 62.377 36.1278 61.6295 36.7566 61.0553L35.4079 59.5785C34.7763 60.1553 34.1377 60.6995 33.4282 61.0202L34.2521 62.8426ZM36.7557 61.0561C37.1055 60.7374 37.653 60.2367 38.1242 59.6254L36.5401 58.4045C36.1884 58.8608 35.762 59.2559 35.4087 59.5777L36.7557 61.0561ZM36.9896 59.9544C37.6287 60.1874 38.7428 60.5714 39.8512 60.8987C40.4051 61.0623 40.9684 61.2149 41.4759 61.3274C41.9651 61.4359 42.4687 61.5226 42.8761 61.5226V59.5226C42.699 59.5226 42.3735 59.4779 41.9089 59.3749C41.4626 59.2759 40.9473 59.137 40.4176 58.9806C39.3589 58.668 38.2855 58.2981 37.6747 58.0754L36.9896 59.9544ZM42.8761 61.5226C43.0367 61.5226 43.2371 61.5092 43.4362 61.4502L42.8681 59.5326C42.8863 59.5272 42.8998 59.5243 42.9073 59.5229C42.9149 59.5214 42.9186 59.521 42.9178 59.5211C42.9171 59.5212 42.9132 59.5216 42.9059 59.522C42.8986 59.5223 42.8887 59.5226 42.8761 59.5226V61.5226ZM43.4242 61.4537C44.4848 61.1538 45.8841 60.3352 46.7989 59.1453L45.2133 57.9263C44.5866 58.7414 43.5694 59.3342 42.8801 59.5291L43.4242 61.4537ZM45.6766 59.4799C46.232 59.6738 46.7882 59.833 47.194 59.8614L47.3337 57.8663C47.2188 57.8583 46.8843 57.7831 46.3357 57.5916L45.6766 59.4799ZM47.1943 59.8614C47.3128 59.8697 47.4706 59.8795 47.6467 59.8795V57.8795C47.5415 57.8795 47.4389 57.8737 47.3335 57.8663L47.1943 59.8614ZM47.6467 59.8795C48.0228 59.8795 48.5397 59.8349 49.0721 59.5827L48.2159 57.7752C48.0556 57.8512 47.8695 57.8795 47.6467 57.8795V59.8795ZM49.0712 59.5831C50.5003 58.9079 50.8345 57.3815 50.9445 56.9436L49.0048 56.4562C48.8649 57.013 48.6835 57.5543 48.2168 57.7748L49.0712 59.5831ZM50.9747 56.6999C50.9747 56.7176 50.9742 56.7327 50.9737 56.7443C50.9732 56.7561 50.9725 56.7664 50.9719 56.7746C50.9707 56.7908 50.9693 56.8041 50.9682 56.8131C50.9662 56.8307 50.9642 56.8445 50.9631 56.8517C50.9618 56.8597 50.9607 56.8663 50.96 56.8705C50.9592 56.8749 50.9585 56.8786 50.9581 56.8812C50.9571 56.8863 50.9563 56.8902 50.956 56.892C50.9556 56.8941 50.9553 56.8956 50.9551 56.8963C50.9549 56.8972 50.9549 56.8972 50.9563 56.8906C50.9585 56.8802 50.9622 56.8629 50.9666 56.8408C50.9756 56.7965 50.9875 56.7344 51.0001 56.6586L49.0273 56.3298C49.0191 56.3789 49.0116 56.4184 49.0062 56.4451C49.0035 56.4585 49.0012 56.469 48.9994 56.4778C48.9987 56.4809 48.9972 56.4884 48.9959 56.4946C48.9954 56.4971 48.9936 56.5056 48.9917 56.5158C48.9909 56.5203 48.9887 56.5321 48.9864 56.5472C48.9853 56.5545 48.9832 56.5686 48.9811 56.5863C48.98 56.5962 48.9747 56.6416 48.9747 56.6999H50.9747ZM49.6896 57.4402C49.9777 57.5389 50.3135 57.6381 50.6026 57.6584L50.7425 55.6633C50.7536 55.6641 50.7246 55.6623 50.6402 55.6408C50.5625 55.6209 50.4615 55.5905 50.3378 55.5481L49.6896 57.4402ZM50.5959 57.6579C50.7066 57.6664 50.856 57.6765 51.0293 57.6765V55.6765C50.9318 55.6765 50.8416 55.6709 50.7493 55.6638L50.5959 57.6579ZM51.0293 57.6765C51.4554 57.6765 52.0733 57.6129 52.6881 57.2327L51.6361 55.5317C51.4593 55.6411 51.2594 55.6765 51.0293 55.6765V57.6765ZM52.6884 57.2325C53.9173 56.4717 54.2327 55.0634 54.4046 54.2267L52.4454 53.8244C52.2579 54.7376 52.0474 55.2771 51.6357 55.5319L52.6884 57.2325ZM54.3737 54.3417C54.3823 54.316 54.3879 54.2955 54.3898 54.2886C54.3924 54.2791 54.3943 54.2713 54.3955 54.2666C54.3978 54.2573 54.3996 54.2497 54.4005 54.2457C54.4024 54.2372 54.404 54.23 54.4049 54.2254C54.407 54.2157 54.409 54.2056 54.4109 54.196C54.4147 54.1763 54.4193 54.1515 54.4244 54.1225C54.4346 54.0643 54.4474 53.985 54.4606 53.8893C54.4867 53.6991 54.5153 53.436 54.5259 53.1394L52.5272 53.068C52.5195 53.2817 52.4986 53.4757 52.4792 53.6168C52.4696 53.6868 52.4606 53.7418 52.4544 53.7774C52.4513 53.7953 52.449 53.8074 52.4478 53.8132C52.4472 53.8164 52.4472 53.8163 52.4478 53.8135C52.448 53.8125 52.449 53.808 52.4504 53.8016C52.4511 53.7986 52.4527 53.7918 52.4548 53.7831C52.4559 53.7787 52.4578 53.7712 52.4604 53.7619C52.4622 53.7553 52.4678 53.7349 52.4763 53.7093L54.3737 54.3417ZM53.3727 54.0918C53.722 54.1462 54.0966 54.187 54.4952 54.187V52.187C54.2324 52.187 53.9665 52.1602 53.6804 52.1156L53.3727 54.0918ZM54.4952 54.187C54.8679 54.187 55.2458 54.1565 55.6283 54.0927L55.2995 52.1199C55.0259 52.1655 54.758 52.187 54.4952 52.187V54.187ZM55.6299 54.0924C57.2552 53.8188 58.5425 52.7546 58.9277 51.1709L56.9843 50.6982C56.8122 51.4059 56.2402 51.9615 55.2979 52.1202L55.6299 54.0924ZM58.9281 51.1691C59.341 49.458 58.5697 47.6377 57.1368 46.5703L55.942 48.1741C56.8162 48.8254 57.1855 49.8643 56.9839 50.7L58.9281 51.1691ZM57.1394 46.5722C57.1154 46.5542 57.0923 46.538 57.0835 46.5318C57.0701 46.5223 57.0711 46.5229 57.0743 46.5253L55.8743 48.1253C55.8983 48.1433 55.9214 48.1596 55.9302 48.1657C55.9436 48.1752 55.9426 48.1746 55.9394 48.1722L57.1394 46.5722ZM56.8896 48.235C56.9592 48.2032 57.1433 48.1243 57.2703 48.0623L56.3918 46.2655C56.2845 46.318 56.2289 46.3381 56.059 46.4156L56.8896 48.235ZM55.9354 47.6086L56.1229 47.9862L57.9142 47.0967L57.7267 46.7191L55.9354 47.6086ZM56.1241 47.9887C56.486 48.7124 57.2161 49.1352 57.9768 49.1352V47.1352C57.9653 47.1352 57.9521 47.1318 57.9402 47.1245C57.9296 47.1181 57.9203 47.109 57.913 47.0942L56.1241 47.9887ZM57.9768 49.1352C58.2757 49.1352 58.581 49.0696 58.8658 48.9348L58.0097 47.1273C58.004 47.13 57.9979 47.132 57.9919 47.1334C57.9857 47.1348 57.9804 47.1352 57.9768 47.1352V49.1352ZM58.8688 48.9333L66.8217 45.1341L65.9596 43.3294L58.0067 47.1287L58.8688 48.9333ZM66.8201 45.1348C67.5405 44.7923 68 44.0662 68 43.2683H66C66 43.2932 65.9856 43.3171 65.9612 43.3287L66.8201 45.1348ZM68 43.2683V27.3031H66V43.2683H68ZM68 27.3031C68 26.5965 67.6377 25.937 67.0417 25.5581L65.9688 27.246C65.9874 27.2578 66 27.2806 66 27.3031H68ZM67.1845 25.6681L67.1817 25.6655L65.8232 27.1334L65.826 27.136L67.1845 25.6681ZM21.4723 51.3797C21.5566 51.4285 21.6069 51.4825 21.6324 51.5148C21.6587 51.548 21.6708 51.5733 21.6757 51.5849C21.6837 51.6038 21.6862 51.6173 21.6848 51.6383L19.6891 51.5077C19.6695 51.8073 19.7241 52.1046 19.8336 52.3637C19.9372 52.6088 20.1317 52.9143 20.4693 53.11L21.4723 51.3797ZM21.685 51.6349C21.6876 51.5932 21.7306 51.415 21.9548 51.159L20.4503 49.8412C20.0496 50.2988 19.728 50.8809 19.6889 51.5111L21.685 51.6349ZM21.9529 51.1612C22.3007 50.7663 22.8255 50.2919 23.4092 49.8736C24.0007 49.4499 24.588 49.1305 25.0569 48.9887L24.4781 47.0743C23.7153 47.3049 22.925 47.7602 22.2444 48.2478C21.5561 48.741 20.9142 49.3147 20.4522 49.8391L21.9529 51.1612ZM25.0587 48.9882C25.1116 48.9721 25.1554 48.9622 25.1884 48.9566C25.2226 48.9508 25.2382 48.9508 25.2362 48.9508V46.9508C24.9847 46.9508 24.7227 46.9998 24.4763 47.0748L25.0587 48.9882ZM25.2362 48.9508C25.2318 48.9508 25.205 48.9506 25.1621 48.9412C25.1194 48.9319 25.0498 48.9111 24.9697 48.8638L25.9871 47.1419C25.7193 46.9837 25.4399 46.9508 25.2362 46.9508V48.9508ZM24.9415 48.8465C24.8424 48.7835 24.7815 48.7106 24.7444 48.6521C24.7073 48.5935 24.6679 48.508 24.6532 48.393L26.6369 48.1387C26.5863 47.7439 26.3528 47.374 26.0153 47.1592L24.9415 48.8465ZM24.6536 48.3964C24.6385 48.2818 24.6827 48.2708 24.607 48.417C24.5412 48.5441 24.4267 48.7087 24.2651 48.9009C23.9425 49.2846 23.5396 49.6543 23.2651 49.9049L24.6137 51.3818C24.8783 51.1402 25.3763 50.687 25.7959 50.188C26.0054 49.9388 26.2223 49.6471 26.383 49.3367C26.5338 49.0454 26.6998 48.6158 26.6365 48.1353L24.6536 48.3964ZM23.2657 49.9044C22.6311 50.483 22.0193 51.0035 21.4521 51.2619L22.2811 53.082C23.1774 52.6737 24.0082 51.9339 24.6132 51.3823L23.2657 49.9044ZM21.4497 51.263C21.4115 51.2805 21.3764 51.2928 21.3465 51.3009C21.3162 51.3092 21.2956 51.3119 21.2862 51.3126C21.2757 51.3134 21.2861 51.3113 21.3142 51.3161C21.3411 51.3206 21.4029 51.3348 21.4795 51.3798L20.4673 53.1047C20.8048 53.3028 21.1701 53.3276 21.4405 53.3066C21.7285 53.2843 22.0176 53.2028 22.2835 53.0809L21.4497 51.263ZM20.2746 51.5269L20.272 51.5295L21.6696 52.9601L21.6722 52.9576L20.2746 51.5269ZM24.8542 54.49C24.9059 54.5201 24.9325 54.5496 24.9413 54.5603C24.9505 54.5715 24.9494 54.5732 24.9443 54.5617C24.9395 54.5508 24.9339 54.5343 24.9303 54.5141C24.9267 54.494 24.9259 54.4757 24.9268 54.461L22.9311 54.3305C22.9073 54.6949 22.9762 55.0561 23.1148 55.3698C23.2494 55.6745 23.4828 56.0057 23.8475 56.2181L24.8542 54.49ZM24.9272 54.4555C24.9358 54.3121 25.0311 54.028 25.3315 53.6858L23.8285 52.3663C23.3425 52.9199 22.9742 53.6097 22.9308 54.336L24.9272 54.4555ZM25.3299 53.6876C26.2514 52.6431 27.8914 51.4036 29.1528 51.0225L28.5744 49.108C26.836 49.6332 24.8981 51.1539 23.8301 52.3645L25.3299 53.6876ZM29.1554 51.0217C29.2083 51.0056 29.2695 50.9893 29.3309 50.9775C29.3947 50.9651 29.4409 50.9611 29.4678 50.9611V48.9611C29.1008 48.9611 28.757 49.0523 28.5718 49.1088L29.1554 51.0217ZM29.4678 50.9611C29.4853 50.9611 29.4787 50.9628 29.4546 50.9575C29.4301 50.952 29.3724 50.9359 29.3029 50.8907L30.3929 49.2138C30.0551 48.9942 29.6939 48.9611 29.4678 48.9611V50.9611ZM29.3072 50.8934C29.2486 50.8558 29.2129 50.8142 29.1907 50.7794C29.1684 50.7445 29.145 50.6935 29.1355 50.6229L31.1177 50.3566C31.0547 49.8879 30.7782 49.4614 30.3887 49.2111L29.3072 50.8934ZM29.1354 50.6221C29.1296 50.5788 29.1497 50.6336 29.0539 50.827C28.9649 51.0069 28.8165 51.224 28.6171 51.4654C28.2184 51.9479 27.7207 52.4038 27.389 52.7052L28.7341 54.1854C29.0586 53.8905 29.6573 53.3464 30.1589 52.7392C30.4097 52.4357 30.6625 52.0854 30.8461 51.7147C31.023 51.3575 31.1873 50.8784 31.1178 50.3574L29.1354 50.6221ZM27.3877 52.7064C26.633 53.3947 25.8819 54.0388 25.1605 54.3646L25.9837 56.1873C27.0383 55.711 28.011 54.8448 28.7354 54.1842L27.3877 52.7064ZM25.1556 54.3668C25.0174 54.4301 24.9042 54.4538 24.8339 54.4582C24.7547 54.4631 24.7823 54.4421 24.8623 54.4891L23.8497 56.2138C24.5449 56.622 25.3957 56.4567 25.9886 56.1851L25.1556 54.3668ZM23.9081 54.4574L23.9029 54.46L24.7987 56.2482L24.8039 56.2456L23.9081 54.4574ZM28.7599 57.6224C28.7933 57.6418 28.808 57.659 28.8097 57.6611C28.8115 57.6631 28.8047 57.6554 28.7955 57.6346C28.7756 57.5901 28.761 57.5235 28.7654 57.4524L26.7692 57.3284C26.7245 58.0492 27.0185 58.923 27.7539 59.351L28.7599 57.6224ZM28.7656 57.4495C28.777 57.2558 28.8966 56.9224 29.2348 56.5374L27.7321 55.2176C27.2057 55.8169 26.8149 56.5564 26.7691 57.3314L28.7656 57.4495ZM29.234 56.5383C30.2325 55.4041 32.0182 54.0546 33.4001 53.637L32.8214 51.7225C30.9639 52.284 28.8801 53.9136 27.7328 55.2167L29.234 56.5383ZM33.4049 53.6355C33.4634 53.6175 33.5334 53.5988 33.6052 53.5851C33.679 53.5709 33.7385 53.5652 33.78 53.5652V51.5652C33.3888 51.5652 33.0228 51.6605 32.8167 51.7239L33.4049 53.6355ZM33.78 53.5652C33.8061 53.5652 33.8116 53.5676 33.8008 53.5652C33.7897 53.5627 33.75 53.5525 33.6979 53.5199L34.7579 51.8239C34.4111 51.6071 34.04 51.5652 33.78 51.5652V53.5652ZM33.6878 53.5135C33.6422 53.4842 33.6191 53.4552 33.6071 53.4364C33.5951 53.4176 33.5783 53.3844 33.5708 53.3306L35.5517 53.0548C35.4827 52.5597 35.1878 52.0997 34.768 51.8303L33.6878 53.5135ZM33.5699 53.3239C33.5694 53.3205 33.5778 53.4064 33.4777 53.6151C33.382 53.8147 33.2233 54.0511 33.01 54.3121C32.5822 54.8354 32.0404 55.3325 31.6477 55.6908L32.9958 57.1683C33.3765 56.8209 34.0247 56.2309 34.5585 55.5778C34.8259 55.2506 35.0909 54.8765 35.2811 54.4798C35.4669 54.0923 35.6234 53.5962 35.5526 53.0615L33.5699 53.3239ZM31.648 55.6906C30.8374 56.4296 30.0141 57.1358 29.2174 57.4986L30.0461 59.3188C31.1712 58.8065 32.2124 57.8825 32.9955 57.1685L31.648 55.6906ZM29.2197 57.4975C29.0928 57.5549 28.9519 57.5954 28.8367 57.6071C28.7117 57.6198 28.7085 57.591 28.7637 57.6232L27.7552 59.3503C28.1983 59.6091 28.6769 59.6337 29.0388 59.5969C29.4105 59.5591 29.7619 59.4473 30.0438 59.3198L29.2197 57.4975ZM28.291 57.4873L28.2885 57.4872L28.2253 59.4862L28.2278 59.4863L28.291 57.4873ZM34.0506 58.0976C33.519 58.5835 33.0293 58.9969 32.5961 59.1919L33.4171 61.0156C34.187 60.6691 34.9004 60.0304 35.4 59.5737L34.0506 58.0976ZM32.5948 59.1925C32.5568 59.2097 32.5393 59.2095 32.5533 59.2083C32.5603 59.2077 32.5874 59.206 32.6316 59.2123C32.668 59.2174 32.7641 59.2346 32.8808 59.3005L31.8981 61.0424C32.2026 61.2142 32.5255 61.2172 32.7159 61.2017C32.9453 61.183 33.1856 61.1203 33.4185 61.015L32.5948 59.1925ZM32.8965 59.3095C33.0196 59.382 33.0903 59.4647 33.1226 59.5075C33.159 59.5557 33.1797 59.597 33.1914 59.625C33.214 59.6789 33.2246 59.7341 33.2214 59.7944L31.2242 59.6892C31.2106 59.9474 31.2603 60.1914 31.3467 60.3976C31.4194 60.5713 31.5753 60.8527 31.8825 61.0334L32.8965 59.3095ZM33.2209 59.8036C33.219 59.8353 33.2127 59.828 33.2357 59.7808C33.2578 59.7355 33.2995 59.6691 33.3699 59.5897L31.8726 58.2637C31.5444 58.6343 31.259 59.1268 31.2247 59.6801L33.2209 59.8036ZM33.3717 59.5877C34.0713 58.7933 35.1924 58.0405 35.8625 57.8367L35.2807 55.9232C34.1697 56.261 32.7492 57.2685 31.8708 58.2658L33.3717 59.5877ZM35.8546 57.8391C35.901 57.8254 35.9298 57.8196 35.943 57.8174C35.9569 57.815 35.9491 57.8175 35.9232 57.8175V55.8175C35.7212 55.8175 35.5079 55.8561 35.2886 55.9208L35.8546 57.8391ZM35.9232 57.8175C35.913 57.8175 35.8741 57.817 35.8158 57.8058C35.7866 57.8001 35.7401 57.7893 35.6835 57.7684C35.6359 57.7508 35.5323 57.7083 35.4208 57.6191L36.6703 56.0574C36.4667 55.8946 36.2529 55.8532 36.1959 55.8422C36.0972 55.8231 36.0036 55.8175 35.9232 55.8175V57.8175ZM35.4764 57.6605C35.3661 57.5842 35.2987 57.5006 35.2586 57.44C35.2226 57.3855 35.1515 57.2638 35.1273 57.0826L37.1097 56.818C37.0803 56.5976 36.9896 56.4317 36.9269 56.3368C36.8601 56.2359 36.7589 56.1159 36.6148 56.0161L35.4764 57.6605ZM35.1268 57.079C35.1011 56.8811 35.1831 56.8054 35.1099 56.9352C35.0569 57.0291 34.9619 57.1597 34.8258 57.3172C34.5562 57.6291 34.2299 57.9288 34.0453 58.0975L35.3948 59.5736C35.5749 59.409 35.9829 59.0369 36.339 58.6249C36.5157 58.4205 36.7062 58.176 36.8519 57.9177C36.9774 57.6953 37.171 57.2902 37.1102 56.8215L35.1268 57.079ZM34.7076 59.8355L34.7128 59.8356L34.7377 57.8357L34.7325 57.8357L34.7076 59.8355ZM55.0333 50.2319C55.0371 50.2161 55.0464 50.1901 55.0651 50.1615C55.0838 50.1329 55.1036 50.1143 55.116 50.1049C55.1272 50.0964 55.1256 50.1004 55.1016 50.1097C55.0771 50.1193 55.0338 50.1327 54.9662 50.1441L55.3001 52.1161C56.0169 51.9947 56.7634 51.5901 56.9777 50.7003L55.0333 50.2319ZM54.9663 50.1441C54.3509 50.2482 53.6843 50.1344 52.9443 49.8564C52.1973 49.5758 51.4582 49.1617 50.6879 48.7294L49.7092 50.4736C50.4518 50.8903 51.3259 51.3849 52.241 51.7287C53.163 52.075 54.2072 52.301 55.3 52.1161L54.9663 50.1441ZM50.6889 48.73C49.0153 47.7884 47.4218 46.69 45.9471 45.4652L44.6693 47.0038C46.236 48.305 47.9289 49.472 49.7082 50.473L50.6889 48.73ZM45.9489 45.4666C45.0982 44.7569 43.8356 44.8752 43.1268 45.7235L44.6616 47.0058C44.663 47.0041 44.6638 47.0035 44.664 47.0034C44.6642 47.0032 44.6643 47.0032 44.6644 47.0031C44.6646 47.003 44.6656 47.0026 44.667 47.0025C44.6686 47.0023 44.669 47.0026 44.6683 47.0024C44.6679 47.0022 44.6674 47.002 44.667 47.0018C44.6665 47.0015 44.6666 47.0016 44.6676 47.0023L45.9489 45.4666ZM43.1264 45.724C42.4178 46.5733 42.5329 47.8382 43.386 48.5458L44.6628 47.0063C44.6616 47.0054 44.6614 47.005 44.6616 47.0053C44.6618 47.0056 44.6621 47.0059 44.6623 47.0063C44.6626 47.0069 44.6623 47.0065 44.6622 47.0054C44.6621 47.0042 44.6623 47.0039 44.6621 47.0046C44.662 47.005 44.6618 47.0055 44.6615 47.0059C44.6613 47.0064 44.6613 47.0062 44.662 47.0053L43.1264 45.724ZM43.3848 48.5448C45.0434 49.9247 46.8409 51.1623 48.7244 52.2206L49.7041 50.477C47.9264 49.4781 46.2292 48.3096 44.664 47.0073L43.3848 48.5448ZM48.7245 52.2207C49.4171 52.6097 50.2309 53.0634 51.1127 53.4345L51.8885 51.5911C51.1246 51.2696 50.4021 50.8691 49.7041 50.477L48.7245 52.2207ZM50.5006 52.5128V52.5154H52.5006V52.5128H50.5006ZM50.5087 52.6419C50.5086 52.6417 50.5087 52.6426 50.509 52.6446C50.5092 52.6467 50.5094 52.6495 50.5098 52.6532C50.5104 52.6609 50.5111 52.671 50.5118 52.6839C50.5132 52.7099 50.5142 52.7426 50.5147 52.7815C50.5156 52.8596 50.5139 52.9511 50.51 53.0449C50.506 53.1386 50.5 53.228 50.4932 53.3017C50.4856 53.3838 50.4793 53.4187 50.4798 53.4165L52.4381 53.8225C52.478 53.6303 52.4989 53.3508 52.5082 53.1291C52.5176 52.9055 52.5209 52.6112 52.4926 52.389L50.5087 52.6419ZM50.4795 53.4179C50.4037 53.7859 50.342 53.9872 50.3067 54.0837C50.2893 54.1315 50.2817 54.1443 50.2872 54.1339C50.29 54.1284 50.2983 54.1131 50.3127 54.0911C50.325 54.0725 50.353 54.0319 50.398 53.9834L51.8637 55.3441C52.0232 55.1724 52.1191 54.9513 52.1854 54.7698C52.2648 54.5525 52.3501 54.2499 52.4384 53.8212L50.4795 53.4179ZM50.8561 53.7022C50.8945 53.6912 50.9259 53.685 50.9462 53.6814C50.9673 53.6777 50.9844 53.6755 50.9958 53.6743C51.0176 53.6719 51.032 53.6714 51.0352 53.6713C51.0394 53.6711 51.0398 53.6712 51.0355 53.6712C51.0315 53.6711 51.0254 53.671 51.0171 53.6708C51.0003 53.6702 50.9804 53.6692 50.9595 53.6679C50.9391 53.6666 50.9204 53.6652 50.9055 53.6641L50.7521 55.6582C50.7879 55.6609 50.8685 55.667 50.9523 55.6697C50.9935 55.671 51.048 55.672 51.1051 55.67C51.1362 55.6689 51.2646 55.6655 51.4056 55.6253L50.8561 53.7022ZM50.9755 53.6719C50.9858 53.6735 50.9574 53.6694 50.875 53.6429C50.7992 53.6185 50.7004 53.5824 50.578 53.5333C50.3332 53.435 50.0241 53.2962 49.667 53.124C48.9543 52.7801 48.0864 52.3201 47.2257 51.8266C46.3637 51.3324 45.5249 50.8138 44.8658 50.3543C44.5356 50.124 44.263 49.9173 44.0596 49.7428C43.9581 49.6558 43.8817 49.5835 43.8273 49.5262C43.7694 49.4652 43.7547 49.4403 43.76 49.449L42.0544 50.4934C42.2299 50.78 42.505 51.0444 42.7574 51.2609C43.0298 51.4945 43.3611 51.7433 43.722 51.9949C44.4453 52.4992 45.338 53.0497 46.2309 53.5616C47.1251 54.0743 48.0353 54.5574 48.798 54.9253C49.1787 55.109 49.5316 55.2683 49.8325 55.3892C50.1077 55.4997 50.4185 55.6112 50.6821 55.6503L50.9755 53.6719ZM43.7597 49.4485C43.1814 48.5054 41.9493 48.2117 41.0063 48.7868L42.0478 50.4942C42.0494 50.4932 42.0503 50.4929 42.0503 50.4929C42.0504 50.4929 42.0504 50.4929 42.0504 50.4929C42.0506 50.4929 42.0516 50.4928 42.0532 50.4931C42.0547 50.4935 42.0553 50.494 42.0549 50.4937C42.0546 50.4935 42.0543 50.4932 42.0541 50.493C42.0538 50.4927 42.054 50.4929 42.0547 50.494L43.7597 49.4485ZM41.0043 48.788C40.0613 49.3664 39.7675 50.5985 40.3426 51.5414L42.0501 50.4999C42.0491 50.4983 42.0488 50.4974 42.0488 50.4974C42.0487 50.4973 42.0487 50.4973 42.0487 50.4973C42.0487 50.4971 42.0486 50.4961 42.049 50.4945C42.0494 50.493 42.0498 50.4924 42.0495 50.4928C42.0494 50.4931 42.0491 50.4934 42.0488 50.4937C42.0485 50.4939 42.0487 50.4937 42.0498 50.493L41.0043 48.788ZM40.3432 51.5422C40.6283 52.0087 41.0997 52.4671 41.6009 52.8832C42.1202 53.3143 42.7471 53.7608 43.4151 54.1956C44.7515 55.0654 46.3083 55.9242 47.6252 56.5612L48.4961 54.7608C47.2454 54.1558 45.7632 53.3376 44.506 52.5193C43.8772 52.11 43.3186 51.7098 42.8783 51.3443C42.4199 50.9638 42.1576 50.6758 42.0496 50.4991L40.3432 51.5422ZM47.0616 55.7032C47.0636 55.7506 47.0625 55.8256 47.0575 55.9035C47.0551 55.9406 47.0523 55.9717 47.0497 55.9939C47.0465 56.0218 47.0458 56.0178 47.0512 55.9935L49.0024 56.4326C49.052 56.2121 49.0697 55.8536 49.0598 55.6188L47.0616 55.7032ZM47.0564 55.9717C47.0031 56.186 46.9643 56.2922 46.948 56.3316C46.931 56.373 46.947 56.3208 47.0141 56.2368L48.576 57.4861C48.7363 57.2856 48.8663 56.9809 48.9973 56.4544L47.0564 55.9717ZM47.4679 55.9165C47.5106 55.9017 47.5459 55.8931 47.5687 55.8881C47.5924 55.883 47.6114 55.88 47.6239 55.8782C47.6368 55.8764 47.6467 55.8754 47.6527 55.8749C47.659 55.8743 47.6632 55.874 47.665 55.874C47.6681 55.8738 47.6666 55.8739 47.6593 55.874C47.6523 55.874 47.6428 55.874 47.6304 55.8737C47.605 55.8732 47.5756 55.872 47.5428 55.8704C47.5267 55.8696 47.5109 55.8687 47.4948 55.8679C47.4796 55.8671 47.4621 55.8661 47.4466 55.8653L47.3467 57.8628C47.3805 57.8645 47.4912 57.8713 47.5887 57.8733C47.639 57.8743 47.7049 57.8747 47.7728 57.871C47.8112 57.869 47.9614 57.8621 48.1222 57.8064L47.4679 55.9165ZM47.4998 55.8694C47.5124 55.8707 47.4887 55.8687 47.4126 55.8488C47.3432 55.8306 47.2518 55.8032 47.1379 55.7653C46.9101 55.6896 46.6205 55.5816 46.2845 55.4465C45.6138 55.1768 44.7919 54.8131 43.9722 54.4206C43.1513 54.0275 42.3474 53.6126 41.7089 53.2418C41.3889 53.0561 41.1223 52.8882 40.9204 52.7453C40.8197 52.6741 40.7427 52.6143 40.6869 52.5666C40.6273 52.5156 40.6106 52.4942 40.6162 52.5012L39.0525 53.7481C39.2426 53.9865 39.5164 54.2019 39.765 54.3778C40.0334 54.5678 40.3556 54.7688 40.7046 54.9714C41.404 55.3775 42.2585 55.8174 43.1084 56.2244C43.9595 56.632 44.8211 57.0137 45.5384 57.3021C45.8964 57.446 46.227 57.5702 46.5071 57.6633C46.7619 57.7479 47.0517 57.8337 47.2935 57.8587L47.4998 55.8694ZM40.6148 52.4994C39.9261 51.6398 38.6715 51.4917 37.8026 52.1836L39.0485 53.7481C39.0494 53.7474 39.05 53.7469 39.0504 53.7467C39.0506 53.7466 39.0507 53.7465 39.0508 53.7465C39.0508 53.7464 39.0509 53.7464 39.0509 53.7464C39.0509 53.7464 39.0509 53.7464 39.0508 53.7464C39.0508 53.7465 39.0507 53.7465 39.0506 53.7465C39.0505 53.7466 39.0503 53.7467 39.0501 53.7467C39.0493 53.7469 39.0493 53.7468 39.0501 53.7469C39.0504 53.7469 39.0508 53.747 39.051 53.747C39.0511 53.7471 39.0512 53.7471 39.0513 53.7471C39.0513 53.7471 39.0513 53.7471 39.0513 53.7472C39.0513 53.7472 39.0513 53.7472 39.0513 53.7472C39.0513 53.7472 39.0513 53.7472 39.0513 53.7472V53.7472C39.0513 53.7472 39.0513 53.7472 39.0513 53.7472C39.0513 53.7472 39.0514 53.7472 39.0515 53.7473C39.0517 53.7475 39.0525 53.7482 39.054 53.7499L40.6148 52.4994ZM37.8032 52.1831C36.9394 52.87 36.7923 54.1336 37.4863 54.9998L39.0472 53.7494C39.0465 53.7486 39.0466 53.7486 39.047 53.7492C39.0473 53.7498 39.0475 53.7505 39.0476 53.751C39.0479 53.7518 39.0476 53.7513 39.0478 53.7498C39.048 53.7482 39.0484 53.7475 39.0482 53.7479C39.0481 53.7481 39.0478 53.7485 39.0475 53.7488C39.0472 53.7493 39.0472 53.7491 39.048 53.7485L37.8032 52.1831ZM37.4852 54.9985C37.7523 55.3332 38.1488 55.6567 38.56 55.949C38.9874 56.2528 39.4972 56.569 40.0441 56.8811C41.1389 57.5057 42.43 58.1408 43.6117 58.6598L44.416 56.8287C43.2852 56.332 42.0582 55.7276 41.0353 55.144C40.5234 54.8519 40.0744 54.5718 39.7189 54.319C39.3472 54.0547 39.1365 53.8613 39.0482 53.7507L37.4852 54.9985ZM43.3492 56.9971C43.0373 57.2745 42.6626 57.4873 42.3932 57.5811L43.0512 59.4698C43.5892 59.2824 44.1883 58.9275 44.6785 58.4914L43.3492 56.9971ZM42.8532 57.5341C42.599 57.5005 41.8437 57.3089 40.9184 57.0386C40.0228 56.777 39.0705 56.4722 38.4678 56.2474L37.7689 58.1214C38.4369 58.3705 39.4415 58.6907 40.3576 58.9584C41.244 59.2173 42.1554 59.4593 42.5913 59.5169L42.8532 57.5341ZM39.1151 57.2648C39.1325 57.0488 39.1341 56.8097 39.0985 56.5525L37.1174 56.8268C37.1286 56.908 37.1302 56.9971 37.1216 57.104L39.1151 57.2648ZM39.0991 56.5575C38.9771 55.642 38.4451 54.8027 37.6635 54.3047L36.5888 55.9914C36.8697 56.1704 37.0721 56.4874 37.1167 56.8218L39.0991 56.5575ZM37.6643 54.3052C37.3299 54.0917 36.8832 53.906 36.3339 53.8401L36.0956 55.8258C36.3275 55.8537 36.4901 55.9284 36.588 55.9909L37.6643 54.3052ZM37.1244 55.2483C37.4531 54.5283 37.6565 53.6958 37.5367 52.7972L35.5542 53.0616C35.6115 53.4911 35.5232 53.9398 35.3051 54.4177L37.1244 55.2483ZM37.5369 52.7989C37.3941 51.7134 36.761 50.7233 35.8398 50.1376L34.7668 51.8255C35.1893 52.094 35.4885 52.5621 35.554 53.0598L37.5369 52.7989ZM35.8402 50.1379C35.0863 49.6582 33.8905 49.3051 32.2425 49.7998L32.8175 51.7154C33.8934 51.3924 34.4891 51.6487 34.7664 51.8252L35.8402 50.1379ZM32.241 49.8003C32.0598 49.855 31.8587 49.9369 31.7629 49.973L32.469 51.8442C32.6493 51.7762 32.7242 51.7436 32.819 51.7149L32.241 49.8003ZM33.1105 51.0127C33.1404 50.7271 33.1458 50.4184 33.1016 50.0939L31.1199 50.3641C31.1382 50.4979 31.1384 50.6423 31.1214 50.8046L33.1105 51.0127ZM33.1023 50.0995C32.965 49.0478 32.3529 48.0883 31.4598 47.5206L30.3869 49.2084C30.7801 49.4584 31.0586 49.8947 31.1192 50.3585L33.1023 50.0995ZM31.4625 47.5223C30.7317 47.0544 29.5734 46.7135 27.9913 47.191L28.5692 49.1057C29.5756 48.802 30.1306 49.0444 30.3842 49.2067L31.4625 47.5223ZM27.9929 47.1905C27.739 47.2667 27.4936 47.3615 27.2728 47.4514L28.0274 49.3036C28.2284 49.2217 28.4049 49.155 28.5676 49.1062L27.9929 47.1905ZM28.6499 48.3988C28.6534 48.2344 28.6467 48.0525 28.6188 47.8608L26.6397 48.1495C26.6482 48.2078 26.652 48.2759 26.6503 48.3562L28.6499 48.3988ZM28.6206 47.8737C28.4907 46.8938 27.9211 46.0006 27.0893 45.4696L26.0131 47.1554C26.3479 47.3691 26.5856 47.7416 26.6379 48.1366L28.6206 47.8737ZM27.0887 45.4692C26.4109 45.0372 25.3422 44.717 23.8946 45.1548L24.4736 47.0692C25.3333 46.8091 25.8009 47.0201 26.0137 47.1558L27.0887 45.4692ZM23.8949 45.1547C22.889 45.4586 21.8869 46.0325 21.0283 46.6529L22.1996 48.274C22.9555 47.7278 23.7553 47.2862 24.4733 47.0693L23.8949 45.1547ZM22.1041 46.5918L19.2241 44.9721L18.2437 46.7154L21.1237 48.3351L22.1041 46.5918ZM19.2241 44.9722C18.9924 44.8418 18.7799 44.7128 18.5811 44.5827L17.4856 46.2559C17.7244 46.4122 17.9754 46.5644 18.2436 46.7153L19.2241 44.9722ZM18.9288 45.8645L23.8061 36.055L22.0153 35.1646L17.1379 44.9741L18.9288 45.8645ZM22.9769 36.6076C25.0906 36.4674 27.2262 36.3453 29.3637 36.2334L29.2592 34.2362C27.1156 34.3483 24.9702 34.471 22.8445 34.612L22.9769 36.6076ZM28.4702 34.6942C28.0686 35.3191 27.6394 35.929 27.1904 36.5135L28.7764 37.7319C29.2596 37.103 29.721 36.4473 30.1527 35.7754L28.4702 34.6942ZM27.1905 36.5134C26.6433 37.2255 25.4941 38.6416 25.8252 40.4558L27.7927 40.0966C27.6447 39.2859 28.1308 38.572 28.7763 37.732L27.1905 36.5134ZM25.8252 40.4557C26.1879 42.4431 28.047 43.4608 29.5507 43.5554L29.6763 41.5593C28.7791 41.5029 27.9405 40.9062 27.7927 40.0967L25.8252 40.4557ZM29.5491 43.5553C29.6505 43.5618 29.7501 43.5652 29.8531 43.5652V41.5652C29.7946 41.5652 29.7379 41.5633 29.6779 41.5594L29.5491 43.5553ZM29.8531 43.5652C31.1595 43.5652 32.2955 43.034 33.0496 42.6381L32.1199 40.8673C31.4157 41.237 30.6455 41.5652 29.8531 41.5652V43.5652ZM33.0521 42.6367C34.4037 41.9222 35.5512 41.0764 36.4743 40.1103L35.0282 38.7286C34.2743 39.5176 33.3072 40.2395 32.1173 40.8686L33.0521 42.6367ZM35.7362 40.4194C36.5636 40.4318 38.0974 40.5176 39.6688 40.7496C41.2803 40.9874 42.7716 41.3577 43.6253 41.865L44.647 40.1457C43.428 39.4212 41.5914 39.0116 39.9609 38.771C38.2903 38.5244 36.668 38.4332 35.7663 38.4196L35.7362 40.4194ZM43.6233 41.8638C43.8098 41.9752 43.9961 42.0928 44.1829 42.2149L45.2768 40.5405C45.0731 40.4074 44.8635 40.275 44.649 40.1469L43.6233 41.8638ZM44.1861 42.2169C46.0102 43.3989 47.8012 44.7353 49.5635 46.0512L50.7601 44.4486C49.007 43.1396 47.1629 41.7627 45.2736 40.5385L44.1861 42.2169ZM49.5635 46.0511L50.1702 46.5042L51.3669 44.9018L50.7602 44.4487L49.5635 46.0511ZM50.1707 46.5046C50.9509 47.0864 51.7426 47.6458 52.5221 48.1967L53.6763 46.5633C52.8933 46.01 52.1226 45.4653 51.3664 44.9014L50.1707 46.5046ZM52.5231 48.1973C53.273 48.7259 54.0134 49.2504 54.7362 49.7887L55.9308 48.1847C55.1848 47.6291 54.4253 47.0912 53.6753 46.5626L52.5231 48.1973ZM54.7357 49.7884C54.8819 49.8974 54.9572 50.0152 54.9934 50.1074C55.0342 50.2116 55.0187 50.2621 55.0248 50.2363L56.9702 50.7006C57.1687 49.8688 56.8113 48.8412 55.9312 48.185L54.7357 49.7884ZM56.2789 51.428L56.2869 51.4257L55.7242 49.5065L55.7162 49.5088L56.2789 51.428ZM55.0634 45.0823C55.031 45.0591 54.9986 45.0356 54.9622 45.0091C54.927 44.9835 54.8877 44.9549 54.8472 44.926L53.6847 46.5535C53.7172 46.5766 53.7495 46.6001 53.7859 46.6266C53.8211 46.6522 53.8604 46.6808 53.9009 46.7097L55.0634 45.0823ZM54.8423 44.9225C54.0741 44.3808 53.3154 43.8433 52.5718 43.2894L51.3771 44.8933C52.1438 45.4644 52.9216 46.0154 53.6897 46.557L54.8423 44.9225ZM52.5728 43.2901L51.966 42.837L50.7694 44.4395L51.3761 44.8926L52.5728 43.2901ZM51.9664 42.8373C50.1857 41.5063 48.3139 40.1118 46.3704 38.8515L45.2822 40.5295C47.1615 41.7483 48.9822 43.1037 50.769 44.4392L51.9664 42.8373ZM46.3671 38.8493C46.1463 38.7074 45.9144 38.56 45.6794 38.419L44.6504 40.134C44.858 40.2585 45.0688 40.3924 45.2856 40.5317L46.3671 38.8493ZM45.6757 38.4168C44.4125 37.6662 42.729 37.2153 41.1763 36.9335C39.6014 36.6478 38.0588 36.519 37.0154 36.4604L36.9033 38.4573C37.9017 38.5133 39.3551 38.6358 40.8192 38.9014C42.3055 39.1711 43.7039 39.5716 44.6541 40.1362L45.6757 38.4168ZM37.9546 37.362C37.8987 36.7872 37.5951 36.2242 37.0547 35.8745L35.9682 37.5536C35.9677 37.5534 35.9664 37.5524 35.9648 37.5507C35.9633 37.5492 35.9625 37.5479 35.9621 37.5473C35.9617 37.5465 35.9634 37.5493 35.964 37.5557L37.9546 37.362ZM37.0574 35.8763C36.1249 35.2686 34.8852 35.545 34.2857 36.465L35.9613 37.5569C35.9622 37.5556 35.9627 37.5551 35.9627 37.555C35.9629 37.5549 35.963 37.5548 35.9632 37.5546C35.9638 37.5542 35.9652 37.5535 35.9671 37.5531C35.969 37.5527 35.9695 37.5529 35.9684 37.5527C35.9677 37.5526 35.9669 37.5524 35.966 37.5521C35.9651 37.5517 35.9649 37.5515 35.9654 37.5519L37.0574 35.8763ZM34.2841 36.4673C33.6644 37.4243 32.644 38.3183 31.1815 39.0933L32.118 40.8605C33.7906 39.9741 35.1087 38.8734 35.9628 37.5545L34.2841 36.4673ZM31.1837 39.0922C30.5763 39.4121 30.1294 39.5807 29.8171 39.5577L29.67 41.5523C30.6286 41.623 31.5565 41.1563 32.1158 40.8617L31.1837 39.0922ZM29.8056 39.5569C29.7851 39.5557 29.7589 39.5509 29.7307 39.5412C29.7021 39.5315 29.6804 39.5198 29.6678 39.5114C29.6536 39.502 29.6626 39.5046 29.6824 39.53C29.7014 39.5543 29.7482 39.623 29.7692 39.7382L27.8014 40.0958C27.8977 40.6257 28.2659 40.9805 28.5584 41.1755C28.8751 41.3866 29.2695 41.5275 29.6815 41.5531L29.8056 39.5569ZM29.7687 39.7356C29.788 39.8401 29.7636 39.8922 29.7748 39.8567C29.7848 39.8247 29.8116 39.7603 29.8702 39.6594C29.991 39.4512 30.1661 39.2213 30.37 38.9559L28.7838 37.7376C28.5997 37.9774 28.3387 38.3139 28.1405 38.6552C27.9713 38.9466 27.6904 39.4945 27.8019 40.0985L29.7687 39.7356ZM30.3698 38.9561C31.4068 37.6067 32.3384 36.1555 33.138 34.6423L31.3697 33.7079C30.6226 35.1216 29.7521 36.4777 28.784 37.7374L30.3698 38.9561ZM33.1482 34.6224C33.1558 34.6074 33.1623 34.5934 33.1623 34.5934C33.1641 34.5895 33.1608 34.5966 33.1564 34.6054C33.1516 34.6151 33.1424 34.6329 33.1295 34.6549C33.1166 34.6769 33.0977 34.7071 33.0721 34.7412L31.4721 33.5413C31.4156 33.6165 31.3812 33.6836 31.3676 33.711C31.3602 33.7257 31.3542 33.7386 31.3533 33.7404C31.3506 33.7461 31.3545 33.7377 31.3594 33.7279L33.1482 34.6224ZM32.4365 35.1277C32.4761 35.1211 32.5356 35.1107 32.6057 35.0932L32.1207 33.1529C32.1283 33.151 32.1306 33.1511 32.1077 33.1549L32.4365 35.1277ZM32.5559 35.1043L39.9409 33.6538L39.5554 31.6913L32.1705 33.1418L32.5559 35.1043ZM39.9385 33.6543C40.0775 33.6273 40.1727 33.6084 40.2598 33.5957C40.3471 33.583 40.3762 33.5847 40.3718 33.5844L40.5048 31.5889C40.1483 31.5651 39.7549 31.6526 39.5578 31.6909L39.9385 33.6543ZM40.3836 33.5851C40.3825 33.5851 40.4142 33.5877 40.4921 33.6083C40.5663 33.628 40.6524 33.6557 40.7586 33.6919L41.4044 31.7991C41.2028 31.7303 40.8427 31.6073 40.493 31.5881L40.3836 33.5851ZM40.7626 33.6933C43.8497 34.7319 49.2491 36.5984 51.1247 37.3949L51.9065 35.5541C49.9436 34.7204 44.4588 32.8267 41.4003 31.7977L40.7626 33.6933ZM50.6202 36.9198L55.0444 45.8154L56.8352 44.9247L52.411 36.0292L50.6202 36.9198ZM55.4826 44.4807C55.1038 44.6754 54.6905 44.8211 54.2571 44.9222L54.7112 46.8699C55.283 46.7366 55.854 46.5386 56.3971 46.2594L55.4826 44.4807ZM54.5217 44.8968L54.5196 44.8967L54.4446 46.8953L54.4467 46.8953L54.5217 44.8968Z"
        fill="black" mask="url(#path-2-inside-1_1_696)" />
    <path
        d="M33.5024 18.4513L33.5 18.4756V18.5C33.5 18.7652 33.3946 19.0196 33.2071 19.2071C33.0196 19.3946 32.7652 19.5 32.5 19.5C32.2348 19.5 31.9804 19.3946 31.7929 19.2071C31.6054 19.0196 31.5 18.7652 31.5 18.5C31.5 18.2348 31.6054 17.9804 31.7929 17.7929C31.9804 17.6054 32.2348 17.5 32.5 17.5H32.7071L32.8536 17.3536L35.8536 14.3536L36 14.2071V14C36 13.7348 36.1054 13.4804 36.2929 13.2929C36.4804 13.1054 36.7348 13 37 13C37.2652 13 37.5196 13.1054 37.7071 13.2929C37.8946 13.4804 38 13.7348 38 14V14.2046L38.1434 14.3505L39.8734 16.1105L40.0204 16.26H40.23H40.39H40.5971L40.7436 16.1136L44.3536 12.5036L44.5206 12.3365L44.4976 12.1013C44.4959 12.0838 44.4959 12.0662 44.4976 12.0487L44.5 12.0244V12C44.5 11.8022 44.5586 11.6089 44.6685 11.4444C44.7784 11.28 44.9346 11.1518 45.1173 11.0761C45.3 11.0004 45.5011 10.9806 45.6951 11.0192C45.8891 11.0578 46.0673 11.153 46.2071 11.2929C46.347 11.4327 46.4422 11.6109 46.4808 11.8049C46.5194 11.9989 46.4996 12.2 46.4239 12.3827C46.3482 12.5654 46.22 12.7216 46.0556 12.8315C45.8911 12.9414 45.6978 13 45.5 13H45.2917L45.145 13.1479L41.505 16.8179L41.36 16.9641V17.17V17.25C41.36 17.5152 41.2546 17.7696 41.0671 17.9571C40.8796 18.1446 40.6252 18.25 40.36 18.25C40.0948 18.25 39.8404 18.1446 39.6529 17.9571C39.4654 17.7696 39.36 17.5152 39.36 17.25V17.17V16.9629L39.2136 16.8164L37.6036 15.2064L37.4571 15.06H37.25H36.79H36.5829L36.4364 15.2064L33.6464 17.9964L33.4794 18.1635L33.5024 18.3987C33.5041 18.4162 33.5041 18.4338 33.5024 18.4513ZM28.5 24V24.5H29H46C46.1326 24.5 46.2598 24.5527 46.3536 24.6464C46.4473 24.7402 46.5 24.8674 46.5 25C46.5 25.1326 46.4473 25.2598 46.3536 25.3536C46.2598 25.4473 46.1326 25.5 46 25.5H28C27.8674 25.5 27.7402 25.4473 27.6464 25.3536C27.5527 25.2598 27.5 25.1326 27.5 25V7C27.5 6.86739 27.5527 6.74021 27.6464 6.64645C27.7402 6.55268 27.8674 6.5 28 6.5C28.1326 6.5 28.2598 6.55268 28.3536 6.64645C28.4473 6.74021 28.5 6.86739 28.5 7V24Z"
        fill="#FFD550" stroke="black" />
</svg>