<svg width="70" height="70" viewBox="0 0 70 70" fill="none" xmlns="http://www.w3.org/2000/svg">
    <path
        d="M8.925 40.864H5.01562C7.376 53.1085 17.0388 62.7713 29.2833 65.1317V61.2223C19.1779 58.8619 11.2116 50.9694 8.925 40.864Z"
        fill="black" />
    <path
        d="M40.8644 61.1485V65.1317C53.1088 62.7713 62.7717 53.1085 65.132 40.864H61.1489C58.8623 50.9694 50.9698 58.8619 40.8644 61.1485Z"
        fill="black" />
    <path
        d="M61.1489 29.2098H65.132C62.6979 17.0391 53.0351 7.37625 40.8644 5.01587V8.99901C50.9698 11.2119 58.8623 19.1044 61.1489 29.2098Z"
        fill="black" />
    <path
        d="M29.2095 8.92525V5.01587C17.0388 7.37625 7.376 16.9653 5.01562 29.2098H8.99876C11.2116 19.1044 19.1779 11.2119 29.2095 8.92525Z"
        fill="black" />
    <path
        d="M35.0369 33.5616C39.5364 33.5616 43.1507 29.9473 43.1507 25.4478C43.1507 20.9483 39.5364 17.334 35.0369 17.334C30.6112 17.334 26.9231 20.9483 26.9231 25.4478C26.9231 29.9473 30.5374 33.5616 35.0369 33.5616Z"
        fill="black" />
    <path
        d="M41.1592 34.8157C39.3889 35.9959 37.3236 36.6597 35.037 36.6597C32.8241 36.6597 30.685 35.9959 28.9147 34.8157C25.743 36.0696 23.1613 38.5775 21.9811 41.9706C21.096 44.331 20.5796 46.9126 20.3584 49.4205C20.2846 50.6007 21.2435 51.5596 22.3499 51.5596H47.5765C48.7567 51.5596 49.7156 50.6007 49.5681 49.4205C49.3468 46.9126 48.8304 44.331 47.9453 41.9706C46.9126 38.5775 44.331 36.0696 41.1592 34.8157Z"
        fill="black" />
    <path
        d="M35.0372 12.687C36.0699 12.687 36.955 11.8019 36.955 10.7692V1.91781C36.955 0.885142 36.0699 0 35.0372 0C34.0045 0 33.1194 0.885142 33.1194 1.91781V10.6955C33.1194 11.8019 34.0045 12.687 35.0372 12.687Z"
        fill="black" />
    <path
        d="M35.0372 57.3867C34.0045 57.3867 33.1194 58.2719 33.1194 59.3045V68.0822C33.1194 69.1149 34.0045 70 35.0372 70C36.0699 70 36.955 69.1149 36.955 68.0822V59.3045C36.955 58.2719 36.0699 57.3867 35.0372 57.3867Z"
        fill="black" />
    <path
        d="M68.1558 33.1191H59.3044C58.2717 33.1191 57.3866 34.0043 57.3866 35.0369C57.3866 36.0696 58.2717 36.9548 59.3044 36.9548H68.0821C69.1147 36.9548 69.9999 36.0696 69.9999 35.0369C70.0736 34.0043 69.1885 33.1191 68.1558 33.1191Z"
        fill="black" />
    <path
        d="M12.687 35.0369C12.687 34.0043 11.8019 33.1191 10.7692 33.1191H1.91781C0.885142 33.1191 0 34.0043 0 35.0369C0 36.0696 0.885142 36.9548 1.91781 36.9548H10.6955C11.8019 36.9548 12.687 36.0696 12.687 35.0369Z"
        fill="black" />
</svg>