<svg width="64" height="60" viewBox="0 0 64 60" fill="none" xmlns="http://www.w3.org/2000/svg">
    <path
        d="M20 14H26V23C26 25.0615 29.1104 26 32 26C34.8896 26 38 25.0615 38 23V14H39C40.6967 14 42.1938 13.1462 43.0982 11.8501L44.3662 12.582C44.5234 12.6729 44.6953 12.7158 44.8652 12.7158C45.2109 12.7158 45.5469 12.5361 45.7324 12.2158C46.0088 11.7373 45.8447 11.126 45.3662 10.8496L43.8986 10.0025C43.9648 9.67847 44 9.34326 44 9C44 6.24316 41.7568 4 39 4C38.556 4 38.1169 4.06012 37.6932 4.1756C36.9183 1.7561 34.6379 0 32 0C29.8253 0 27.8209 1.20233 26.7677 3.06598C26.5157 3.02631 26.2604 3 26 3C23.8676 3 22.056 4.34552 21.3424 6.24182C20.9145 6.08777 20.4627 6 20 6C17.7939 6 16 7.79395 16 10C16 12.2061 17.7939 14 20 14ZM36 18.9568C35.8416 19.2626 34.4594 20 32 20C29.5156 20 28.126 19.2461 28 19V17.3057C29.1284 17.7745 30.5892 18 32 18C33.4108 18 34.8716 17.7745 36 17.3057V18.9568ZM36 13.3041V14.9568C35.8416 15.2626 34.4594 16 32 16C29.5156 16 28.126 15.2461 28 15V13.3008C29.0615 13.7451 30.4707 14 32 14C33.5181 14 34.9362 13.7473 36 13.3041ZM35.7701 11.1743C35.2176 11.5561 33.903 12 32 12C30.0635 12 28.5508 11.5137 28.0674 11.043C28.0458 11.0214 28.0425 11.0184 28.0317 11.0062C28.1157 10.9073 28.3516 10.7122 28.8887 10.502C29.1768 10.3799 29.543 10.2754 30.0029 10.1816C31.4658 9.89258 33.4043 9.95801 34.7393 10.3701C34.8594 10.4053 34.9717 10.4365 35.1357 10.5107C35.6318 10.7061 35.875 10.8984 35.9668 11C35.933 11.0394 35.8708 11.0996 35.7701 11.1743ZM32 24C29.5156 24 28.126 23.2461 28 23V21.3057C29.1284 21.7745 30.5892 22 32 22C33.4108 22 34.8716 21.7745 36 21.3057V22.9568C35.8416 23.2626 34.4594 24 32 24ZM20 8C20.4932 8 20.9678 8.18457 21.3379 8.52051C21.3718 8.55133 21.4143 8.56281 21.451 8.58813C21.5085 8.62811 21.5635 8.66711 21.629 8.69452C21.6947 8.72198 21.7611 8.73358 21.8301 8.74634C21.874 8.75464 21.9122 8.77686 21.958 8.7793C21.9756 8.78027 21.9932 8.78027 22.0107 8.78027C22.0185 8.78027 22.025 8.77618 22.0327 8.776C22.1001 8.77448 22.1635 8.75269 22.2294 8.73767C22.2888 8.72394 22.3502 8.71851 22.4052 8.69464C22.4524 8.67426 22.4915 8.63861 22.5356 8.6106C22.6014 8.56873 22.6669 8.52924 22.7212 8.47345C22.7298 8.4646 22.7416 8.46143 22.75 8.45215C22.7786 8.42065 22.7889 8.38092 22.8128 8.34692C22.8566 8.2851 22.8992 8.22504 22.9282 8.15369C22.9522 8.09454 22.9614 8.03448 22.9736 7.97272C22.9833 7.9248 23.0061 7.88232 23.0088 7.83203C23.0918 6.24414 24.4053 5 26 5C26.3359 5 26.6738 5.05859 26.9756 5.16895C27.0252 5.18726 27.0753 5.18213 27.1255 5.19226C27.2061 5.20874 27.2864 5.23315 27.3659 5.22968C27.406 5.22791 27.4416 5.20929 27.4808 5.20276C27.5685 5.18817 27.657 5.1767 27.7372 5.13971C27.7821 5.11908 27.8163 5.0813 27.8577 5.0542C27.9233 5.01129 27.9926 4.97473 28.047 4.91687C28.0883 4.87305 28.1114 4.81299 28.1447 4.76129C28.1822 4.70306 28.2293 4.6532 28.2549 4.58594C28.8525 3.01562 30.3232 2 32 2C34.0605 2 35.8057 3.59961 35.9727 5.6416C35.9735 5.65192 35.9795 5.66016 35.9807 5.67035C35.9865 5.72321 36.0091 5.77252 36.0236 5.82458C36.0446 5.89905 36.0627 5.97308 36.0992 6.039C36.1052 6.04999 36.1049 6.06238 36.1113 6.07324C36.1323 6.10815 36.166 6.12836 36.1903 6.15973C36.2377 6.22095 36.2844 6.27966 36.3442 6.32831C36.3872 6.36316 36.4337 6.38733 36.4813 6.41425C36.5425 6.44934 36.6028 6.4812 36.671 6.50287C36.7262 6.52032 36.7811 6.52698 36.8384 6.53473C36.8828 6.54077 36.923 6.55957 36.9688 6.55957C36.9961 6.55957 37.0234 6.55859 37.0518 6.55664C37.0626 6.55573 37.0712 6.54913 37.0819 6.54791C37.1439 6.54108 37.2018 6.51422 37.2626 6.49554C37.3288 6.47461 37.397 6.46094 37.4562 6.42755C37.4649 6.42273 37.4748 6.4231 37.4834 6.41797C37.9463 6.14062 38.457 6 39 6C40.6543 6 42 7.3457 42 9C42 10.6543 40.6543 12 39 12H38V11C38 10.4346 37.7227 9.37695 35.9238 8.67383C35.7275 8.58301 35.5215 8.51465 35.3154 8.45508C33.6826 7.94922 31.4229 7.8623 29.6104 8.2207C29.0127 8.3418 28.5225 8.48535 28.1357 8.64941C26.2773 9.37695 26 10.4346 26 11V12H20C18.8975 12 18 11.1025 18 10C18 8.89746 18.8975 8 20 8Z"
        fill="black" />
    <path
        d="M49 49.3916C50.1046 49.3916 51 48.4962 51 47.3916C51 46.287 50.1046 45.3916 49 45.3916C47.8954 45.3916 47 46.287 47 47.3916C47 48.4962 47.8954 49.3916 49 49.3916Z"
        fill="black" />
    <path
        d="M45 52.3916H50C50.5527 52.3916 51 51.9443 51 51.3916C51 50.8389 50.5527 50.3916 50 50.3916H45C44.4473 50.3916 44 50.8389 44 51.3916C44 51.9443 44.4473 52.3916 45 52.3916Z"
        fill="black" />
    <path
        d="M45 55.3916H50C50.5527 55.3916 51 54.9443 51 54.3916C51 53.8389 50.5527 53.3916 50 53.3916H45C44.4473 53.3916 44 53.8389 44 54.3916C44 54.9443 44.4473 55.3916 45 55.3916Z"
        fill="black" />
    <path
        d="M53 38.3916C52.4473 38.3916 52 38.8389 52 39.3916V42H42C41.4473 42 41 42.4473 41 43V59C41 59.5527 41.4473 60 42 60H53C53.5527 60 54 59.5527 54 59V39.3916C54 38.8389 53.5527 38.3916 53 38.3916ZM52 58H43V44H52V58Z"
        fill="black" />
    <path
        d="M53 32.0166C52.4473 32.0166 52 32.4639 52 33.0166C52 33.5693 52.4473 34.0166 53 34.0166C56.2939 34.0166 58.9736 36.6963 58.9736 39.9902C58.9736 40.543 59.4209 40.9902 59.9736 40.9902C60.5264 40.9902 60.9736 40.543 60.9736 39.9902C60.9736 35.5938 57.3965 32.0166 53 32.0166Z"
        fill="black" />
    <path
        d="M53.7979 29C53.2451 29 52.7979 29.4473 52.7979 30C52.7979 30.5527 53.2451 31 53.7979 31C58.3154 31 61.9902 34.6748 61.9902 39.1924C61.9902 39.7451 62.4375 40.1924 62.9902 40.1924C63.543 40.1924 63.9902 39.7451 63.9902 39.1924C63.9902 33.5723 59.418 29 53.7979 29Z"
        fill="black" />
    <path
        d="M53.6582 35.5029C53.1055 35.5029 52.6582 35.9502 52.6582 36.5029C52.6582 37.0557 53.1055 37.5029 53.6582 37.5029C54.667 37.5029 55.4873 38.3232 55.4873 39.332C55.4873 39.8848 55.9346 40.332 56.4873 40.332C57.04 40.332 57.4873 39.8848 57.4873 39.332C57.4873 37.2207 55.7695 35.5029 53.6582 35.5029Z"
        fill="black" />
    <path
        d="M24 41C24 40.4473 23.5527 40 23 40H1C0.447266 40 0 40.4473 0 41V53C0 53.5527 0.447266 54 1 54H23C23.5527 54 24 53.5527 24 53V41ZM22 52H2V42H22V52Z"
        fill="black" />
    <path
        d="M4 51H14C14.5527 51 15 50.5527 15 50V44C15 43.4473 14.5527 43 14 43H4C3.44727 43 3 43.4473 3 44V50C3 50.5527 3.44727 51 4 51ZM5 45H13V49H5V45Z"
        fill="black" />
    <path
        d="M17 45H20C20.5527 45 21 44.5527 21 44C21 43.4473 20.5527 43 20 43H17C16.4473 43 16 43.4473 16 44C16 44.5527 16.4473 45 17 45Z"
        fill="black" />
    <path
        d="M17 48H20C20.5527 48 21 47.5527 21 47C21 46.4473 20.5527 46 20 46H17C16.4473 46 16 46.4473 16 47C16 47.5527 16.4473 48 17 48Z"
        fill="black" />
    <path
        d="M17 51H20C20.5527 51 21 50.5527 21 50C21 49.4473 20.5527 49 20 49H17C16.4473 49 16 49.4473 16 50C16 50.5527 16.4473 51 17 51Z"
        fill="black" />
    <path
        d="M13.4316 36.3916C13.6875 36.3916 13.9434 36.2939 14.1387 36.0986C14.5293 35.708 14.5293 35.0752 14.1387 34.6846C11.0293 31.5752 5.9707 31.5752 2.86133 34.6846C2.4707 35.0752 2.4707 35.708 2.86133 36.0986C3.25195 36.4893 3.88477 36.4893 4.27539 36.0986C6.60547 33.7686 10.3945 33.7686 12.7246 36.0986C12.9199 36.2939 13.1758 36.3916 13.4316 36.3916Z"
        fill="black" />
    <path
        d="M2.70703 33.4014C5.90234 30.208 11.0977 30.208 14.293 33.4014C14.4883 33.5967 14.7441 33.6943 15 33.6943C15.2559 33.6943 15.5117 33.5967 15.707 33.4014C16.0977 33.0107 16.0977 32.3779 15.707 31.9873C11.7324 28.0127 5.26758 28.0127 1.29297 31.9873C0.902344 32.3779 0.902344 33.0107 1.29297 33.4014C1.68359 33.792 2.31641 33.792 2.70703 33.4014Z"
        fill="black" />
    <path
        d="M5.79297 36.6846C5.40234 37.0752 5.40234 37.708 5.79297 38.0986C6.18359 38.4893 6.81641 38.4893 7.20703 38.0986C7.91992 37.3857 9.08008 37.3857 9.79297 38.0986C9.98828 38.2939 10.2441 38.3916 10.5 38.3916C10.7559 38.3916 11.0117 38.2939 11.207 38.0986C11.5977 37.708 11.5977 37.0752 11.207 36.6846C9.71484 35.1924 7.28516 35.1924 5.79297 36.6846Z"
        fill="black" />
    <path
        d="M33 55H31C30.4473 55 30 55.4473 30 56C30 56.5527 30.4473 57 31 57H33C33.5527 57 34 56.5527 34 56C34 55.4473 33.5527 55 33 55Z"
        fill="black" />
    <path
        d="M38.919 53.9581L36.9873 54.4757C36.4541 54.6182 36.1377 55.1671 36.2803 55.7003C36.3994 56.1475 36.8037 56.4415 37.2451 56.4415C37.3311 56.4415 37.418 56.4307 37.5049 56.4073L39.4365 55.8897C39.9697 55.7471 40.2861 55.1983 40.1436 54.6651C40.002 54.1309 39.4531 53.8155 38.919 53.9581Z"
        fill="black" />
    <path
        d="M53.958 25.081L54.4756 27.0127C54.5947 27.4599 54.999 27.7539 55.4404 27.7539C55.5264 27.7539 55.6133 27.7431 55.7002 27.7197C56.2334 27.5771 56.5498 27.0283 56.4072 26.4951L55.8897 24.5635C55.7471 24.0293 55.1982 23.7148 54.665 23.8564C54.1318 23.999 53.8154 24.5478 53.958 25.081Z"
        fill="black" />
    <path
        d="M52.4179 21.3662C52.6035 21.6865 52.9394 21.8662 53.2851 21.8662C53.455 21.8662 53.6269 21.8232 53.7841 21.7324C54.2627 21.456 54.4267 20.8447 54.1504 20.3662L53.1504 18.6338C52.873 18.1552 52.2607 17.9912 51.7841 18.2675C51.3056 18.5439 51.1416 19.1552 51.4179 19.6338L52.4179 21.3662Z"
        fill="black" />
    <path
        d="M48.9707 16.4434C49.166 16.6387 49.4219 16.7363 49.6777 16.7363C49.9336 16.7363 50.1895 16.6387 50.3848 16.4434C50.7754 16.0527 50.7754 15.4199 50.3848 15.0293L48.9707 13.6152C48.5801 13.2246 47.9473 13.2246 47.5566 13.6152C47.166 14.0059 47.166 14.6387 47.5566 15.0293L48.9707 16.4434Z"
        fill="black" />
    <path
        d="M14.3223 16.7363C14.5781 16.7363 14.834 16.6387 15.0293 16.4434L16.4434 15.0293C16.834 14.6387 16.834 14.0059 16.4434 13.6152C16.0527 13.2246 15.4199 13.2246 15.0293 13.6152L13.6152 15.0293C13.2246 15.4199 13.2246 16.0527 13.6152 16.4434C13.8105 16.6387 14.0664 16.7363 14.3223 16.7363Z"
        fill="black" />
    <path
        d="M10.2158 21.7324C10.373 21.8232 10.5449 21.8662 10.7148 21.8662C11.0605 21.8662 11.3965 21.6865 11.582 21.3662L12.582 19.6338C12.8584 19.1552 12.6943 18.5439 12.2158 18.2675C11.7382 17.9912 11.1259 18.1552 10.8496 18.6338L9.84958 20.3662C9.57321 20.8447 9.73727 21.456 10.2158 21.7324Z"
        fill="black" />
    <path
        d="M8.29981 27.7196C8.38673 27.7431 8.47364 27.7538 8.55958 27.7538C9.00098 27.7538 9.40528 27.4599 9.52442 27.0126L10.042 25.0809C10.1846 24.5477 9.86817 23.9989 9.33497 23.8563C8.80176 23.7157 8.25294 24.0292 8.11036 24.5634L7.59278 26.495C7.4502 27.0282 7.76661 27.577 8.29981 27.7196Z"
        fill="black" />
    <path
        d="M27.0127 54.4756L25.0811 53.958C24.5508 53.8164 23.999 54.1308 23.8565 54.665C23.7139 55.1982 24.0303 55.7471 24.5635 55.8896L26.4951 56.4072C26.582 56.4306 26.669 56.4414 26.7549 56.4414C27.1963 56.4414 27.6006 56.1474 27.7197 55.7002C27.8623 55.167 27.5459 54.6181 27.0127 54.4756Z"
        fill="black" />
</svg>