<svg width="61" height="60" viewBox="0 0 61 60" fill="none" xmlns="http://www.w3.org/2000/svg">
<mask id="path-1-inside-1_22_1820" fill="white">
<path fill-rule="evenodd" clip-rule="evenodd" d="M0.373806 43.8806C0.456323 43.387 0.924742 43.0536 1.4201 43.1358C1.91533 43.218 2.24995 43.6848 2.16744 44.1785C1.8716 45.9495 1.86002 47.5471 2.1552 48.9153C2.42683 50.1743 2.96384 51.2368 3.78484 52.055C6.38842 54.6496 11.4366 54.4195 17.4937 51.9502C23.7855 49.3852 31.0787 44.4087 37.8817 37.6291L37.8818 37.629C44.6848 30.8494 49.6785 23.5815 52.2523 17.3113C54.7302 11.2752 54.961 6.24451 52.3575 3.64992C51.5922 2.88726 50.6157 2.37065 49.4668 2.08531C48.2197 1.77557 46.7724 1.73044 45.17 1.93174C44.6727 1.99438 44.2186 1.64354 44.1557 1.14794C44.0928 0.652343 44.4449 0.199807 44.9422 0.13716C46.7706 -0.0925446 48.4404 -0.0365127 49.901 0.326268C51.378 0.693069 52.6427 1.36636 53.6458 2.36611C56.8161 5.52556 56.6934 11.2657 53.9322 17.9923C51.2671 24.4847 46.1357 31.9713 39.1702 38.9128L39.1701 38.9129C32.2046 45.8544 24.692 50.9681 18.177 53.6241C11.4271 56.3759 5.66711 56.4981 2.49672 53.3388C1.42114 52.2669 0.722615 50.8978 0.375888 49.2911C0.032546 47.7003 0.0404852 45.8761 0.373806 43.8806ZM40.0292 13.5062C39.7667 13.2446 39.4038 13.0827 39.0029 13.0827C38.6022 13.0827 38.2392 13.2446 37.9767 13.5062C37.7142 13.7678 37.5518 14.1294 37.5518 14.5289C37.5518 14.9284 37.7142 15.29 37.9767 15.5516C38.2392 15.8133 38.6021 15.9751 39.0029 15.9751C39.4038 15.9751 39.7667 15.8133 40.0292 15.5516C40.2917 15.29 40.4541 14.9284 40.4541 14.5289C40.4541 14.1294 40.2917 13.7678 40.0292 13.5062ZM39.0029 11.2669C38.0992 11.2669 37.2808 11.6321 36.6884 12.2224C36.096 12.8128 35.7296 13.6283 35.7296 14.5289C35.7296 15.4296 36.096 16.245 36.6884 16.8354C37.2808 17.4257 38.0992 17.791 39.0029 17.791C39.9067 17.791 40.7251 17.4257 41.3175 16.8354C41.9098 16.2452 42.2763 15.4296 42.2763 14.5289C42.2763 13.6283 41.9099 12.8128 41.3175 12.2224C40.725 11.632 39.9067 11.2669 39.0029 11.2669ZM38.7803 9.75701C37.5365 9.75701 36.2933 10.2265 35.3511 11.1655L35.351 11.1656C34.409 12.1045 33.9378 13.3433 33.9378 14.5828C33.9378 14.8149 33.9543 15.0472 33.9874 15.2773L33.9875 15.2778L33.9878 15.2798C34.1316 16.2775 34.5861 17.2375 35.351 17.9999H35.3511L38.7803 21.4172L42.2094 17.9999C42.9744 17.2375 43.4289 16.2775 43.5727 15.2798L43.573 15.278V15.2773C43.6061 15.0471 43.6226 14.8149 43.6226 14.5828C43.6226 13.3433 43.1514 12.1044 42.2094 11.1656L42.2093 11.1655C41.2672 10.2265 40.0241 9.75701 38.7803 9.75701ZM17.8854 24.4756C17.6229 24.2139 17.2601 24.0521 16.8592 24.0521C16.4583 24.0521 16.0955 24.214 15.8329 24.4756C15.5704 24.7372 15.408 25.0989 15.408 25.4983C15.408 25.8978 15.5704 26.2593 15.8329 26.5211C16.0955 26.7827 16.4583 26.9445 16.8592 26.9445C17.2601 26.9445 17.6229 26.7827 17.8854 26.5211C18.148 26.2594 18.3104 25.8978 18.3104 25.4983C18.3104 25.0989 18.148 24.7372 17.8854 24.4756ZM16.8592 22.2363C15.9554 22.2363 15.137 22.6015 14.5447 23.1918C13.9524 23.7821 13.5858 24.5977 13.5858 25.4983C13.5858 26.399 13.9524 27.2146 14.5447 27.8049C15.137 28.3951 15.9554 28.7604 16.8592 28.7604C17.763 28.7604 18.5812 28.3951 19.1737 27.8049C19.7661 27.2146 20.1325 26.399 20.1325 25.4983C20.1325 24.5977 19.766 23.7821 19.1737 23.1918C18.5814 22.6015 17.763 22.2363 16.8592 22.2363ZM16.6365 20.7264C15.3928 20.7264 14.1495 21.1959 13.2074 22.1349L13.2072 22.135C12.2651 23.0739 11.794 24.3127 11.794 25.5522C11.794 26.7916 12.2652 28.0304 13.2072 28.9693L16.6365 32.3866L20.0656 28.9693C21.0078 28.0304 21.479 26.7916 21.479 25.5522C21.479 24.3127 21.0079 23.0738 20.0658 22.135L20.0656 22.1349C19.1236 21.1958 17.8804 20.7264 16.6365 20.7264ZM57.8896 22.5846C58.4608 26.0186 58.45 29.5599 57.8109 33.0532C57.1962 36.4137 55.9998 39.7332 54.181 42.8735L54.1794 42.8726C50.962 48.426 46.266 52.5947 40.8749 55.1692C35.3218 57.8211 29.0307 58.7852 22.8575 57.8328C22.3623 57.7564 21.8986 58.0946 21.8219 58.5882C21.7452 59.0817 22.0847 59.5438 22.5799 59.6202C29.1172 60.6288 35.7786 59.6083 41.6578 56.8006C47.3723 54.0716 52.3474 49.6576 55.7523 43.7806L55.7507 43.7797L55.7523 43.7771C57.6783 40.4525 58.9456 36.9353 59.5972 33.3724C60.2743 29.6708 60.2867 25.9232 59.683 22.2938C59.6025 21.8002 59.1356 21.4651 58.6402 21.5455C58.1453 21.6257 57.8091 22.0909 57.8896 22.5846ZM48.594 16.3239H45.2143C44.9214 17.4098 44.3491 18.4351 43.4976 19.2837L43.4975 19.2839L39.9934 22.7759C40.0512 23.5065 40.0978 24.2768 40.1324 25.0865C40.1733 26.0388 40.1941 26.9623 40.1941 27.8525C40.1941 28.1647 40.1907 28.5027 40.1842 28.866C41.6669 27.1091 43.0235 25.3446 44.2443 23.5966C45.9785 21.1136 47.4379 18.6662 48.594 16.3239ZM27.2208 41.1967H19.3001C19.6925 42.7697 20.1527 44.2361 20.6711 45.5729C21.7718 44.9354 22.8882 44.2384 24.0138 43.4842C25.0765 42.7721 26.1474 42.0089 27.2208 41.1967ZM19.2998 14.508H32.1162C32.1348 12.8297 32.7837 11.1564 34.0627 9.88165L34.0629 9.88152C34.3676 9.57789 34.6949 9.31005 35.0395 9.07762C34.1071 6.92934 33.0217 5.19183 31.8317 3.98144C30.6513 2.78091 29.3788 2.11618 28.0712 2.11618C25.9485 2.11618 23.9265 3.85796 22.2353 6.80703C21.054 8.86685 20.053 11.4875 19.2998 14.508ZM32.3462 16.3239H18.8871C18.6994 17.2342 18.5331 18.1746 18.3899 19.1418C19.4773 19.4342 20.504 20.004 21.354 20.8511L21.3541 20.8512C22.6521 22.1447 23.3012 23.8489 23.3012 25.5522C23.3012 27.2554 22.6521 28.9596 21.3541 30.2531L18.0319 33.5638C18.2225 35.6104 18.512 37.5595 18.8872 39.381H29.5245C31.4965 37.7637 33.4643 35.9868 35.3938 34.064C36.4011 33.0602 37.3688 32.0454 38.2948 31.0247C38.3195 30.5386 38.3385 30.0652 38.3511 29.6051C38.3651 29.1023 38.3721 28.5185 38.3721 27.8525C38.3721 26.899 38.3536 26.0006 38.3174 25.1575C38.2931 24.5887 38.2591 24.007 38.2158 23.4136C38.1882 23.392 38.1616 23.3683 38.1361 23.3431L34.0629 19.2839L34.0627 19.2837C33.2113 18.4351 32.639 17.4098 32.3462 16.3239ZM5.63874 41.1967C7.50356 44.3247 10.0478 47.0037 13.1441 49.083C15.0212 48.4422 17.0107 47.5635 19.0683 46.465C18.4381 44.8768 17.887 43.1087 17.4304 41.1967H5.63874ZM4.78272 16.3239C3.0487 19.7961 2.07334 23.7108 2.07334 27.8523C2.07334 32.0446 2.9831 35.9443 4.65752 39.3808H17.0337C16.725 37.8277 16.4769 36.1993 16.2967 34.5127C16.1859 34.4684 16.082 34.4016 15.9922 34.3122L11.919 30.253C10.621 28.9595 9.9719 27.2553 9.9719 25.552C9.9719 23.8488 10.621 22.1446 11.919 20.8511C13.2049 19.5696 14.8951 18.9229 16.5882 18.9108C16.7185 18.0272 16.8676 17.164 17.0344 16.3239H4.78272ZM23.3682 2.36767C18.0743 3.33163 13.3401 5.89301 9.68791 9.53262C8.19298 11.0223 6.87974 12.6928 5.78295 14.5082H17.4309C18.2369 11.1339 19.3392 8.20095 20.6551 5.90637C21.4765 4.47418 22.3868 3.28039 23.3682 2.36767ZM49.8132 13.6194C47.5145 10.0614 44.392 7.15191 40.7025 5.12685C38.2745 3.79428 35.5996 2.84524 32.7509 2.34692C32.8774 2.46391 33.0029 2.58557 33.1271 2.7119C34.4596 4.06744 35.6587 5.96409 36.6724 8.27839C37.3552 8.05361 38.0678 7.94116 38.7803 7.94116C40.4896 7.94116 42.1995 8.58799 43.4976 9.88152L43.4978 9.88165C44.7768 11.1564 45.4257 12.8297 45.4443 14.508H49.4387C49.5689 14.2097 49.6937 13.9135 49.8132 13.6194ZM28.0712 53.7605C29.5 53.7605 30.8892 52.9506 32.1636 51.506C32.9939 50.5647 33.7686 49.3642 34.4703 47.9468C33.8533 48.4425 33.2359 48.9233 32.6188 49.3887C30.4574 51.0192 28.3009 52.4601 26.1922 53.6942C26.8109 53.738 27.4376 53.7605 28.0712 53.7605ZM50.3593 41.1967H41.89C41.6147 41.4787 41.3365 41.76 41.0551 42.0403C39.8869 43.2044 38.7028 44.3177 37.5101 45.3768C36.4356 48.4334 35.0795 50.9485 33.5302 52.7047C33.3452 52.9143 33.1574 53.1132 32.9667 53.3016C38.1829 52.311 42.8465 49.7677 46.4544 46.1722C47.9492 44.6825 49.2626 43.0119 50.3593 41.1967ZM53.9132 25.1542C52.6648 27.501 51.1405 29.9277 49.3658 32.372C47.6685 34.7099 45.7428 37.0644 43.6113 39.3808H51.3596C53.0937 35.9086 54.0689 31.994 54.0689 27.8523C54.0689 27.01 54.0116 26.0897 53.9165 25.1854L53.9132 25.1542Z"/>
</mask>
<path fill-rule="evenodd" clip-rule="evenodd" d="M0.373806 43.8806C0.456323 43.387 0.924742 43.0536 1.4201 43.1358C1.91533 43.218 2.24995 43.6848 2.16744 44.1785C1.8716 45.9495 1.86002 47.5471 2.1552 48.9153C2.42683 50.1743 2.96384 51.2368 3.78484 52.055C6.38842 54.6496 11.4366 54.4195 17.4937 51.9502C23.7855 49.3852 31.0787 44.4087 37.8817 37.6291L37.8818 37.629C44.6848 30.8494 49.6785 23.5815 52.2523 17.3113C54.7302 11.2752 54.961 6.24451 52.3575 3.64992C51.5922 2.88726 50.6157 2.37065 49.4668 2.08531C48.2197 1.77557 46.7724 1.73044 45.17 1.93174C44.6727 1.99438 44.2186 1.64354 44.1557 1.14794C44.0928 0.652343 44.4449 0.199807 44.9422 0.13716C46.7706 -0.0925446 48.4404 -0.0365127 49.901 0.326268C51.378 0.693069 52.6427 1.36636 53.6458 2.36611C56.8161 5.52556 56.6934 11.2657 53.9322 17.9923C51.2671 24.4847 46.1357 31.9713 39.1702 38.9128L39.1701 38.9129C32.2046 45.8544 24.692 50.9681 18.177 53.6241C11.4271 56.3759 5.66711 56.4981 2.49672 53.3388C1.42114 52.2669 0.722615 50.8978 0.375888 49.2911C0.032546 47.7003 0.0404852 45.8761 0.373806 43.8806ZM40.0292 13.5062C39.7667 13.2446 39.4038 13.0827 39.0029 13.0827C38.6022 13.0827 38.2392 13.2446 37.9767 13.5062C37.7142 13.7678 37.5518 14.1294 37.5518 14.5289C37.5518 14.9284 37.7142 15.29 37.9767 15.5516C38.2392 15.8133 38.6021 15.9751 39.0029 15.9751C39.4038 15.9751 39.7667 15.8133 40.0292 15.5516C40.2917 15.29 40.4541 14.9284 40.4541 14.5289C40.4541 14.1294 40.2917 13.7678 40.0292 13.5062ZM39.0029 11.2669C38.0992 11.2669 37.2808 11.6321 36.6884 12.2224C36.096 12.8128 35.7296 13.6283 35.7296 14.5289C35.7296 15.4296 36.096 16.245 36.6884 16.8354C37.2808 17.4257 38.0992 17.791 39.0029 17.791C39.9067 17.791 40.7251 17.4257 41.3175 16.8354C41.9098 16.2452 42.2763 15.4296 42.2763 14.5289C42.2763 13.6283 41.9099 12.8128 41.3175 12.2224C40.725 11.632 39.9067 11.2669 39.0029 11.2669ZM38.7803 9.75701C37.5365 9.75701 36.2933 10.2265 35.3511 11.1655L35.351 11.1656C34.409 12.1045 33.9378 13.3433 33.9378 14.5828C33.9378 14.8149 33.9543 15.0472 33.9874 15.2773L33.9875 15.2778L33.9878 15.2798C34.1316 16.2775 34.5861 17.2375 35.351 17.9999H35.3511L38.7803 21.4172L42.2094 17.9999C42.9744 17.2375 43.4289 16.2775 43.5727 15.2798L43.573 15.278V15.2773C43.6061 15.0471 43.6226 14.8149 43.6226 14.5828C43.6226 13.3433 43.1514 12.1044 42.2094 11.1656L42.2093 11.1655C41.2672 10.2265 40.0241 9.75701 38.7803 9.75701ZM17.8854 24.4756C17.6229 24.2139 17.2601 24.0521 16.8592 24.0521C16.4583 24.0521 16.0955 24.214 15.8329 24.4756C15.5704 24.7372 15.408 25.0989 15.408 25.4983C15.408 25.8978 15.5704 26.2593 15.8329 26.5211C16.0955 26.7827 16.4583 26.9445 16.8592 26.9445C17.2601 26.9445 17.6229 26.7827 17.8854 26.5211C18.148 26.2594 18.3104 25.8978 18.3104 25.4983C18.3104 25.0989 18.148 24.7372 17.8854 24.4756ZM16.8592 22.2363C15.9554 22.2363 15.137 22.6015 14.5447 23.1918C13.9524 23.7821 13.5858 24.5977 13.5858 25.4983C13.5858 26.399 13.9524 27.2146 14.5447 27.8049C15.137 28.3951 15.9554 28.7604 16.8592 28.7604C17.763 28.7604 18.5812 28.3951 19.1737 27.8049C19.7661 27.2146 20.1325 26.399 20.1325 25.4983C20.1325 24.5977 19.766 23.7821 19.1737 23.1918C18.5814 22.6015 17.763 22.2363 16.8592 22.2363ZM16.6365 20.7264C15.3928 20.7264 14.1495 21.1959 13.2074 22.1349L13.2072 22.135C12.2651 23.0739 11.794 24.3127 11.794 25.5522C11.794 26.7916 12.2652 28.0304 13.2072 28.9693L16.6365 32.3866L20.0656 28.9693C21.0078 28.0304 21.479 26.7916 21.479 25.5522C21.479 24.3127 21.0079 23.0738 20.0658 22.135L20.0656 22.1349C19.1236 21.1958 17.8804 20.7264 16.6365 20.7264ZM57.8896 22.5846C58.4608 26.0186 58.45 29.5599 57.8109 33.0532C57.1962 36.4137 55.9998 39.7332 54.181 42.8735L54.1794 42.8726C50.962 48.426 46.266 52.5947 40.8749 55.1692C35.3218 57.8211 29.0307 58.7852 22.8575 57.8328C22.3623 57.7564 21.8986 58.0946 21.8219 58.5882C21.7452 59.0817 22.0847 59.5438 22.5799 59.6202C29.1172 60.6288 35.7786 59.6083 41.6578 56.8006C47.3723 54.0716 52.3474 49.6576 55.7523 43.7806L55.7507 43.7797L55.7523 43.7771C57.6783 40.4525 58.9456 36.9353 59.5972 33.3724C60.2743 29.6708 60.2867 25.9232 59.683 22.2938C59.6025 21.8002 59.1356 21.4651 58.6402 21.5455C58.1453 21.6257 57.8091 22.0909 57.8896 22.5846ZM48.594 16.3239H45.2143C44.9214 17.4098 44.3491 18.4351 43.4976 19.2837L43.4975 19.2839L39.9934 22.7759C40.0512 23.5065 40.0978 24.2768 40.1324 25.0865C40.1733 26.0388 40.1941 26.9623 40.1941 27.8525C40.1941 28.1647 40.1907 28.5027 40.1842 28.866C41.6669 27.1091 43.0235 25.3446 44.2443 23.5966C45.9785 21.1136 47.4379 18.6662 48.594 16.3239ZM27.2208 41.1967H19.3001C19.6925 42.7697 20.1527 44.2361 20.6711 45.5729C21.7718 44.9354 22.8882 44.2384 24.0138 43.4842C25.0765 42.7721 26.1474 42.0089 27.2208 41.1967ZM19.2998 14.508H32.1162C32.1348 12.8297 32.7837 11.1564 34.0627 9.88165L34.0629 9.88152C34.3676 9.57789 34.6949 9.31005 35.0395 9.07762C34.1071 6.92934 33.0217 5.19183 31.8317 3.98144C30.6513 2.78091 29.3788 2.11618 28.0712 2.11618C25.9485 2.11618 23.9265 3.85796 22.2353 6.80703C21.054 8.86685 20.053 11.4875 19.2998 14.508ZM32.3462 16.3239H18.8871C18.6994 17.2342 18.5331 18.1746 18.3899 19.1418C19.4773 19.4342 20.504 20.004 21.354 20.8511L21.3541 20.8512C22.6521 22.1447 23.3012 23.8489 23.3012 25.5522C23.3012 27.2554 22.6521 28.9596 21.3541 30.2531L18.0319 33.5638C18.2225 35.6104 18.512 37.5595 18.8872 39.381H29.5245C31.4965 37.7637 33.4643 35.9868 35.3938 34.064C36.4011 33.0602 37.3688 32.0454 38.2948 31.0247C38.3195 30.5386 38.3385 30.0652 38.3511 29.6051C38.3651 29.1023 38.3721 28.5185 38.3721 27.8525C38.3721 26.899 38.3536 26.0006 38.3174 25.1575C38.2931 24.5887 38.2591 24.007 38.2158 23.4136C38.1882 23.392 38.1616 23.3683 38.1361 23.3431L34.0629 19.2839L34.0627 19.2837C33.2113 18.4351 32.639 17.4098 32.3462 16.3239ZM5.63874 41.1967C7.50356 44.3247 10.0478 47.0037 13.1441 49.083C15.0212 48.4422 17.0107 47.5635 19.0683 46.465C18.4381 44.8768 17.887 43.1087 17.4304 41.1967H5.63874ZM4.78272 16.3239C3.0487 19.7961 2.07334 23.7108 2.07334 27.8523C2.07334 32.0446 2.9831 35.9443 4.65752 39.3808H17.0337C16.725 37.8277 16.4769 36.1993 16.2967 34.5127C16.1859 34.4684 16.082 34.4016 15.9922 34.3122L11.919 30.253C10.621 28.9595 9.9719 27.2553 9.9719 25.552C9.9719 23.8488 10.621 22.1446 11.919 20.8511C13.2049 19.5696 14.8951 18.9229 16.5882 18.9108C16.7185 18.0272 16.8676 17.164 17.0344 16.3239H4.78272ZM23.3682 2.36767C18.0743 3.33163 13.3401 5.89301 9.68791 9.53262C8.19298 11.0223 6.87974 12.6928 5.78295 14.5082H17.4309C18.2369 11.1339 19.3392 8.20095 20.6551 5.90637C21.4765 4.47418 22.3868 3.28039 23.3682 2.36767ZM49.8132 13.6194C47.5145 10.0614 44.392 7.15191 40.7025 5.12685C38.2745 3.79428 35.5996 2.84524 32.7509 2.34692C32.8774 2.46391 33.0029 2.58557 33.1271 2.7119C34.4596 4.06744 35.6587 5.96409 36.6724 8.27839C37.3552 8.05361 38.0678 7.94116 38.7803 7.94116C40.4896 7.94116 42.1995 8.58799 43.4976 9.88152L43.4978 9.88165C44.7768 11.1564 45.4257 12.8297 45.4443 14.508H49.4387C49.5689 14.2097 49.6937 13.9135 49.8132 13.6194ZM28.0712 53.7605C29.5 53.7605 30.8892 52.9506 32.1636 51.506C32.9939 50.5647 33.7686 49.3642 34.4703 47.9468C33.8533 48.4425 33.2359 48.9233 32.6188 49.3887C30.4574 51.0192 28.3009 52.4601 26.1922 53.6942C26.8109 53.738 27.4376 53.7605 28.0712 53.7605ZM50.3593 41.1967H41.89C41.6147 41.4787 41.3365 41.76 41.0551 42.0403C39.8869 43.2044 38.7028 44.3177 37.5101 45.3768C36.4356 48.4334 35.0795 50.9485 33.5302 52.7047C33.3452 52.9143 33.1574 53.1132 32.9667 53.3016C38.1829 52.311 42.8465 49.7677 46.4544 46.1722C47.9492 44.6825 49.2626 43.0119 50.3593 41.1967ZM53.9132 25.1542C52.6648 27.501 51.1405 29.9277 49.3658 32.372C47.6685 34.7099 45.7428 37.0644 43.6113 39.3808H51.3596C53.0937 35.9086 54.0689 31.994 54.0689 27.8523C54.0689 27.01 54.0116 26.0897 53.9165 25.1854L53.9132 25.1542Z" fill="#FFD550" stroke="black" stroke-width="2" mask="url(#path-1-inside-1_22_1820)"/>
</svg>
