<svg width="52" height="56" viewBox="0 0 52 56" fill="none" xmlns="http://www.w3.org/2000/svg">
<path d="M25.7812 7.16494V1" stroke="#1C1F35" stroke-width="2" stroke-linecap="round" stroke-linejoin="round"/>
<path d="M50.4406 35.9345C46.6903 49.035 29.3257 53.6073 26.2432 54.3265C25.9398 54.4037 25.6219 54.4037 25.3185 54.3265C22.236 53.6073 4.87143 49.035 1.12109 35.9345V27.1494C1.12106 26.7167 1.25761 26.295 1.5113 25.9445C1.76499 25.594 2.12285 25.3324 2.53389 25.1972L25.1387 17.6452C25.5571 17.5164 26.0046 17.5164 26.423 17.6452L49.0278 25.1972C49.4388 25.3324 49.7967 25.594 50.0504 25.9445C50.3041 26.295 50.4406 26.7167 50.4406 27.1494V35.9345Z" stroke="#1C1F35" stroke-width="2" stroke-linecap="round" stroke-linejoin="round"/>
<path d="M26.2482 47.6652C23.8094 47.1036 10.0707 43.5341 7.10352 33.3066" stroke="#1C1F35" stroke-width="2" stroke-linecap="round" stroke-linejoin="round"/>
<path d="M7.10352 9.98267V23.136L25.6499 16.555L44.1963 23.136V9.98267C44.1963 8.32581 42.8532 6.98267 41.1963 6.98267H10.1035C8.44666 6.98267 7.10352 8.32581 7.10352 9.98267Z" fill="#FFD550" stroke="#1C1F35" stroke-width="2"/>
<path d="M25.7812 37.9898V17.5427" stroke="#1C1F35" stroke-width="2" stroke-linecap="round" stroke-linejoin="round"/>
<path d="M31.0352 36.8963L31.0352 28.5205" stroke="#1C1F35" stroke-width="2" stroke-linecap="round" stroke-linejoin="round"/>
<path d="M11.8896 17.7515V11.7688" stroke="#1C1F35" stroke-width="2" stroke-linecap="round" stroke-linejoin="round"/>
<path d="M48.9824 20.1446V9.37573" stroke="#1C1F35" stroke-width="2" stroke-linecap="round" stroke-linejoin="round"/>
</svg>
