<svg width="57" height="46" viewBox="0 0 57 46" fill="none" xmlns="http://www.w3.org/2000/svg">
<path d="M2.45486 45H54.8358" stroke="#141414" stroke-width="2" stroke-linecap="round" stroke-linejoin="round"/>
<path d="M32.8358 45V2.91304C32.8358 2.40567 32.6308 1.91908 32.266 1.56032C31.9011 1.20155 31.4062 1 30.8902 1H7.5433C7.0273 1 6.53243 1.20155 6.16756 1.56032C5.8027 1.91908 5.59772 2.40567 5.59772 2.91304V45" stroke="#141414" stroke-width="2" stroke-linecap="round" stroke-linejoin="round"/>
<path d="M32.8358 13.5715H48.693C50.3498 13.5715 51.693 14.9147 51.693 16.5715V43.9525H32.8358V13.5715Z" fill="#FFD550" stroke="#141414" stroke-width="2" stroke-linecap="round" stroke-linejoin="round"/>
<path d="M13.9787 10.4285H21.312" stroke="#141414" stroke-width="2" stroke-linecap="round" stroke-linejoin="round"/>
<path d="M1.40723 40.8096L1.40723 26.1429" stroke="#141414" stroke-width="2" stroke-linecap="round" stroke-linejoin="round"/>
<path d="M55.8838 30.3333L55.8838 15.6666" stroke="#141414" stroke-width="2" stroke-linecap="round" stroke-linejoin="round"/>
<path d="M35.9787 9.38086L43.312 9.38086" stroke="#141414" stroke-width="2" stroke-linecap="round" stroke-linejoin="round"/>
<path d="M17.1211 26.1428H24.4544" stroke="#141414" stroke-width="2" stroke-linecap="round" stroke-linejoin="round"/>
<path d="M13.9787 35.5715H21.312" stroke="#141414" stroke-width="2" stroke-linecap="round" stroke-linejoin="round"/>
<path d="M40.1691 35.5715H44.3596" stroke="#141414" stroke-width="2" stroke-linecap="round" stroke-linejoin="round"/>
<path d="M40.1691 26.1428H44.3596" stroke="#141414" stroke-width="2" stroke-linecap="round" stroke-linejoin="round"/>
</svg>
