<svg width="76" height="115" viewBox="0 0 76 115" fill="none" xmlns="http://www.w3.org/2000/svg">
<path d="M8.81641 37.8877L14.8316 43.9029" stroke="#3244CA" stroke-width="2" stroke-linecap="round" stroke-linejoin="round"/>
<mask id="path-2-inside-1_22_1807" fill="white">
<path d="M66.6235 26.3995C66.3163 26.2042 65.9282 26.1781 65.5975 26.3318L51.1683 33.0761C50.9079 33.1985 50.7074 33.4198 50.611 33.6907C50.5876 33.7584 50.5719 33.8287 50.5615 33.899C47.4132 32.722 42.5386 31.0762 41.8406 30.8419C41.5047 30.7299 41.1089 30.6049 40.6662 30.5815C40.2236 30.5606 39.8121 30.6388 39.4814 30.7039L32.0991 32.1543C31.8492 32.2038 31.4325 32.2845 31.0731 32.5996C30.8596 32.7871 30.732 32.9954 30.6435 33.1621C28.2842 33.2767 25.9145 33.4147 23.5685 33.5657C23.4617 33.3548 23.2899 33.1803 23.0711 33.0787L8.64188 26.3344C8.31117 26.1808 7.92318 26.2042 7.61586 26.4021C7.30858 26.5974 7.12109 26.9386 7.12109 27.3032V43.2683C7.12109 43.6798 7.35806 44.0548 7.73044 44.2318L15.6834 48.0311C15.8318 48.1014 15.988 48.1352 16.1443 48.1352C16.5375 48.1352 16.915 47.9165 17.1026 47.5415L17.2588 47.229C17.4697 47.3592 17.6781 47.479 17.876 47.591L20.1206 48.8539C20.0165 48.9607 19.9097 49.0701 19.8186 49.1742C19.204 49.8721 18.8525 50.6586 18.8056 51.4502C18.7431 52.497 19.2431 53.4865 20.0816 53.9761C20.4748 54.2053 20.9279 54.3225 21.4045 54.3225C21.618 54.3225 21.8342 54.2964 22.0529 54.2495C22.0529 54.2574 22.0503 54.2652 22.0503 54.273C21.98 55.437 22.5346 56.5411 23.4643 57.0854C23.9018 57.3406 24.4017 57.4682 24.9329 57.4682C25.2454 57.4682 25.5657 57.4187 25.8886 57.3301C25.8392 58.5306 26.412 59.6582 27.3704 60.218C27.8209 60.481 28.3521 60.6112 28.9093 60.6112C29.3937 60.6112 29.9015 60.507 30.3963 60.3091C30.5343 60.981 30.9327 61.5695 31.503 61.9028C31.8624 62.1111 32.2712 62.2179 32.7009 62.2179C33.1123 62.2179 33.5394 62.1215 33.9612 61.9314C34.831 61.5382 35.5731 60.8924 36.2033 60.3169C36.5548 59.9966 37.0418 59.5488 37.4532 59.0149C38.7032 59.4706 41.828 60.5226 42.9972 60.5226C43.1092 60.5226 43.2029 60.5122 43.2732 60.4914C44.1482 60.244 45.3565 59.5383 46.1272 58.5358C46.6793 58.7285 47.1246 58.8456 47.385 58.8639C47.4969 58.8717 47.6271 58.8795 47.7678 58.8795C48.0672 58.8795 48.4188 58.843 48.7651 58.679C49.713 58.2311 49.9708 57.1973 50.0958 56.6999C50.0958 56.6973 50.114 56.6192 50.1348 56.4942C50.4161 56.5905 50.6452 56.6504 50.7937 56.6608C50.8952 56.6686 51.015 56.6765 51.1504 56.6765C51.4785 56.6765 51.8874 56.627 52.2831 56.3822C53.1034 55.8744 53.3664 54.9005 53.5461 54.0255C53.5487 54.0177 53.6294 53.6141 53.6476 53.1037C53.9653 53.1532 54.2856 53.187 54.6163 53.187C54.934 53.187 55.2569 53.161 55.585 53.1063C56.8688 52.8902 57.7984 52.0803 58.0771 50.9345C58.3844 49.6611 57.8141 48.2316 56.6605 47.3722C56.6396 47.3566 56.6162 47.341 56.5954 47.3253C56.7152 47.2706 56.835 47.2212 56.9521 47.1639L57.1396 47.5415C57.3271 47.9164 57.7047 48.1352 58.0979 48.1352C58.2515 48.1352 58.4104 48.1013 58.5588 48.031L66.5117 44.2318C66.8841 44.0547 67.1211 43.6797 67.1211 43.2683V27.3031C67.1211 26.9385 66.9336 26.5974 66.6263 26.4021L66.6235 26.3995ZM21.0919 52.2448C20.9122 52.1407 20.7898 51.8516 20.808 51.573C20.8289 51.2371 21.0112 50.8569 21.3236 50.5001C22.1335 49.5809 23.6569 48.4039 24.8886 48.0315C25.0683 47.9768 25.2297 47.9508 25.3573 47.9508C25.4615 47.9508 25.5422 47.969 25.5995 48.0029C25.6854 48.0575 25.7531 48.1643 25.7662 48.2659C25.8625 48.9976 24.5995 50.1512 24.0605 50.6433C23.4407 51.2084 22.7194 51.8386 21.9877 52.1719C21.6413 52.3308 21.2898 52.3568 21.0945 52.2422L21.0919 52.2448ZM24.4719 55.3541C24.2037 55.1978 24.024 54.7942 24.0501 54.3958C24.0761 53.9609 24.3079 53.474 24.7011 53.026C25.6958 51.8985 27.4848 50.5184 28.9847 50.0653C29.1384 50.0184 29.3701 49.9611 29.5888 49.9611C29.7295 49.9611 29.8649 49.9845 29.969 50.0522C30.1149 50.146 30.2242 50.3152 30.2477 50.4897C30.3753 51.4454 28.8389 52.849 28.1826 53.4453C27.4431 54.1197 26.5812 54.8749 25.6932 55.2759C25.227 55.4895 24.761 55.5181 24.4771 55.3515L24.4719 55.3541ZM28.378 58.4867C28.0603 58.3018 27.8598 57.8513 27.8884 57.3904C27.9171 56.9061 28.1723 56.3697 28.6045 55.8775C29.6774 54.6588 31.6122 53.1693 33.2319 52.6797C33.4011 52.6276 33.6563 52.5652 33.9011 52.5652C34.0652 52.5652 34.224 52.5938 34.349 52.6719C34.5235 52.7839 34.6537 52.987 34.6823 53.1927C34.8229 54.2552 33.2163 55.7239 32.4428 56.4296C31.646 57.156 30.7137 57.9711 29.7528 58.4087C29.344 58.5935 28.7685 58.7133 28.3805 58.4868L28.378 58.4867ZM34.8464 58.8356C34.3308 59.307 33.7292 59.833 33.1277 60.1038C32.8569 60.2262 32.6121 60.2288 32.5106 60.1715C32.422 60.1194 32.3335 59.9397 32.3439 59.7418C32.3595 59.4892 32.5002 59.2002 32.7423 58.9267C33.5314 58.0309 34.8021 57.1507 35.6927 56.88C35.8516 56.8331 35.9661 56.8175 36.0443 56.8175C36.1146 56.8175 36.1536 56.8279 36.1666 56.8383C36.2005 56.8617 36.2344 56.9112 36.2396 56.9503C36.3099 57.4919 35.2058 58.5023 34.8412 58.8356L34.8464 58.8356ZM56.1266 50.4661C56.0407 50.8228 55.7464 51.0468 55.2543 51.1301C53.546 51.4191 51.8326 50.4505 50.3196 49.6015C48.5932 48.6302 46.95 47.4975 45.4293 46.2345C45.0048 45.8803 44.3721 45.9376 44.0153 46.3647C43.6612 46.7891 43.7184 47.4219 44.1455 47.7761C45.7574 49.1171 47.5047 50.3202 49.3354 51.3488C50.0307 51.7394 50.7988 52.1665 51.6217 52.5128V52.5154C51.6556 52.781 51.6243 53.406 51.5801 53.6195C51.416 54.4163 51.2858 54.6273 51.2519 54.6637C51.1973 54.6793 51.0176 54.6663 50.9499 54.6611C49.8614 54.4997 43.7443 51.1405 43.0283 49.9712C42.7392 49.4999 42.1221 49.3515 41.6482 49.6405C41.1768 49.9296 41.0284 50.5467 41.3175 51.0206C42.1039 52.307 45.6141 54.4189 48.1818 55.661C48.1896 55.8459 48.1713 56.1089 48.1479 56.2131C48.0255 56.7052 47.937 56.8354 47.9161 56.8615C47.8484 56.8849 47.6219 56.8693 47.5177 56.8641C46.5386 56.7625 40.7341 54.1012 39.9555 53.1247C39.6091 52.6924 38.9816 52.6195 38.5467 52.9658C38.1144 53.3096 38.0415 53.9423 38.3878 54.3746C39.0987 55.2652 41.8225 56.7286 44.1349 57.7442C43.7339 58.101 43.247 58.3848 42.8433 58.5255C42.1532 58.4343 39.5102 57.6583 38.2394 57.1844C38.2524 57.023 38.2524 56.8589 38.229 56.6896C38.1457 56.0647 37.7785 55.4866 37.2473 55.148C37.0311 55.01 36.7264 54.8798 36.3358 54.833C36.6093 54.234 36.7551 53.5934 36.6665 52.9294C36.5624 52.1378 36.0963 51.4087 35.4244 50.9816C34.9088 50.6534 34.013 50.3488 32.6511 50.7576C32.5131 50.7993 32.3751 50.8566 32.237 50.9086C32.2605 50.6847 32.2631 50.4581 32.2318 50.229C32.1329 49.4712 31.6876 48.7733 31.0444 48.3645C30.5523 48.0494 29.6956 47.7578 28.4014 48.1484C28.193 48.2109 27.9821 48.2916 27.7712 48.3775C27.7738 48.2551 27.7686 48.1301 27.7504 48.0051C27.6592 47.3177 27.2556 46.6849 26.6723 46.3125C26.227 46.0287 25.4588 45.7631 24.3052 46.112C23.4433 46.3724 22.5423 46.8801 21.735 47.4635L18.855 45.8437C18.605 45.7031 18.3732 45.5625 18.1545 45.4193L23.0318 35.6098C25.1515 35.4692 27.292 35.3468 29.4325 35.2348C29.0159 35.8832 28.5706 36.516 28.1045 37.1227C27.5082 37.8987 26.6905 38.9637 26.9301 40.2762C27.1853 41.6746 28.5341 42.4818 29.7346 42.5574C29.8153 42.5626 29.8934 42.5652 29.9742 42.5652C31.0236 42.5652 31.9767 42.1355 32.7058 41.7527C33.9766 41.0809 35.0338 40.297 35.8723 39.4195C37.6014 39.4455 42.1845 39.7736 44.2572 41.0053C44.4577 41.1251 44.6557 41.2501 44.8509 41.3777C46.7077 42.5808 48.5252 43.9374 50.2829 45.2499L50.8897 45.703C51.6578 46.2759 52.4391 46.8279 53.2203 47.38C53.9703 47.9086 54.7202 48.4398 55.4546 48.9867C56.0483 49.4294 56.2149 50.0648 56.1186 50.4684L56.1266 50.4661ZM54.6032 45.896C54.5303 45.8439 54.46 45.7918 54.3871 45.7397C53.6189 45.1981 52.8507 44.6539 52.0955 44.0913L51.4888 43.6382C49.705 42.305 47.8588 40.93 45.9474 39.6905C45.7287 39.5499 45.5073 39.4093 45.286 39.2765C43.0726 37.9614 39.1222 37.5734 37.0804 37.4588C37.0518 37.1646 36.8981 36.8859 36.6325 36.7141C36.169 36.412 35.5466 36.5474 35.2446 37.0109C34.5076 38.1489 33.3384 39.1462 31.7708 39.9769C31.1875 40.2842 30.5001 40.6019 29.8647 40.555C29.4038 40.5264 28.9636 40.2321 28.9064 39.917C28.8257 39.4795 29.31 38.8519 29.698 38.3468C30.7006 37.0422 31.6016 35.6386 32.3749 34.1751C32.3801 34.1647 32.3854 34.1517 32.3932 34.1413C32.4244 34.1361 32.4531 34.1308 32.4843 34.123L39.8693 32.6726C40.1245 32.6231 40.364 32.5736 40.5594 32.5866C40.7495 32.5971 40.9812 32.67 41.2026 32.7455C44.2753 33.7793 49.7174 35.6594 51.6367 36.4745L56.0609 45.37C55.6 45.607 55.1078 45.7789 54.6053 45.896L54.6032 45.896Z"/>
</mask>
<path d="M66.6235 26.3995C66.3163 26.2042 65.9282 26.1781 65.5975 26.3318L51.1683 33.0761C50.9079 33.1985 50.7074 33.4198 50.611 33.6907C50.5876 33.7584 50.5719 33.8287 50.5615 33.899C47.4132 32.722 42.5386 31.0762 41.8406 30.8419C41.5047 30.7299 41.1089 30.6049 40.6662 30.5815C40.2236 30.5606 39.8121 30.6388 39.4814 30.7039L32.0991 32.1543C31.8492 32.2038 31.4325 32.2845 31.0731 32.5996C30.8596 32.7871 30.732 32.9954 30.6435 33.1621C28.2842 33.2767 25.9145 33.4147 23.5685 33.5657C23.4617 33.3548 23.2899 33.1803 23.0711 33.0787L8.64188 26.3344C8.31117 26.1808 7.92318 26.2042 7.61586 26.4021C7.30858 26.5974 7.12109 26.9386 7.12109 27.3032V43.2683C7.12109 43.6798 7.35806 44.0548 7.73044 44.2318L15.6834 48.0311C15.8318 48.1014 15.988 48.1352 16.1443 48.1352C16.5375 48.1352 16.915 47.9165 17.1026 47.5415L17.2588 47.229C17.4697 47.3592 17.6781 47.479 17.876 47.591L20.1206 48.8539C20.0165 48.9607 19.9097 49.0701 19.8186 49.1742C19.204 49.8721 18.8525 50.6586 18.8056 51.4502C18.7431 52.497 19.2431 53.4865 20.0816 53.9761C20.4748 54.2053 20.9279 54.3225 21.4045 54.3225C21.618 54.3225 21.8342 54.2964 22.0529 54.2495C22.0529 54.2574 22.0503 54.2652 22.0503 54.273C21.98 55.437 22.5346 56.5411 23.4643 57.0854C23.9018 57.3406 24.4017 57.4682 24.9329 57.4682C25.2454 57.4682 25.5657 57.4187 25.8886 57.3301C25.8392 58.5306 26.412 59.6582 27.3704 60.218C27.8209 60.481 28.3521 60.6112 28.9093 60.6112C29.3937 60.6112 29.9015 60.507 30.3963 60.3091C30.5343 60.981 30.9327 61.5695 31.503 61.9028C31.8624 62.1111 32.2712 62.2179 32.7009 62.2179C33.1123 62.2179 33.5394 62.1215 33.9612 61.9314C34.831 61.5382 35.5731 60.8924 36.2033 60.3169C36.5548 59.9966 37.0418 59.5488 37.4532 59.0149C38.7032 59.4706 41.828 60.5226 42.9972 60.5226C43.1092 60.5226 43.2029 60.5122 43.2732 60.4914C44.1482 60.244 45.3565 59.5383 46.1272 58.5358C46.6793 58.7285 47.1246 58.8456 47.385 58.8639C47.4969 58.8717 47.6271 58.8795 47.7678 58.8795C48.0672 58.8795 48.4188 58.843 48.7651 58.679C49.713 58.2311 49.9708 57.1973 50.0958 56.6999C50.0958 56.6973 50.114 56.6192 50.1348 56.4942C50.4161 56.5905 50.6452 56.6504 50.7937 56.6608C50.8952 56.6686 51.015 56.6765 51.1504 56.6765C51.4785 56.6765 51.8874 56.627 52.2831 56.3822C53.1034 55.8744 53.3664 54.9005 53.5461 54.0255C53.5487 54.0177 53.6294 53.6141 53.6476 53.1037C53.9653 53.1532 54.2856 53.187 54.6163 53.187C54.934 53.187 55.2569 53.161 55.585 53.1063C56.8688 52.8902 57.7984 52.0803 58.0771 50.9345C58.3844 49.6611 57.8141 48.2316 56.6605 47.3722C56.6396 47.3566 56.6162 47.341 56.5954 47.3253C56.7152 47.2706 56.835 47.2212 56.9521 47.1639L57.1396 47.5415C57.3271 47.9164 57.7047 48.1352 58.0979 48.1352C58.2515 48.1352 58.4104 48.1013 58.5588 48.031L66.5117 44.2318C66.8841 44.0547 67.1211 43.6797 67.1211 43.2683V27.3031C67.1211 26.9385 66.9336 26.5974 66.6263 26.4021L66.6235 26.3995ZM21.0919 52.2448C20.9122 52.1407 20.7898 51.8516 20.808 51.573C20.8289 51.2371 21.0112 50.8569 21.3236 50.5001C22.1335 49.5809 23.6569 48.4039 24.8886 48.0315C25.0683 47.9768 25.2297 47.9508 25.3573 47.9508C25.4615 47.9508 25.5422 47.969 25.5995 48.0029C25.6854 48.0575 25.7531 48.1643 25.7662 48.2659C25.8625 48.9976 24.5995 50.1512 24.0605 50.6433C23.4407 51.2084 22.7194 51.8386 21.9877 52.1719C21.6413 52.3308 21.2898 52.3568 21.0945 52.2422L21.0919 52.2448ZM24.4719 55.3541C24.2037 55.1978 24.024 54.7942 24.0501 54.3958C24.0761 53.9609 24.3079 53.474 24.7011 53.026C25.6958 51.8985 27.4848 50.5184 28.9847 50.0653C29.1384 50.0184 29.3701 49.9611 29.5888 49.9611C29.7295 49.9611 29.8649 49.9845 29.969 50.0522C30.1149 50.146 30.2242 50.3152 30.2477 50.4897C30.3753 51.4454 28.8389 52.849 28.1826 53.4453C27.4431 54.1197 26.5812 54.8749 25.6932 55.2759C25.227 55.4895 24.761 55.5181 24.4771 55.3515L24.4719 55.3541ZM28.378 58.4867C28.0603 58.3018 27.8598 57.8513 27.8884 57.3904C27.9171 56.9061 28.1723 56.3697 28.6045 55.8775C29.6774 54.6588 31.6122 53.1693 33.2319 52.6797C33.4011 52.6276 33.6563 52.5652 33.9011 52.5652C34.0652 52.5652 34.224 52.5938 34.349 52.6719C34.5235 52.7839 34.6537 52.987 34.6823 53.1927C34.8229 54.2552 33.2163 55.7239 32.4428 56.4296C31.646 57.156 30.7137 57.9711 29.7528 58.4087C29.344 58.5935 28.7685 58.7133 28.3805 58.4868L28.378 58.4867ZM34.8464 58.8356C34.3308 59.307 33.7292 59.833 33.1277 60.1038C32.8569 60.2262 32.6121 60.2288 32.5106 60.1715C32.422 60.1194 32.3335 59.9397 32.3439 59.7418C32.3595 59.4892 32.5002 59.2002 32.7423 58.9267C33.5314 58.0309 34.8021 57.1507 35.6927 56.88C35.8516 56.8331 35.9661 56.8175 36.0443 56.8175C36.1146 56.8175 36.1536 56.8279 36.1666 56.8383C36.2005 56.8617 36.2344 56.9112 36.2396 56.9503C36.3099 57.4919 35.2058 58.5023 34.8412 58.8356L34.8464 58.8356ZM56.1266 50.4661C56.0407 50.8228 55.7464 51.0468 55.2543 51.1301C53.546 51.4191 51.8326 50.4505 50.3196 49.6015C48.5932 48.6302 46.95 47.4975 45.4293 46.2345C45.0048 45.8803 44.3721 45.9376 44.0153 46.3647C43.6612 46.7891 43.7184 47.4219 44.1455 47.7761C45.7574 49.1171 47.5047 50.3202 49.3354 51.3488C50.0307 51.7394 50.7988 52.1665 51.6217 52.5128V52.5154C51.6556 52.781 51.6243 53.406 51.5801 53.6195C51.416 54.4163 51.2858 54.6273 51.2519 54.6637C51.1973 54.6793 51.0176 54.6663 50.9499 54.6611C49.8614 54.4997 43.7443 51.1405 43.0283 49.9712C42.7392 49.4999 42.1221 49.3515 41.6482 49.6405C41.1768 49.9296 41.0284 50.5467 41.3175 51.0206C42.1039 52.307 45.6141 54.4189 48.1818 55.661C48.1896 55.8459 48.1713 56.1089 48.1479 56.2131C48.0255 56.7052 47.937 56.8354 47.9161 56.8615C47.8484 56.8849 47.6219 56.8693 47.5177 56.8641C46.5386 56.7625 40.7341 54.1012 39.9555 53.1247C39.6091 52.6924 38.9816 52.6195 38.5467 52.9658C38.1144 53.3096 38.0415 53.9423 38.3878 54.3746C39.0987 55.2652 41.8225 56.7286 44.1349 57.7442C43.7339 58.101 43.247 58.3848 42.8433 58.5255C42.1532 58.4343 39.5102 57.6583 38.2394 57.1844C38.2524 57.023 38.2524 56.8589 38.229 56.6896C38.1457 56.0647 37.7785 55.4866 37.2473 55.148C37.0311 55.01 36.7264 54.8798 36.3358 54.833C36.6093 54.234 36.7551 53.5934 36.6665 52.9294C36.5624 52.1378 36.0963 51.4087 35.4244 50.9816C34.9088 50.6534 34.013 50.3488 32.6511 50.7576C32.5131 50.7993 32.3751 50.8566 32.237 50.9086C32.2605 50.6847 32.2631 50.4581 32.2318 50.229C32.1329 49.4712 31.6876 48.7733 31.0444 48.3645C30.5523 48.0494 29.6956 47.7578 28.4014 48.1484C28.193 48.2109 27.9821 48.2916 27.7712 48.3775C27.7738 48.2551 27.7686 48.1301 27.7504 48.0051C27.6592 47.3177 27.2556 46.6849 26.6723 46.3125C26.227 46.0287 25.4588 45.7631 24.3052 46.112C23.4433 46.3724 22.5423 46.8801 21.735 47.4635L18.855 45.8437C18.605 45.7031 18.3732 45.5625 18.1545 45.4193L23.0318 35.6098C25.1515 35.4692 27.292 35.3468 29.4325 35.2348C29.0159 35.8832 28.5706 36.516 28.1045 37.1227C27.5082 37.8987 26.6905 38.9637 26.9301 40.2762C27.1853 41.6746 28.5341 42.4818 29.7346 42.5574C29.8153 42.5626 29.8934 42.5652 29.9742 42.5652C31.0236 42.5652 31.9767 42.1355 32.7058 41.7527C33.9766 41.0809 35.0338 40.297 35.8723 39.4195C37.6014 39.4455 42.1845 39.7736 44.2572 41.0053C44.4577 41.1251 44.6557 41.2501 44.8509 41.3777C46.7077 42.5808 48.5252 43.9374 50.2829 45.2499L50.8897 45.703C51.6578 46.2759 52.4391 46.8279 53.2203 47.38C53.9703 47.9086 54.7202 48.4398 55.4546 48.9867C56.0483 49.4294 56.2149 50.0648 56.1186 50.4684L56.1266 50.4661ZM54.6032 45.896C54.5303 45.8439 54.46 45.7918 54.3871 45.7397C53.6189 45.1981 52.8507 44.6539 52.0955 44.0913L51.4888 43.6382C49.705 42.305 47.8588 40.93 45.9474 39.6905C45.7287 39.5499 45.5073 39.4093 45.286 39.2765C43.0726 37.9614 39.1222 37.5734 37.0804 37.4588C37.0518 37.1646 36.8981 36.8859 36.6325 36.7141C36.169 36.412 35.5466 36.5474 35.2446 37.0109C34.5076 38.1489 33.3384 39.1462 31.7708 39.9769C31.1875 40.2842 30.5001 40.6019 29.8647 40.555C29.4038 40.5264 28.9636 40.2321 28.9064 39.917C28.8257 39.4795 29.31 38.8519 29.698 38.3468C30.7006 37.0422 31.6016 35.6386 32.3749 34.1751C32.3801 34.1647 32.3854 34.1517 32.3932 34.1413C32.4244 34.1361 32.4531 34.1308 32.4843 34.123L39.8693 32.6726C40.1245 32.6231 40.364 32.5736 40.5594 32.5866C40.7495 32.5971 40.9812 32.67 41.2026 32.7455C44.2753 33.7793 49.7174 35.6594 51.6367 36.4745L56.0609 45.37C55.6 45.607 55.1078 45.7789 54.6053 45.896L54.6032 45.896Z" fill="#FFD550"/>
<path d="M48.8593 30.7624C48.2007 30.5246 47.5163 30.2842 46.8502 30.0501L46.5185 30.9935C47.1857 31.228 47.8658 31.4668 48.5196 31.7029L48.8593 30.7624ZM44.8582 29.3591C44.0735 29.088 43.3801 28.8507 42.8506 28.6708L42.5289 29.6176C43.0567 29.797 43.7486 30.0337 44.5316 30.3043L44.8582 29.3591ZM28.6918 30.757C28.0253 30.7933 27.3525 30.8274 26.6847 30.8665L26.7432 31.8648C27.4086 31.8258 28.0743 31.7921 28.7462 31.7555L28.6918 30.757ZM40.6086 27.9737L38.6035 28.3591L38.7923 29.3411L40.7974 28.9558L40.6086 27.9737ZM36.614 28.7449L34.6089 29.1303L34.7977 30.1123L36.8028 29.7269L36.614 28.7449ZM32.6194 29.5127L30.6143 29.8981L30.8031 30.8801L32.8082 30.4947L32.6194 29.5127ZM66.6235 26.3995L67.3028 25.6655L67.2363 25.6041L67.16 25.5555L66.6235 26.3995ZM65.5975 26.3318L65.1762 25.4249L65.1741 25.4259L65.5975 26.3318ZM51.1683 33.0761L50.7448 32.1702L50.7429 32.1711L51.1683 33.0761ZM50.611 33.6907L49.6688 33.3555L49.666 33.3635L50.611 33.6907ZM50.5615 33.899L50.2113 34.8357L51.3695 35.2686L51.5507 34.0455L50.5615 33.899ZM41.8406 30.8419L42.1589 29.8939L42.1569 29.8932L41.8406 30.8419ZM40.6662 30.5815L40.7191 29.5828L40.7132 29.5826L40.6662 30.5815ZM39.4814 30.7039L39.6742 31.6851L39.6746 31.685L39.4814 30.7039ZM32.0991 32.1543L31.9064 31.1731L31.905 31.1733L32.0991 32.1543ZM31.0731 32.5996L30.4139 31.8477L30.4133 31.8482L31.0731 32.5996ZM30.6435 33.1621L30.692 34.1609L31.2599 34.1333L31.5266 33.6312L30.6435 33.1621ZM23.5685 33.5657L22.6763 34.0173L22.9743 34.606L23.6327 34.5636L23.5685 33.5657ZM23.0711 33.0787L22.6477 33.9847L22.65 33.9857L23.0711 33.0787ZM8.64188 26.3344L9.06531 25.4285L9.0632 25.4275L8.64188 26.3344ZM7.61586 26.4021L8.15228 27.2461L8.15728 27.2429L7.61586 26.4021ZM7.73044 44.2318L8.16149 43.3295L8.15985 43.3287L7.73044 44.2318ZM15.6834 48.0311L15.2523 48.9334L15.2553 48.9348L15.6834 48.0311ZM17.1026 47.5415L17.997 47.9888L17.997 47.9888L17.1026 47.5415ZM17.2588 47.229L17.7841 46.3781L16.8535 45.8037L16.3644 46.7818L17.2588 47.229ZM17.876 47.591L17.3835 48.4613L17.3856 48.4625L17.876 47.591ZM20.1206 48.8539L20.8364 49.5523L21.7453 48.6206L20.611 47.9824L20.1206 48.8539ZM19.8186 49.1742L20.5691 49.8351L20.5712 49.8327L19.8186 49.1742ZM18.8056 51.4502L19.8039 51.5098L19.8039 51.5093L18.8056 51.4502ZM20.0816 53.9761L19.5774 54.8397L19.5781 54.8401L20.0816 53.9761ZM22.0529 54.2495H23.0529V53.0125L21.8434 53.2717L22.0529 54.2495ZM22.0503 54.273L23.0485 54.3333L23.0503 54.3032V54.273H22.0503ZM23.4643 57.0854L22.959 57.9483L22.9604 57.9491L23.4643 57.0854ZM25.8886 57.3301L26.8878 57.3713L26.9441 56.0038L25.6242 56.3657L25.8886 57.3301ZM27.3704 60.218L26.8659 61.0815L26.8662 61.0816L27.3704 60.218ZM30.3963 60.3091L31.3758 60.1079L31.1352 58.9366L30.0249 59.3807L30.3963 60.3091ZM31.503 61.9028L30.9984 62.7662L31.0015 62.7679L31.503 61.9028ZM33.9612 61.9314L34.3721 62.8431L34.3732 62.8426L33.9612 61.9314ZM36.2033 60.3169L35.5298 59.5777L35.5289 59.5785L36.2033 60.3169ZM37.4532 59.0149L37.7958 58.0754L37.108 57.8247L36.6612 58.4045L37.4532 59.0149ZM43.2732 60.4914L43.0012 59.529L42.9892 59.5326L43.2732 60.4914ZM46.1272 58.5358L46.4568 57.5916L45.7747 57.3536L45.3344 57.9263L46.1272 58.5358ZM47.385 58.8639L47.3151 59.8614L47.3154 59.8614L47.385 58.8639ZM48.7651 58.679L48.3379 57.7748L48.337 57.7752L48.7651 58.679ZM50.0958 56.6999L51.0656 56.9436L51.0958 56.8236V56.6999H50.0958ZM50.1348 56.4942L50.4589 55.5481L49.3425 55.1657L49.1484 56.3298L50.1348 56.4942ZM50.7937 56.6608L50.8704 55.6638L50.8636 55.6633L50.7937 56.6608ZM52.2831 56.3822L52.8092 57.2327L52.8095 57.2325L52.2831 56.3822ZM53.5461 54.0255L52.5974 53.7093L52.5785 53.7659L52.5665 53.8244L53.5461 54.0255ZM53.6476 53.1037L53.8015 52.1156L52.6885 51.9423L52.6483 53.068L53.6476 53.1037ZM55.585 53.1063L55.7494 54.0927L55.751 54.0924L55.585 53.1063ZM58.0771 50.9345L59.0488 51.1709L59.0492 51.1691L58.0771 50.9345ZM56.6605 47.3722L56.0605 48.1722L56.0631 48.1741L56.6605 47.3722ZM56.5954 47.3253L56.1801 46.4156L54.6482 47.115L55.9954 48.1253L56.5954 47.3253ZM56.9521 47.1639L57.8478 46.7191L57.4058 45.829L56.5129 46.2655L56.9521 47.1639ZM57.1396 47.5415L56.244 47.9862L56.2452 47.9887L57.1396 47.5415ZM58.5588 48.031L58.9869 48.9348L58.9899 48.9333L58.5588 48.031ZM66.5117 44.2318L66.0823 43.3287L66.0807 43.3294L66.5117 44.2318ZM66.6263 26.4021L65.9471 27.136L66.0135 27.1975L66.0899 27.246L66.6263 26.4021ZM21.0919 52.2448L20.5904 53.11L21.2474 53.4909L21.7907 52.9601L21.0919 52.2448ZM20.808 51.573L21.8059 51.6383L21.8061 51.6349L20.808 51.573ZM21.3236 50.5001L20.5733 49.8391L20.5714 49.8412L21.3236 50.5001ZM24.8886 48.0315L25.178 48.9887L25.1798 48.9882L24.8886 48.0315ZM25.5995 48.0029L26.1364 47.1592L26.1224 47.1503L26.1082 47.1419L25.5995 48.0029ZM25.7662 48.2659L24.7743 48.393L24.7747 48.3964L25.7662 48.2659ZM24.0605 50.6433L24.7343 51.3823L24.7348 51.3818L24.0605 50.6433ZM21.9877 52.1719L21.5732 51.2619L21.5708 51.263L21.9877 52.1719ZM21.0945 52.2422L21.6006 51.3798L20.942 50.9933L20.3957 51.5269L21.0945 52.2422ZM24.4719 55.3541L23.9686 56.2181L24.436 56.4905L24.9198 56.2482L24.4719 55.3541ZM24.0501 54.3958L25.0479 54.461L25.0483 54.4555L24.0501 54.3958ZM24.7011 53.026L23.9512 52.3645L23.9496 52.3663L24.7011 53.026ZM28.9847 50.0653L29.2739 51.0225L29.2765 51.0217L28.9847 50.0653ZM29.969 50.0522L29.424 50.8907L29.4283 50.8934L29.969 50.0522ZM30.2477 50.4897L31.2389 50.3574L31.2388 50.3566L30.2477 50.4897ZM28.1826 53.4453L27.5101 52.7052L27.5088 52.7064L28.1826 53.4453ZM25.6932 55.2759L25.2816 54.3646L25.2767 54.3668L25.6932 55.2759ZM24.4771 55.3515L24.9834 54.4891L24.5149 54.2141L24.0292 54.4574L24.4771 55.3515ZM28.378 58.4867L27.875 59.351L28.0936 59.4782L28.3464 59.4862L28.378 58.4867ZM27.8884 57.3904L28.8865 57.4524L28.8867 57.4495L27.8884 57.3904ZM28.6045 55.8775L27.8539 55.2167L27.8532 55.2176L28.6045 55.8775ZM33.2319 52.6797L33.5212 53.637L33.526 53.6355L33.2319 52.6797ZM34.349 52.6719L34.8892 51.8303L34.879 51.8239L34.349 52.6719ZM34.6823 53.1927L35.6737 53.0615L35.6728 53.0548L34.6823 53.1927ZM32.4428 56.4296L33.1166 57.1685L33.1169 57.1683L32.4428 56.4296ZM29.7528 58.4087L30.1649 59.3198L30.1672 59.3188L29.7528 58.4087ZM28.3805 58.4868L28.8848 57.6232L28.6657 57.4953L28.4121 57.4873L28.3805 58.4868ZM34.8464 58.8356L35.5211 59.5737L37.3879 57.8672L34.8588 57.8357L34.8464 58.8356ZM33.1277 60.1038L32.7172 59.1919L32.7159 59.1925L33.1277 60.1038ZM32.5106 60.1715L32.0036 61.0334L32.0114 61.038L32.0192 61.0424L32.5106 60.1715ZM32.3439 59.7418L31.3458 59.6801L31.3453 59.6892L32.3439 59.7418ZM32.7423 58.9267L33.491 59.5897L33.4928 59.5877L32.7423 58.9267ZM35.6927 56.88L35.4097 55.9208L35.4018 55.9232L35.6927 56.88ZM36.1666 56.8383L35.5419 57.6191L35.569 57.6408L35.5974 57.6605L36.1666 56.8383ZM36.2396 56.9503L37.2313 56.8215L37.2308 56.818L36.2396 56.9503ZM34.8412 58.8356L34.1664 58.0975L32.2999 59.804L34.8287 59.8355L34.8412 58.8356ZM56.1266 50.4661L57.0988 50.7003L57.5035 49.0203L55.8453 49.5065L56.1266 50.4661ZM55.2543 51.1301L55.4211 52.1161L55.4212 52.1161L55.2543 51.1301ZM50.3196 49.6015L49.8293 50.473L49.8303 50.4736L50.3196 49.6015ZM45.4293 46.2345L44.7887 47.0023L44.7904 47.0038L45.4293 46.2345ZM44.0153 46.3647L43.2479 45.7235L43.2475 45.724L44.0153 46.3647ZM44.1455 47.7761L44.7851 47.0073L44.7839 47.0063L44.1455 47.7761ZM49.3354 51.3488L48.8455 52.2206L48.8456 52.2207L49.3354 51.3488ZM51.6217 52.5128H52.6217V51.8487L52.0096 51.5911L51.6217 52.5128ZM51.6217 52.5154H50.6217V52.5789L50.6297 52.6419L51.6217 52.5154ZM51.5801 53.6195L50.6009 53.4165L50.6006 53.4179L51.5801 53.6195ZM51.2519 54.6637L51.5267 55.6253L51.795 55.5486L51.9848 55.3441L51.2519 54.6637ZM50.9499 54.6611L50.8032 55.6503L50.838 55.6555L50.8732 55.6582L50.9499 54.6611ZM43.0283 49.9712L43.8811 49.449L43.8808 49.4485L43.0283 49.9712ZM41.6482 49.6405L41.1274 48.7868L41.1254 48.788L41.6482 49.6405ZM41.3175 51.0206L40.4637 51.5414L40.4643 51.5422L41.3175 51.0206ZM48.1818 55.661L49.1809 55.6188L49.1556 55.0212L48.6172 54.7608L48.1818 55.661ZM48.1479 56.2131L49.1184 56.4544L49.1211 56.4435L49.1235 56.4326L48.1479 56.2131ZM47.9161 56.8615L48.2433 57.8064L48.5165 57.7119L48.6971 57.4861L47.9161 56.8615ZM47.5177 56.8641L47.4146 57.8587L47.4411 57.8615L47.4678 57.8628L47.5177 56.8641ZM39.9555 53.1247L40.7373 52.5012L40.7359 52.4994L39.9555 53.1247ZM38.5467 52.9658L39.1691 53.7485L39.1696 53.7481L38.5467 52.9658ZM38.3878 54.3746L39.1693 53.7507L39.1683 53.7494L38.3878 54.3746ZM44.1349 57.7442L44.7996 58.4914L45.9641 57.4554L44.537 56.8287L44.1349 57.7442ZM42.8433 58.5255L42.7124 59.5169L42.9479 59.548L43.1723 59.4698L42.8433 58.5255ZM38.2394 57.1844L37.2427 57.104L37.1819 57.8573L37.89 58.1214L38.2394 57.1844ZM38.229 56.6896L37.2378 56.8218L37.2385 56.8268L38.229 56.6896ZM37.2473 55.148L36.7091 55.9909L36.7099 55.9914L37.2473 55.148ZM36.3358 54.833L35.4261 54.4177L34.8577 55.6627L36.2167 55.8258L36.3358 54.833ZM36.6665 52.9294L35.6751 53.0598L35.6753 53.0616L36.6665 52.9294ZM35.4244 50.9816L34.8875 51.8252L34.8879 51.8255L35.4244 50.9816ZM32.6511 50.7576L32.3636 49.7998L32.3621 49.8003L32.6511 50.7576ZM32.237 50.9086L31.2425 50.8046L31.0738 52.4164L32.5901 51.8442L32.237 50.9086ZM32.2318 50.229L31.2402 50.3585L31.241 50.3641L32.2318 50.229ZM31.0444 48.3645L30.5052 49.2067L30.508 49.2084L31.0444 48.3645ZM28.4014 48.1484L28.6887 49.1062L28.6903 49.1057L28.4014 48.1484ZM27.7712 48.3775L26.7714 48.3562L26.739 49.8779L28.1485 49.3036L27.7712 48.3775ZM27.7504 48.0051L26.759 48.1366L26.7608 48.1495L27.7504 48.0051ZM26.6723 46.3125L27.2104 45.4696L27.2098 45.4692L26.6723 46.3125ZM24.3052 46.112L24.5944 47.0693L24.5947 47.0692L24.3052 46.112ZM21.735 47.4635L21.2448 48.3351L21.8023 48.6486L22.3207 48.274L21.735 47.4635ZM18.855 45.8437L18.3647 46.7153L18.3648 46.7154L18.855 45.8437ZM18.1545 45.4193L17.259 44.9741L16.8636 45.7694L17.6067 46.2559L18.1545 45.4193ZM23.0318 35.6098L22.9656 34.612L22.3922 34.65L22.1364 35.1646L23.0318 35.6098ZM29.4325 35.2348L30.2738 35.7754L31.3284 34.1343L29.3803 34.2362L29.4325 35.2348ZM28.1045 37.1227L28.8974 37.732L28.8975 37.7319L28.1045 37.1227ZM26.9301 40.2762L27.9138 40.0967L27.9138 40.0966L26.9301 40.2762ZM29.7346 42.5574L29.799 41.5594L29.7974 41.5593L29.7346 42.5574ZM32.7058 41.7527L33.1707 42.6381L33.1732 42.6367L32.7058 41.7527ZM35.8723 39.4195L35.8874 38.4196L35.4509 38.413L35.1493 38.7286L35.8723 39.4195ZM44.2572 41.0053L44.7701 40.1468L44.7681 40.1457L44.2572 41.0053ZM44.8509 41.3777L44.304 42.2149L44.3072 42.2169L44.8509 41.3777ZM50.2829 45.2499L50.8813 44.4487L50.8812 44.4486L50.2829 45.2499ZM50.8897 45.703L50.2913 46.5042L50.2918 46.5046L50.8897 45.703ZM53.2203 47.38L52.6432 48.1967L52.6442 48.1973L53.2203 47.38ZM55.4546 48.9867L56.0523 48.185L56.0519 48.1847L55.4546 48.9867ZM56.1186 50.4684L55.1459 50.2363L54.7457 51.913L56.3999 51.428L56.1186 50.4684ZM54.6032 45.896L54.022 46.7097L54.266 46.884L54.5657 46.8953L54.6032 45.896ZM54.3871 45.7397L54.9683 44.926L54.9634 44.9225L54.3871 45.7397ZM52.0955 44.0913L51.4972 44.8926L51.4982 44.8933L52.0955 44.0913ZM51.4888 43.6382L50.8901 44.4392L50.8904 44.4395L51.4888 43.6382ZM45.9474 39.6905L46.4915 38.8515L46.4882 38.8493L45.9474 39.6905ZM45.286 39.2765L45.8005 38.419L45.7968 38.4168L45.286 39.2765ZM37.0804 37.4588L36.0851 37.5557L36.1682 38.4092L37.0244 38.4573L37.0804 37.4588ZM36.6325 36.7141L36.0865 37.5519L36.0893 37.5536L36.6325 36.7141ZM35.2446 37.0109L34.4068 36.465L34.4052 36.4673L35.2446 37.0109ZM31.7708 39.9769L32.2369 40.8617L32.2391 40.8605L31.7708 39.9769ZM29.8647 40.555L29.9382 39.5577L29.9267 39.5569L29.8647 40.555ZM28.9064 39.917L29.8903 39.7382L29.8898 39.7356L28.9064 39.917ZM29.698 38.3468L28.9051 37.7374L28.9049 37.7376L29.698 38.3468ZM32.3749 34.1751L33.2591 34.6423L33.2643 34.6324L33.2693 34.6224L32.3749 34.1751ZM32.3932 34.1413L32.2288 33.1549L31.8335 33.2207L31.5931 33.5413L32.3932 34.1413ZM32.4843 34.123L32.2916 33.1418L32.2665 33.1467L32.2418 33.1529L32.4843 34.123ZM39.8693 32.6726L39.6789 31.6909L39.6765 31.6913L39.8693 32.6726ZM40.5594 32.5866L40.4928 33.5845L40.5046 33.5851L40.5594 32.5866ZM41.2026 32.7455L40.8797 33.6919L40.8837 33.6933L41.2026 32.7455ZM51.6367 36.4745L52.5321 36.0292L52.3676 35.6985L52.0276 35.5541L51.6367 36.4745ZM56.0609 45.37L56.5182 46.2594L57.3957 45.8082L56.9563 44.9247L56.0609 45.37ZM54.6053 45.896L54.5678 46.8953L54.7017 46.9004L54.8323 46.8699L54.6053 45.896ZM67.16 25.5555C66.5657 25.1778 65.8168 25.1273 65.1762 25.4249L66.0188 27.2387C66.0397 27.229 66.0668 27.2305 66.0871 27.2434L67.16 25.5555ZM65.1741 25.4259L50.7448 32.1702L51.5917 33.982L66.021 27.2377L65.1741 25.4259ZM50.7429 32.1711C50.2409 32.407 49.8545 32.8337 49.6688 33.3555L51.5532 34.0258C51.5602 34.006 51.5748 33.99 51.5936 33.9811L50.7429 32.1711ZM49.666 33.3635C49.6179 33.5026 49.5896 33.6356 49.5723 33.7524L51.5507 34.0455C51.5524 34.0341 51.554 34.0262 51.5552 34.0214C51.5563 34.0165 51.5568 34.0155 51.556 34.0178L49.666 33.3635ZM50.9117 32.9623C47.7453 31.7785 42.8554 30.1277 42.1589 29.8939L41.5224 31.7899C42.2218 32.0247 47.0811 33.6654 50.2113 34.8357L50.9117 32.9623ZM42.1569 29.8932C41.8173 29.78 41.3089 29.6141 40.7191 29.5829L40.6134 31.5801C40.9089 31.5957 41.1921 31.6798 41.5244 31.7906L42.1569 29.8932ZM40.7132 29.5826C40.1359 29.5554 39.6162 29.6581 39.2883 29.7227L39.6746 31.685C40.0081 31.6194 40.3113 31.5659 40.6192 31.5804L40.7132 29.5826ZM39.2886 29.7226L31.9064 31.1731L32.2919 33.1356L39.6742 31.6851L39.2886 29.7226ZM31.905 31.1733C31.6579 31.2223 30.9948 31.3384 30.4139 31.8477L31.7324 33.3515C31.8702 33.2307 32.0405 33.1853 32.2933 33.1353L31.905 31.1733ZM30.4133 31.8482C30.07 32.1496 29.8748 32.4774 29.7603 32.6929L31.5266 33.6312C31.5892 33.5134 31.6492 33.4246 31.7329 33.351L30.4133 31.8482ZM30.595 32.1633C28.2293 32.2781 25.8543 32.4165 23.5043 32.5678L23.6327 34.5636C25.9747 34.4129 28.339 34.2752 30.692 34.1609L30.595 32.1633ZM24.4607 33.1141C24.2597 32.7169 23.9287 32.3744 23.4923 32.1717L22.65 33.9857C22.6511 33.9862 22.6638 33.9926 22.6763 34.0173L24.4607 33.1141ZM23.4946 32.1728L9.06531 25.4285L8.21844 27.2404L22.6477 33.9847L23.4946 32.1728ZM9.0632 25.4275C8.42734 25.1321 7.67551 25.1743 7.07444 25.5614L8.15728 27.2429C8.17085 27.2341 8.19499 27.2295 8.22055 27.2413L9.0632 25.4275ZM7.07945 25.5582C6.48341 25.937 6.12109 26.5965 6.12109 27.3032H8.12109C8.12109 27.2806 8.13376 27.2579 8.15227 27.2461L7.07945 25.5582ZM6.12109 27.3032V43.2683H8.12109V27.3032H6.12109ZM6.12109 43.2683C6.12109 44.0662 6.58063 44.7924 7.30102 45.1349L8.15985 43.3287C8.1355 43.3171 8.12109 43.2933 8.12109 43.2683H6.12109ZM7.29938 45.1341L15.2523 48.9334L16.1144 47.1288L8.16149 43.3295L7.29938 45.1341ZM15.2553 48.9348C15.539 49.0692 15.8416 49.1352 16.1443 49.1352V47.1352C16.1386 47.1352 16.1337 47.1347 16.1291 47.1336C16.1246 47.1326 16.1188 47.1308 16.1114 47.1273L15.2553 48.9348ZM16.1443 49.1352C16.905 49.1352 17.6351 48.7125 17.997 47.9888L16.2082 47.0942C16.2008 47.109 16.1915 47.1182 16.1809 47.1246C16.169 47.1319 16.1558 47.1352 16.1443 47.1352V49.1352ZM17.997 47.9888L18.1532 47.6763L16.3644 46.7818L16.2081 47.0943L17.997 47.9888ZM16.7335 48.08C16.9608 48.2203 17.1821 48.3474 17.3835 48.4613L18.3684 46.7207C18.174 46.6106 17.9787 46.4982 17.7841 46.3781L16.7335 48.08ZM17.3856 48.4625L19.6303 49.7255L20.611 47.9824L18.3663 46.7195L17.3856 48.4625ZM19.4049 48.1556C19.3054 48.2576 19.1784 48.3873 19.066 48.5158L20.5712 49.8327C20.641 49.7529 20.7276 49.6638 20.8364 49.5523L19.4049 48.1556ZM19.0681 48.5134C18.3339 49.3471 17.8697 50.3383 17.8074 51.3911L19.8039 51.5093C19.8353 50.9788 20.0741 50.3972 20.5691 49.8351L19.0681 48.5134ZM17.8074 51.3906C17.7247 52.7761 18.3822 54.1419 19.5774 54.8397L20.5858 53.1125C20.104 52.8312 19.7616 52.2179 19.8039 51.5098L17.8074 51.3906ZM19.5781 54.8401C20.1342 55.1642 20.763 55.3225 21.4045 55.3225V53.3225C21.0929 53.3225 20.8155 53.2464 20.5852 53.1121L19.5781 54.8401ZM21.4045 55.3225C21.6993 55.3225 21.9863 55.2865 22.2624 55.2273L21.8434 53.2717C21.682 53.3063 21.5368 53.3225 21.4045 53.3225V55.3225ZM21.0529 54.2495C21.0529 54.2228 21.054 54.1993 21.0554 54.1797C21.0569 54.1602 21.0587 54.1437 21.0602 54.1313C21.0618 54.119 21.0632 54.1093 21.0641 54.1039C21.0648 54.099 21.0655 54.095 21.0652 54.0968C21.0652 54.0969 21.0642 54.1029 21.0631 54.1097C21.062 54.1171 21.0602 54.1288 21.0584 54.143C21.0566 54.1574 21.0546 54.1758 21.0531 54.1973C21.0515 54.2188 21.0503 54.2443 21.0503 54.273H23.0503C23.0503 54.2997 23.0492 54.3232 23.0478 54.3428C23.0463 54.3623 23.0445 54.3788 23.043 54.3912C23.0414 54.4035 23.04 54.4132 23.0391 54.4186C23.0384 54.4235 23.0377 54.4275 23.038 54.4257C23.038 54.4256 23.039 54.4196 23.0401 54.4128C23.0412 54.4054 23.043 54.3937 23.0448 54.3795C23.0466 54.3651 23.0486 54.3467 23.0501 54.3252C23.0517 54.3037 23.0529 54.2782 23.0529 54.2495H21.0529ZM21.0521 54.2127C20.9615 55.7135 21.6717 57.1946 22.959 57.9483L23.9696 56.2224C23.3976 55.8875 22.9985 55.1605 23.0485 54.3333L21.0521 54.2127ZM22.9604 57.9491C23.563 58.3006 24.2392 58.4682 24.9329 58.4682V56.4682C24.5642 56.4682 24.2406 56.3805 23.9682 56.2216L22.9604 57.9491ZM24.9329 58.4682C25.3503 58.4682 25.7604 58.4022 26.1531 58.2946L25.6242 56.3657C25.3711 56.4352 25.1406 56.4682 24.9329 56.4682V58.4682ZM24.8895 57.289C24.8266 58.8156 25.5519 60.3138 26.8659 61.0815L27.8748 59.3545C27.2722 59.0025 26.8518 58.2456 26.8878 57.3713L24.8895 57.289ZM26.8662 61.0816C27.4889 61.4451 28.1985 61.6112 28.9093 61.6112V59.6112C28.5057 59.6112 28.1529 59.5169 27.8745 59.3544L26.8662 61.0816ZM28.9093 61.6112C29.535 61.6112 30.1686 61.4772 30.7677 61.2376L30.0249 59.3807C29.6344 59.5368 29.2524 59.6112 28.9093 59.6112V61.6112ZM29.4167 60.5104C29.6063 61.4334 30.1602 62.2763 30.9984 62.7662L32.0076 61.0394C31.7052 60.8627 31.4622 60.5285 31.3758 60.1079L29.4167 60.5104ZM31.0015 62.7679C31.5202 63.0686 32.1033 63.2179 32.7009 63.2179V61.2179C32.439 61.2179 32.2045 61.1536 32.0045 61.0377L31.0015 62.7679ZM32.7009 63.2179C33.2691 63.2179 33.8356 63.0849 34.3721 62.8431L33.5504 61.0197C33.2431 61.1582 32.9555 61.2179 32.7009 61.2179V63.2179ZM34.3732 62.8426C35.4032 62.377 36.2489 61.6295 36.8777 61.0553L35.5289 59.5785C34.8974 60.1553 34.2588 60.6995 33.5493 61.0202L34.3732 62.8426ZM36.8768 61.0561C37.2266 60.7374 37.7741 60.2367 38.2453 59.6254L36.6612 58.4045C36.3095 58.8608 35.8831 59.2559 35.5298 59.5777L36.8768 61.0561ZM37.1107 59.9544C37.7498 60.1874 38.8638 60.5714 39.9723 60.8987C40.5262 61.0623 41.0895 61.2149 41.597 61.3274C42.0861 61.4359 42.5898 61.5226 42.9972 61.5226V59.5226C42.8201 59.5226 42.4946 59.4779 42.03 59.3749C41.5837 59.2759 41.0684 59.137 40.5387 58.9806C39.48 58.668 38.4066 58.2981 37.7958 58.0754L37.1107 59.9544ZM42.9972 61.5226C43.1578 61.5226 43.3582 61.5092 43.5573 61.4502L42.9892 59.5326C43.0074 59.5272 43.0209 59.5243 43.0284 59.5229C43.036 59.5214 43.0397 59.521 43.0389 59.5211C43.0382 59.5212 43.0343 59.5216 43.027 59.522C43.0197 59.5223 43.0098 59.5226 42.9972 59.5226V61.5226ZM43.5453 61.4537C44.6059 61.1538 46.0052 60.3352 46.92 59.1453L45.3344 57.9263C44.7077 58.7414 43.6905 59.3342 43.0012 59.5291L43.5453 61.4537ZM45.7977 59.4799C46.3531 59.6738 46.9093 59.833 47.3151 59.8614L47.4548 57.8663C47.3399 57.8583 47.0054 57.7831 46.4568 57.5916L45.7977 59.4799ZM47.3154 59.8614C47.4339 59.8697 47.5917 59.8795 47.7678 59.8795V57.8795C47.6626 57.8795 47.56 57.8737 47.4546 57.8663L47.3154 59.8614ZM47.7678 59.8795C48.1439 59.8795 48.6608 59.8349 49.1932 59.5827L48.337 57.7752C48.1767 57.8512 47.9905 57.8795 47.7678 57.8795V59.8795ZM49.1923 59.5831C50.6214 58.9079 50.9556 57.3815 51.0656 56.9436L49.1259 56.4562C48.986 57.013 48.8046 57.5543 48.3379 57.7748L49.1923 59.5831ZM51.0958 56.6999C51.0958 56.7176 51.0953 56.7327 51.0948 56.7443C51.0943 56.7561 51.0936 56.7664 51.093 56.7746C51.0918 56.7908 51.0904 56.8041 51.0893 56.8131C51.0873 56.8307 51.0853 56.8445 51.0842 56.8517C51.0829 56.8597 51.0818 56.8663 51.0811 56.8705C51.0803 56.8749 51.0796 56.8786 51.0791 56.8812C51.0782 56.8863 51.0774 56.8902 51.0771 56.892C51.0767 56.8941 51.0764 56.8956 51.0762 56.8963C51.076 56.8972 51.076 56.8972 51.0774 56.8906C51.0796 56.8802 51.0833 56.8629 51.0877 56.8408C51.0967 56.7965 51.1086 56.7344 51.1212 56.6586L49.1484 56.3298C49.1402 56.3789 49.1326 56.4184 49.1273 56.4451C49.1246 56.4585 49.1223 56.469 49.1205 56.4778C49.1198 56.4809 49.1182 56.4884 49.117 56.4946C49.1164 56.4971 49.1147 56.5056 49.1128 56.5158C49.112 56.5203 49.1098 56.5321 49.1075 56.5472C49.1063 56.5545 49.1043 56.5686 49.1022 56.5863C49.1011 56.5962 49.0958 56.6416 49.0958 56.6999H51.0958ZM49.8107 57.4402C50.0988 57.5389 50.4346 57.6381 50.7237 57.6584L50.8636 55.6633C50.8747 55.6641 50.8457 55.6623 50.7613 55.6408C50.6836 55.6209 50.5826 55.5905 50.4589 55.5481L49.8107 57.4402ZM50.717 57.6579C50.8277 57.6664 50.9771 57.6765 51.1504 57.6765V55.6765C51.0529 55.6765 50.9627 55.6709 50.8703 55.6638L50.717 57.6579ZM51.1504 57.6765C51.5765 57.6765 52.1944 57.6129 52.8092 57.2327L51.7571 55.5317C51.5804 55.6411 51.3805 55.6765 51.1504 55.6765V57.6765ZM52.8095 57.2325C54.0384 56.4717 54.3538 55.0634 54.5257 54.2267L52.5665 53.8244C52.379 54.7376 52.1685 55.2771 51.7568 55.5319L52.8095 57.2325ZM54.4948 54.3417C54.5034 54.316 54.509 54.2955 54.5109 54.2886C54.5135 54.2791 54.5154 54.2713 54.5166 54.2666C54.5189 54.2573 54.5207 54.2497 54.5216 54.2457C54.5235 54.2372 54.5251 54.23 54.526 54.2254C54.5281 54.2157 54.5301 54.2056 54.532 54.196C54.5358 54.1763 54.5404 54.1515 54.5455 54.1225C54.5557 54.0643 54.5685 53.985 54.5817 53.8893C54.6078 53.6991 54.6364 53.436 54.647 53.1394L52.6483 53.068C52.6406 53.2817 52.6197 53.4757 52.6003 53.6168C52.5907 53.6868 52.5817 53.7418 52.5755 53.7774C52.5724 53.7953 52.5701 53.8074 52.5689 53.8132C52.5683 53.8164 52.5683 53.8163 52.5689 53.8135C52.5691 53.8125 52.5701 53.808 52.5715 53.8016C52.5722 53.7986 52.5737 53.7918 52.5759 53.7831C52.577 53.7787 52.5789 53.7712 52.5815 53.7619C52.5833 53.7553 52.5889 53.7349 52.5974 53.7093L54.4948 54.3417ZM53.4938 54.0918C53.8431 54.1462 54.2177 54.187 54.6163 54.187V52.187C54.3535 52.187 54.0876 52.1602 53.8015 52.1156L53.4938 54.0918ZM54.6163 54.187C54.9889 54.187 55.3668 54.1565 55.7494 54.0927L55.4206 52.1199C55.147 52.1655 54.8791 52.187 54.6163 52.187V54.187ZM55.751 54.0924C57.3763 53.8188 58.6636 52.7546 59.0488 51.1709L57.1054 50.6982C56.9333 51.4059 56.3613 51.9615 55.419 52.1202L55.751 54.0924ZM59.0492 51.1691C59.4621 49.458 58.6908 47.6377 57.2579 46.5703L56.0631 48.1741C56.9373 48.8254 57.3066 49.8643 57.105 50.7L59.0492 51.1691ZM57.2605 46.5722C57.2365 46.5542 57.2133 46.538 57.2046 46.5318C57.1912 46.5223 57.1922 46.5229 57.1954 46.5253L55.9954 48.1253C56.0194 48.1433 56.0425 48.1596 56.0513 48.1657C56.0647 48.1752 56.0636 48.1746 56.0605 48.1722L57.2605 46.5722ZM57.0107 48.235C57.0803 48.2032 57.2643 48.1243 57.3914 48.0623L56.5129 46.2655C56.4056 46.318 56.35 46.3381 56.1801 46.4156L57.0107 48.235ZM56.0565 47.6086L56.244 47.9862L58.0353 47.0967L57.8478 46.7191L56.0565 47.6086ZM56.2452 47.9887C56.6071 48.7124 57.3372 49.1352 58.0979 49.1352V47.1352C58.0864 47.1352 58.0732 47.1318 58.0613 47.1245C58.0507 47.1181 58.0414 47.109 58.0341 47.0942L56.2452 47.9887ZM58.0979 49.1352C58.3968 49.1352 58.7021 49.0696 58.9869 48.9348L58.1307 47.1273C58.1251 47.13 58.119 47.132 58.1129 47.1334C58.1068 47.1348 58.1015 47.1352 58.0979 47.1352V49.1352ZM58.9899 48.9333L66.9428 45.1341L66.0807 43.3294L58.1278 47.1287L58.9899 48.9333ZM66.9412 45.1348C67.6615 44.7923 68.1211 44.0662 68.1211 43.2683H66.1211C66.1211 43.2932 66.1067 43.3171 66.0823 43.3287L66.9412 45.1348ZM68.1211 43.2683V27.3031H66.1211V43.2683H68.1211ZM68.1211 27.3031C68.1211 26.5965 67.7588 25.937 67.1628 25.5581L66.0899 27.246C66.1084 27.2578 66.1211 27.2806 66.1211 27.3031H68.1211ZM67.3055 25.6681L67.3028 25.6655L65.9443 27.1334L65.9471 27.136L67.3055 25.6681ZM21.5934 51.3797C21.6777 51.4285 21.728 51.4825 21.7535 51.5148C21.7798 51.548 21.7919 51.5733 21.7968 51.5849C21.8048 51.6038 21.8073 51.6173 21.8059 51.6383L19.8102 51.5077C19.7906 51.8073 19.8451 52.1046 19.9547 52.3637C20.0583 52.6088 20.2528 52.9143 20.5904 53.11L21.5934 51.3797ZM21.8061 51.6349C21.8087 51.5932 21.8517 51.415 22.0759 51.159L20.5714 49.8412C20.1707 50.2988 19.849 50.8809 19.81 51.5111L21.8061 51.6349ZM22.074 51.1612C22.4218 50.7663 22.9465 50.2919 23.5303 49.8736C24.1218 49.4499 24.7091 49.1305 25.178 48.9887L24.5992 47.0743C23.8364 47.3049 23.0461 47.7602 22.3655 48.2478C21.6772 48.741 21.0353 49.3147 20.5733 49.8391L22.074 51.1612ZM25.1798 48.9882C25.2327 48.9721 25.2765 48.9622 25.3095 48.9566C25.3437 48.9508 25.3593 48.9508 25.3573 48.9508V46.9508C25.1058 46.9508 24.8438 46.9998 24.5974 47.0748L25.1798 48.9882ZM25.3573 48.9508C25.3529 48.9508 25.3261 48.9506 25.2832 48.9412C25.2405 48.9319 25.1709 48.9111 25.0908 48.8638L26.1082 47.1419C25.8404 46.9837 25.561 46.9508 25.3573 46.9508V48.9508ZM25.0626 48.8465C24.9635 48.7835 24.9026 48.7106 24.8655 48.6521C24.8284 48.5935 24.789 48.508 24.7743 48.393L26.758 48.1387C26.7074 47.7439 26.4739 47.374 26.1364 47.1592L25.0626 48.8465ZM24.7747 48.3964C24.7596 48.2818 24.8038 48.2708 24.7281 48.417C24.6623 48.5441 24.5478 48.7087 24.3862 48.9009C24.0636 49.2846 23.6606 49.6543 23.3862 49.9049L24.7348 51.3818C24.9994 51.1402 25.4974 50.687 25.917 50.188C26.1265 49.9388 26.3434 49.6471 26.5041 49.3367C26.6549 49.0454 26.8209 48.6158 26.7576 48.1353L24.7747 48.3964ZM23.3868 49.9044C22.7522 50.483 22.1404 51.0035 21.5732 51.2619L22.4022 53.082C23.2985 52.6737 24.1293 51.9339 24.7343 51.3823L23.3868 49.9044ZM21.5708 51.263C21.5326 51.2805 21.4975 51.2928 21.4676 51.3009C21.4373 51.3092 21.4167 51.3119 21.4073 51.3126C21.3968 51.3134 21.4072 51.3113 21.4353 51.3161C21.4622 51.3206 21.524 51.3348 21.6006 51.3798L20.5884 53.1047C20.9259 53.3028 21.2912 53.3276 21.5616 53.3066C21.8496 53.2843 22.1387 53.2028 22.4046 53.0809L21.5708 51.263ZM20.3957 51.5269L20.3931 51.5295L21.7907 52.9601L21.7933 52.9576L20.3957 51.5269ZM24.9753 54.49C25.027 54.5201 25.0536 54.5496 25.0624 54.5603C25.0716 54.5715 25.0704 54.5732 25.0654 54.5617C25.0606 54.5508 25.055 54.5343 25.0514 54.5141C25.0478 54.494 25.047 54.4757 25.0479 54.461L23.0522 54.3305C23.0284 54.6949 23.0973 55.0561 23.2359 55.3698C23.3705 55.6745 23.6039 56.0057 23.9686 56.2181L24.9753 54.49ZM25.0483 54.4555C25.0569 54.3121 25.1522 54.028 25.4526 53.6858L23.9496 52.3663C23.4635 52.9199 23.0953 53.6097 23.0518 54.336L25.0483 54.4555ZM25.451 53.6876C26.3725 52.6431 28.0125 51.4036 29.2739 51.0225L28.6955 49.108C26.957 49.6332 25.0192 51.1539 23.9512 52.3645L25.451 53.6876ZM29.2765 51.0217C29.3293 51.0056 29.3906 50.9893 29.452 50.9775C29.5158 50.9651 29.562 50.9611 29.5888 50.9611V48.9611C29.2219 48.9611 28.8781 49.0523 28.6929 49.1088L29.2765 51.0217ZM29.5888 50.9611C29.6064 50.9611 29.5998 50.9628 29.5757 50.9575C29.5511 50.952 29.4935 50.9359 29.424 50.8907L30.514 49.2138C30.1762 48.9942 29.815 48.9611 29.5888 48.9611V50.9611ZM29.4283 50.8934C29.3697 50.8558 29.334 50.8142 29.3118 50.7794C29.2894 50.7445 29.2661 50.6935 29.2566 50.6229L31.2388 50.3566C31.1758 49.8879 30.8993 49.4614 30.5098 49.2111L29.4283 50.8934ZM29.2565 50.6221C29.2507 50.5788 29.2708 50.6336 29.175 50.827C29.0859 51.0069 28.9376 51.224 28.7382 51.4654C28.3395 51.9479 27.8418 52.4038 27.5101 52.7052L28.8551 54.1854C29.1797 53.8905 29.7784 53.3464 30.28 52.7392C30.5308 52.4357 30.7836 52.0854 30.9672 51.7147C31.1441 51.3575 31.3084 50.8784 31.2389 50.3574L29.2565 50.6221ZM27.5088 52.7064C26.7541 53.3947 26.003 54.0388 25.2816 54.3646L26.1048 56.1873C27.1594 55.711 28.1321 54.8448 28.8565 54.1842L27.5088 52.7064ZM25.2767 54.3668C25.1385 54.4301 25.0253 54.4538 24.955 54.4582C24.8758 54.4631 24.9034 54.4421 24.9834 54.4891L23.9708 56.2138C24.666 56.622 25.5168 56.4567 26.1096 56.1851L25.2767 54.3668ZM24.0292 54.4574L24.024 54.46L24.9198 56.2482L24.925 56.2456L24.0292 54.4574ZM28.881 57.6224C28.9144 57.6418 28.9291 57.659 28.9308 57.6611C28.9326 57.6631 28.9258 57.6554 28.9166 57.6346C28.8967 57.5901 28.8821 57.5235 28.8865 57.4524L26.8903 57.3284C26.8456 58.0492 27.1396 58.923 27.875 59.351L28.881 57.6224ZM28.8867 57.4495C28.8981 57.2558 29.0177 56.9224 29.3559 56.5374L27.8532 55.2176C27.3268 55.8169 26.936 56.5564 26.8902 57.3314L28.8867 57.4495ZM29.3551 56.5383C30.3536 55.4041 32.1393 54.0546 33.5212 53.637L32.9425 51.7225C31.085 52.284 29.0012 53.9136 27.8539 55.2167L29.3551 56.5383ZM33.526 53.6355C33.5845 53.6175 33.6545 53.5988 33.7263 53.5851C33.8001 53.5709 33.8596 53.5652 33.9011 53.5652V51.5652C33.5099 51.5652 33.1439 51.6605 32.9378 51.7239L33.526 53.6355ZM33.9011 53.5652C33.9272 53.5652 33.9327 53.5676 33.9219 53.5652C33.9108 53.5627 33.8711 53.5525 33.819 53.5199L34.879 51.8239C34.5322 51.6071 34.1611 51.5652 33.9011 51.5652V53.5652ZM33.8089 53.5135C33.7633 53.4842 33.7402 53.4552 33.7282 53.4364C33.7161 53.4176 33.6994 53.3844 33.6919 53.3306L35.6728 53.0548C35.6038 52.5597 35.3089 52.0997 34.8891 51.8303L33.8089 53.5135ZM33.691 53.3239C33.6905 53.3205 33.6989 53.4064 33.5988 53.6151C33.5031 53.8147 33.3444 54.0511 33.1311 54.3121C32.7033 54.8354 32.1615 55.3325 31.7688 55.6908L33.1169 57.1683C33.4976 56.8209 34.1458 56.2309 34.6796 55.5778C34.947 55.2506 35.212 54.8765 35.4022 54.4798C35.588 54.0923 35.7444 53.5962 35.6737 53.0615L33.691 53.3239ZM31.7691 55.6906C30.9585 56.4296 30.1352 57.1358 29.3385 57.4986L30.1672 59.3188C31.2923 58.8065 32.3335 57.8825 33.1166 57.1685L31.7691 55.6906ZM29.3408 57.4975C29.2139 57.5549 29.073 57.5954 28.9578 57.6071C28.8328 57.6198 28.8296 57.591 28.8848 57.6232L27.8763 59.3503C28.3194 59.6091 28.798 59.6337 29.1599 59.5969C29.5316 59.5591 29.883 59.4473 30.1649 59.3198L29.3408 57.4975ZM28.4121 57.4873L28.4096 57.4872L28.3464 59.4862L28.3489 59.4863L28.4121 57.4873ZM34.1717 58.0976C33.6401 58.5835 33.1504 58.9969 32.7172 59.1919L33.5382 61.0156C34.308 60.6691 35.0215 60.0304 35.5211 59.5737L34.1717 58.0976ZM32.7159 59.1925C32.6779 59.2097 32.6604 59.2095 32.6744 59.2083C32.6814 59.2077 32.7085 59.206 32.7526 59.2123C32.7891 59.2174 32.8851 59.2346 33.0019 59.3005L32.0192 61.0424C32.3237 61.2142 32.6466 61.2172 32.837 61.2017C33.0664 61.183 33.3067 61.1203 33.5395 61.015L32.7159 59.1925ZM33.0176 59.3095C33.1407 59.382 33.2114 59.4647 33.2437 59.5075C33.2801 59.5557 33.3008 59.597 33.3125 59.625C33.3351 59.6789 33.3457 59.7341 33.3425 59.7944L31.3453 59.6892C31.3317 59.9474 31.3814 60.1914 31.4678 60.3976C31.5405 60.5713 31.6963 60.8527 32.0036 61.0334L33.0176 59.3095ZM33.342 59.8036C33.3401 59.8353 33.3338 59.828 33.3568 59.7808C33.3789 59.7355 33.4206 59.6691 33.491 59.5897L31.9937 58.2637C31.6655 58.6343 31.38 59.1268 31.3458 59.6801L33.342 59.8036ZM33.4928 59.5877C34.1924 58.7933 35.3135 58.0405 35.9836 57.8367L35.4018 55.9232C34.2907 56.261 32.8703 57.2685 31.9919 58.2658L33.4928 59.5877ZM35.9757 57.8391C36.0221 57.8254 36.0509 57.8196 36.0641 57.8174C36.078 57.815 36.0701 57.8175 36.0443 57.8175V55.8175C35.8423 55.8175 35.629 55.8561 35.4097 55.9208L35.9757 57.8391ZM36.0443 57.8175C36.0341 57.8175 35.9952 57.817 35.9369 57.8058C35.9077 57.8001 35.8612 57.7893 35.8046 57.7684C35.757 57.7508 35.6534 57.7083 35.5419 57.6191L36.7914 56.0574C36.5878 55.8946 36.374 55.8532 36.317 55.8422C36.2183 55.8231 36.1247 55.8175 36.0443 55.8175V57.8175ZM35.5974 57.6605C35.4872 57.5842 35.4198 57.5006 35.3797 57.44C35.3437 57.3855 35.2726 57.2638 35.2484 57.0826L37.2308 56.818C37.2014 56.5976 37.1107 56.4317 37.048 56.3368C36.9812 56.2359 36.88 56.1159 36.7359 56.0161L35.5974 57.6605ZM35.2479 57.079C35.2222 56.8811 35.3042 56.8054 35.231 56.9352C35.178 57.0291 35.083 57.1597 34.9469 57.3172C34.6773 57.6291 34.351 57.9288 34.1664 58.0975L35.5159 59.5736C35.696 59.409 36.104 59.0369 36.4601 58.6249C36.6367 58.4205 36.8273 58.176 36.973 57.9177C37.0985 57.6953 37.2921 57.2902 37.2312 56.8215L35.2479 57.079ZM34.8287 59.8355L34.8339 59.8356L34.8588 57.8357L34.8536 57.8357L34.8287 59.8355ZM55.1544 50.2319C55.1582 50.2161 55.1675 50.1901 55.1862 50.1615C55.2049 50.1329 55.2247 50.1143 55.2371 50.1049C55.2482 50.0964 55.2467 50.1004 55.2227 50.1097C55.1982 50.1193 55.1549 50.1327 55.0873 50.1441L55.4212 52.1161C56.138 51.9947 56.8845 51.5901 57.0988 50.7003L55.1544 50.2319ZM55.0874 50.1441C54.472 50.2482 53.8054 50.1344 53.0654 49.8564C52.3184 49.5758 51.5793 49.1617 50.809 48.7294L49.8303 50.4736C50.5729 50.8903 51.447 51.3849 52.3621 51.7287C53.284 52.075 54.3283 52.301 55.4211 52.1161L55.0874 50.1441ZM50.81 48.73C49.1364 47.7884 47.5429 46.69 46.0682 45.4652L44.7904 47.0038C46.3571 48.305 48.05 49.472 49.8293 50.473L50.81 48.73ZM46.0699 45.4666C45.2193 44.7569 43.9566 44.8752 43.2479 45.7235L44.7827 47.0058C44.7841 47.0041 44.7849 47.0035 44.7851 47.0034C44.7853 47.0032 44.7854 47.0032 44.7854 47.0031C44.7857 47.003 44.7866 47.0026 44.7881 47.0025C44.7896 47.0023 44.7901 47.0026 44.7894 47.0024C44.789 47.0022 44.7885 47.002 44.7881 47.0018C44.7876 47.0015 44.7877 47.0016 44.7887 47.0023L46.0699 45.4666ZM43.2475 45.724C42.5388 46.5733 42.654 47.8382 43.5071 48.5458L44.7839 47.0063C44.7827 47.0054 44.7825 47.005 44.7827 47.0053C44.7829 47.0056 44.7832 47.0059 44.7834 47.0063C44.7837 47.0069 44.7834 47.0065 44.7833 47.0054C44.7832 47.0042 44.7834 47.0039 44.7832 47.0046C44.783 47.005 44.7828 47.0055 44.7826 47.0059C44.7824 47.0064 44.7824 47.0062 44.7831 47.0053L43.2475 45.724ZM43.5059 48.5448C45.1645 49.9247 46.9619 51.1623 48.8455 52.2206L49.8252 50.477C48.0475 49.4781 46.3503 48.3096 44.7851 47.0073L43.5059 48.5448ZM48.8456 52.2207C49.5381 52.6097 50.352 53.0634 51.2338 53.4345L52.0096 51.5911C51.2457 51.2696 50.5232 50.8691 49.8252 50.477L48.8456 52.2207ZM50.6217 52.5128V52.5154H52.6217V52.5128H50.6217ZM50.6297 52.6419C50.6297 52.6417 50.6298 52.6426 50.6301 52.6446C50.6303 52.6467 50.6305 52.6495 50.6308 52.6532C50.6315 52.6609 50.6322 52.671 50.6329 52.6839C50.6343 52.7099 50.6353 52.7426 50.6358 52.7815C50.6367 52.8596 50.635 52.9511 50.6311 53.0449C50.6271 53.1386 50.6211 53.228 50.6143 53.3017C50.6067 53.3838 50.6004 53.4187 50.6009 53.4165L52.5592 53.8225C52.5991 53.6303 52.6199 53.3508 52.6293 53.1291C52.6387 52.9055 52.642 52.6112 52.6137 52.389L50.6297 52.6419ZM50.6006 53.4179C50.5248 53.7859 50.4631 53.9872 50.4278 54.0837C50.4104 54.1315 50.4028 54.1443 50.4083 54.1339C50.4111 54.1284 50.4194 54.1131 50.4338 54.0911C50.4461 54.0725 50.4741 54.0319 50.5191 53.9834L51.9848 55.3441C52.1442 55.1724 52.2402 54.9513 52.3065 54.7698C52.3858 54.5525 52.4712 54.2499 52.5595 53.8212L50.6006 53.4179ZM50.9772 53.7022C51.0156 53.6912 51.047 53.685 51.0673 53.6814C51.0884 53.6777 51.1055 53.6755 51.1169 53.6743C51.1387 53.6719 51.1531 53.6714 51.1562 53.6713C51.1605 53.6711 51.1609 53.6712 51.1566 53.6712C51.1526 53.6711 51.1465 53.671 51.1382 53.6708C51.1213 53.6702 51.1015 53.6692 51.0806 53.6679C51.0602 53.6666 51.0415 53.6652 51.0266 53.6641L50.8732 55.6582C50.909 55.6609 50.9896 55.667 51.0734 55.6697C51.1146 55.671 51.1691 55.672 51.2261 55.67C51.2573 55.6689 51.3857 55.6655 51.5267 55.6253L50.9772 53.7022ZM51.0966 53.6719C51.1069 53.6735 51.0785 53.6694 50.9961 53.6429C50.9203 53.6185 50.8214 53.5824 50.6991 53.5333C50.4543 53.435 50.1452 53.2962 49.7881 53.124C49.0754 52.7801 48.2075 52.3201 47.3468 51.8266C46.4848 51.3324 45.646 50.8138 44.9869 50.3543C44.6566 50.124 44.3841 49.9173 44.1806 49.7428C44.0792 49.6558 44.0028 49.5835 43.9484 49.5262C43.8904 49.4652 43.8757 49.4403 43.8811 49.449L42.1755 50.4934C42.3509 50.78 42.6261 51.0444 42.8785 51.2609C43.1509 51.4945 43.4822 51.7433 43.8431 51.9949C44.5664 52.4992 45.4591 53.0497 46.352 53.5616C47.2462 54.0743 48.1564 54.5574 48.9191 54.9253C49.2998 55.109 49.6527 55.2683 49.9536 55.3892C50.2288 55.4997 50.5396 55.6112 50.8032 55.6503L51.0966 53.6719ZM43.8808 49.4485C43.3025 48.5054 42.0704 48.2117 41.1274 48.7868L42.1689 50.4942C42.1705 50.4932 42.1714 50.4929 42.1714 50.4929C42.1715 50.4929 42.1715 50.4929 42.1715 50.4929C42.1717 50.4929 42.1727 50.4928 42.1743 50.4931C42.1758 50.4935 42.1764 50.494 42.176 50.4937C42.1757 50.4935 42.1754 50.4932 42.1751 50.493C42.1749 50.4927 42.1751 50.4929 42.1758 50.494L43.8808 49.4485ZM41.1254 48.788C40.1824 49.3664 39.8886 50.5985 40.4637 51.5414L42.1712 50.4999C42.1702 50.4983 42.1699 50.4974 42.1699 50.4974C42.1698 50.4973 42.1698 50.4973 42.1698 50.4973C42.1698 50.4971 42.1697 50.4961 42.1701 50.4945C42.1704 50.493 42.1709 50.4924 42.1706 50.4928C42.1704 50.4931 42.1702 50.4934 42.1699 50.4937C42.1696 50.4939 42.1698 50.4937 42.1709 50.493L41.1254 48.788ZM40.4643 51.5422C40.7494 52.0087 41.2208 52.4671 41.722 52.8832C42.2413 53.3143 42.8682 53.7608 43.5362 54.1956C44.8726 55.0654 46.4294 55.9242 47.7463 56.5612L48.6172 54.7608C47.3665 54.1558 45.8843 53.3376 44.6271 52.5193C43.9982 52.11 43.4397 51.7098 42.9994 51.3443C42.541 50.9638 42.2787 50.6758 42.1706 50.4991L40.4643 51.5422ZM47.1827 55.7032C47.1847 55.7506 47.1836 55.8256 47.1786 55.9035C47.1762 55.9406 47.1734 55.9717 47.1708 55.9939C47.1676 56.0218 47.1669 56.0178 47.1723 55.9935L49.1235 56.4326C49.1731 56.2121 49.1908 55.8536 49.1809 55.6188L47.1827 55.7032ZM47.1775 55.9717C47.1242 56.186 47.0853 56.2922 47.0691 56.3316C47.0521 56.373 47.0681 56.3208 47.1352 56.2368L48.6971 57.4861C48.8574 57.2856 48.9874 56.9809 49.1184 56.4544L47.1775 55.9717ZM47.589 55.9165C47.6317 55.9017 47.667 55.8931 47.6898 55.8881C47.7135 55.883 47.7325 55.88 47.745 55.8782C47.7579 55.8764 47.7678 55.8754 47.7738 55.8749C47.7801 55.8743 47.7843 55.874 47.786 55.874C47.7892 55.8738 47.7876 55.8739 47.7803 55.874C47.7734 55.874 47.7639 55.874 47.7514 55.8737C47.7261 55.8732 47.6966 55.872 47.6639 55.8704C47.6478 55.8696 47.632 55.8687 47.6159 55.8679C47.6007 55.8671 47.5832 55.8661 47.5677 55.8653L47.4678 57.8628C47.5016 57.8645 47.6123 57.8713 47.7098 57.8733C47.7601 57.8743 47.826 57.8747 47.8939 57.871C47.9323 57.869 48.0825 57.8621 48.2433 57.8064L47.589 55.9165ZM47.6209 55.8694C47.6335 55.8707 47.6098 55.8687 47.5337 55.8488C47.4643 55.8306 47.3729 55.8032 47.259 55.7653C47.0312 55.6896 46.7416 55.5816 46.4056 55.4465C45.7349 55.1768 44.913 54.8131 44.0933 54.4206C43.2724 54.0275 42.4685 53.6126 41.83 53.2418C41.51 53.0561 41.2434 52.8882 41.0415 52.7453C40.9408 52.6741 40.8638 52.6143 40.808 52.5666C40.7484 52.5156 40.7317 52.4942 40.7373 52.5012L39.1736 53.7481C39.3637 53.9865 39.6375 54.2019 39.8861 54.3778C40.1545 54.5678 40.4767 54.7688 40.8257 54.9714C41.5251 55.3775 42.3796 55.8174 43.2295 56.2244C44.0806 56.632 44.9422 57.0137 45.6595 57.3021C46.0175 57.446 46.3481 57.5702 46.6282 57.6633C46.883 57.7479 47.1728 57.8337 47.4146 57.8587L47.6209 55.8694ZM40.7359 52.4994C40.0472 51.6398 38.7926 51.4917 37.9237 52.1836L39.1696 53.7481C39.1705 53.7474 39.1711 53.7469 39.1715 53.7467C39.1717 53.7466 39.1718 53.7465 39.1719 53.7465C39.1719 53.7464 39.172 53.7464 39.172 53.7464C39.172 53.7464 39.172 53.7464 39.1719 53.7464C39.1719 53.7465 39.1718 53.7465 39.1717 53.7465C39.1716 53.7466 39.1714 53.7467 39.1712 53.7467C39.1704 53.7469 39.1704 53.7468 39.1712 53.7469C39.1715 53.7469 39.1719 53.747 39.1721 53.747C39.1722 53.7471 39.1723 53.7471 39.1724 53.7471C39.1724 53.7471 39.1724 53.7471 39.1724 53.7472C39.1724 53.7472 39.1724 53.7472 39.1724 53.7472C39.1724 53.7472 39.1724 53.7472 39.1724 53.7472V53.7472C39.1724 53.7472 39.1724 53.7472 39.1724 53.7472C39.1724 53.7472 39.1725 53.7472 39.1726 53.7473C39.1728 53.7475 39.1736 53.7482 39.175 53.7499L40.7359 52.4994ZM37.9243 52.1831C37.0605 52.87 36.9134 54.1336 37.6074 54.9998L39.1683 53.7494C39.1676 53.7486 39.1677 53.7486 39.1681 53.7492C39.1684 53.7498 39.1686 53.7505 39.1687 53.751C39.169 53.7518 39.1687 53.7513 39.1689 53.7498C39.1691 53.7482 39.1695 53.7475 39.1693 53.7479C39.1692 53.7481 39.1689 53.7485 39.1686 53.7488C39.1683 53.7493 39.1683 53.7491 39.1691 53.7485L37.9243 52.1831ZM37.6063 54.9985C37.8734 55.3332 38.2699 55.6567 38.6811 55.949C39.1084 56.2528 39.6183 56.569 40.1652 56.8811C41.26 57.5057 42.5511 58.1408 43.7328 58.6598L44.537 56.8287C43.4063 56.332 42.1793 55.7276 41.1564 55.144C40.6445 54.8519 40.1955 54.5718 39.84 54.319C39.4683 54.0547 39.2576 53.8613 39.1693 53.7507L37.6063 54.9985ZM43.4702 56.9971C43.1584 57.2745 42.7837 57.4873 42.5143 57.5811L43.1723 59.4698C43.7103 59.2824 44.3094 58.9275 44.7996 58.4914L43.4702 56.9971ZM42.9743 57.5341C42.7201 57.5005 41.9648 57.3089 41.0395 57.0386C40.1439 56.777 39.1916 56.4722 38.5889 56.2474L37.89 58.1214C38.558 58.3705 39.5626 58.6907 40.4787 58.9584C41.3651 59.2173 42.2765 59.4593 42.7124 59.5169L42.9743 57.5341ZM39.2362 57.2648C39.2536 57.0488 39.2552 56.8097 39.2196 56.5525L37.2385 56.8268C37.2497 56.908 37.2513 56.9971 37.2427 57.104L39.2362 57.2648ZM39.2202 56.5575C39.0982 55.642 38.5662 54.8027 37.7846 54.3047L36.7099 55.9914C36.9908 56.1704 37.1932 56.4874 37.2378 56.8218L39.2202 56.5575ZM37.7854 54.3052C37.451 54.0917 37.0043 53.906 36.455 53.8401L36.2167 55.8258C36.4486 55.8537 36.6112 55.9284 36.7091 55.9909L37.7854 54.3052ZM37.2455 55.2483C37.5742 54.5283 37.7776 53.6958 37.6578 52.7972L35.6753 53.0616C35.7326 53.4911 35.6443 53.9398 35.4261 54.4177L37.2455 55.2483ZM37.658 52.7989C37.5152 51.7134 36.8821 50.7233 35.9609 50.1376L34.8879 51.8255C35.3104 52.094 35.6096 52.5621 35.6751 53.0598L37.658 52.7989ZM35.9613 50.1379C35.2074 49.6582 34.0116 49.3051 32.3636 49.7998L32.9386 51.7154C34.0145 51.3924 34.6102 51.6487 34.8875 51.8252L35.9613 50.1379ZM32.3621 49.8003C32.1809 49.855 31.9798 49.9369 31.884 49.973L32.5901 51.8442C32.7704 51.7762 32.8453 51.7436 32.9401 51.7149L32.3621 49.8003ZM33.2316 51.0127C33.2615 50.7271 33.2669 50.4184 33.2227 50.0939L31.241 50.3641C31.2593 50.4979 31.2595 50.6423 31.2425 50.8046L33.2316 51.0127ZM33.2234 50.0995C33.0861 49.0478 32.474 48.0883 31.5809 47.5206L30.508 49.2084C30.9012 49.4584 31.1797 49.8947 31.2403 50.3585L33.2234 50.0995ZM31.5836 47.5223C30.8528 47.0544 29.6945 46.7135 28.1124 47.191L28.6903 49.1057C29.6966 48.802 30.2517 49.0444 30.5053 49.2067L31.5836 47.5223ZM28.114 47.1905C27.8601 47.2667 27.6147 47.3615 27.3939 47.4514L28.1485 49.3036C28.3495 49.2217 28.526 49.155 28.6887 49.1062L28.114 47.1905ZM28.771 48.3988C28.7745 48.2344 28.7678 48.0525 28.7399 47.8608L26.7608 48.1495C26.7693 48.2078 26.7731 48.2759 26.7714 48.3562L28.771 48.3988ZM28.7417 47.8737C28.6118 46.8938 28.0422 46.0006 27.2104 45.4696L26.1342 47.1554C26.469 47.3691 26.7067 47.7416 26.759 48.1366L28.7417 47.8737ZM27.2098 45.4692C26.532 45.0372 25.4633 44.717 24.0157 45.1548L24.5947 47.0692C25.4544 46.8091 25.922 47.0201 26.1348 47.1558L27.2098 45.4692ZM24.016 45.1547C23.0101 45.4586 22.008 46.0325 21.1493 46.6529L22.3207 48.274C23.0766 47.7278 23.8764 47.2862 24.5944 47.0693L24.016 45.1547ZM22.2252 46.5918L19.3451 44.9721L18.3648 46.7154L21.2448 48.3351L22.2252 46.5918ZM19.3452 44.9722C19.1135 44.8418 18.901 44.7128 18.7022 44.5827L17.6067 46.2559C17.8455 46.4122 18.0965 46.5644 18.3647 46.7153L19.3452 44.9722ZM19.0499 45.8645L23.9272 36.055L22.1364 35.1646L17.259 44.9741L19.0499 45.8645ZM23.098 36.6076C25.2117 36.4674 27.3473 36.3453 29.4848 36.2334L29.3803 34.2362C27.2367 34.3483 25.0913 34.471 22.9656 34.612L23.098 36.6076ZM28.5913 34.6942C28.1897 35.3191 27.7605 35.929 27.3115 36.5135L28.8975 37.7319C29.3807 37.103 29.8421 36.4473 30.2738 35.7754L28.5913 34.6942ZM27.3115 36.5134C26.7644 37.2255 25.6151 38.6416 25.9463 40.4558L27.9138 40.0966C27.7658 39.2859 28.2519 38.572 28.8974 37.732L27.3115 36.5134ZM25.9463 40.4557C26.309 42.4431 28.1681 43.4608 29.6718 43.5554L29.7974 41.5593C28.9002 41.5029 28.0615 40.9062 27.9138 40.0967L25.9463 40.4557ZM29.6702 43.5553C29.7716 43.5618 29.8712 43.5652 29.9742 43.5652V41.5652C29.9157 41.5652 29.859 41.5633 29.799 41.5594L29.6702 43.5553ZM29.9742 43.5652C31.2806 43.5652 32.4166 43.034 33.1707 42.6381L32.241 40.8673C31.5368 41.237 30.7666 41.5652 29.9742 41.5652V43.5652ZM33.1732 42.6367C34.5248 41.9222 35.6722 41.0764 36.5953 40.1103L35.1493 38.7286C34.3954 39.5176 33.4283 40.2395 32.2384 40.8686L33.1732 42.6367ZM35.8573 40.4194C36.6847 40.4318 38.2185 40.5176 39.7899 40.7496C41.4014 40.9874 42.8927 41.3577 43.7464 41.865L44.7681 40.1457C43.5491 39.4212 41.7125 39.0116 40.0819 38.771C38.4114 38.5244 36.7891 38.4332 35.8874 38.4196L35.8573 40.4194ZM43.7444 41.8638C43.9308 41.9752 44.1172 42.0928 44.304 42.2149L45.3979 40.5405C45.1941 40.4074 44.9846 40.275 44.7701 40.1469L43.7444 41.8638ZM44.3072 42.2169C46.1313 43.3989 47.9223 44.7353 49.6846 46.0512L50.8812 44.4486C49.1281 43.1396 47.284 41.7627 45.3947 40.5385L44.3072 42.2169ZM49.6846 46.0511L50.2913 46.5042L51.488 44.9018L50.8813 44.4487L49.6846 46.0511ZM50.2918 46.5046C51.072 47.0864 51.8637 47.6458 52.6432 48.1967L53.7974 46.5633C53.0144 46.01 52.2437 45.4653 51.4875 44.9014L50.2918 46.5046ZM52.6442 48.1973C53.3941 48.7259 54.1345 49.2504 54.8573 49.7887L56.0519 48.1847C55.3059 47.6291 54.5464 47.0912 53.7964 46.5626L52.6442 48.1973ZM54.8568 49.7884C55.003 49.8974 55.0783 50.0152 55.1144 50.1074C55.1553 50.2116 55.1398 50.2621 55.1459 50.2363L57.0913 50.7006C57.2898 49.8688 56.9324 48.8412 56.0523 48.185L54.8568 49.7884ZM56.3999 51.428L56.408 51.4257L55.8453 49.5065L55.8372 49.5088L56.3999 51.428ZM55.1845 45.0823C55.1521 45.0591 55.1197 45.0356 55.0833 45.0091C55.0481 44.9835 55.0088 44.9549 54.9683 44.926L53.8058 46.5535C53.8383 46.5766 53.8706 46.6001 53.907 46.6266C53.9422 46.6522 53.9815 46.6808 54.022 46.7097L55.1845 45.0823ZM54.9634 44.9225C54.1952 44.3808 53.4365 43.8433 52.6929 43.2894L51.4982 44.8933C52.2649 45.4644 53.0427 46.0154 53.8108 46.557L54.9634 44.9225ZM52.6939 43.2901L52.0871 42.837L50.8904 44.4395L51.4972 44.8926L52.6939 43.2901ZM52.0875 42.8373C50.3068 41.5063 48.435 40.1118 46.4915 38.8515L45.4033 40.5295C47.2826 41.7483 49.1033 43.1037 50.8901 44.4392L52.0875 42.8373ZM46.4882 38.8493C46.2674 38.7074 46.0355 38.56 45.8005 38.419L44.7715 40.134C44.9791 40.2585 45.1899 40.3924 45.4067 40.5317L46.4882 38.8493ZM45.7968 38.4168C44.5335 37.6662 42.8501 37.2153 41.2974 36.9335C39.7225 36.6478 38.1799 36.519 37.1365 36.4604L37.0244 38.4573C38.0228 38.5133 39.4762 38.6358 40.9403 38.9014C42.4266 39.1711 43.825 39.5716 44.7752 40.1362L45.7968 38.4168ZM38.0757 37.362C38.0198 36.7872 37.7162 36.2242 37.1758 35.8745L36.0893 37.5536C36.0888 37.5534 36.0875 37.5524 36.0859 37.5507C36.0844 37.5492 36.0836 37.5479 36.0832 37.5473C36.0827 37.5465 36.0845 37.5493 36.0851 37.5557L38.0757 37.362ZM37.1785 35.8763C36.246 35.2686 35.0063 35.545 34.4068 36.465L36.0824 37.5569C36.0833 37.5556 36.0838 37.5551 36.0838 37.555C36.084 37.5549 36.0841 37.5548 36.0843 37.5546C36.0849 37.5542 36.0863 37.5535 36.0882 37.5531C36.0901 37.5527 36.0906 37.5529 36.0895 37.5527C36.0888 37.5526 36.088 37.5524 36.0871 37.5521C36.0862 37.5517 36.0859 37.5515 36.0865 37.5519L37.1785 35.8763ZM34.4052 36.4673C33.7855 37.4243 32.7651 38.3183 31.3026 39.0933L32.2391 40.8605C33.9117 39.9741 35.2298 38.8734 36.0839 37.5545L34.4052 36.4673ZM31.3048 39.0922C30.6974 39.4121 30.2505 39.5807 29.9382 39.5577L29.7911 41.5523C30.7497 41.623 31.6776 41.1563 32.2369 40.8617L31.3048 39.0922ZM29.9267 39.5569C29.9062 39.5557 29.88 39.5509 29.8518 39.5412C29.8232 39.5315 29.8015 39.5198 29.7888 39.5114C29.7747 39.502 29.7837 39.5046 29.8035 39.53C29.8225 39.5543 29.8693 39.623 29.8903 39.7382L27.9225 40.0958C28.0188 40.6257 28.387 40.9805 28.6795 41.1755C28.9962 41.3866 29.3906 41.5275 29.8026 41.5531L29.9267 39.5569ZM29.8898 39.7356C29.9091 39.8401 29.8847 39.8922 29.8959 39.8567C29.9059 39.8247 29.9327 39.7603 29.9912 39.6594C30.1121 39.4512 30.2872 39.2213 30.4911 38.9559L28.9049 37.7376C28.7208 37.9774 28.4598 38.3139 28.2616 38.6552C28.0924 38.9466 27.8115 39.4945 27.923 40.0985L29.8898 39.7356ZM30.4909 38.9561C31.5279 37.6067 32.4594 36.1555 33.2591 34.6423L31.4908 33.7079C30.7437 35.1216 29.8732 36.4777 28.9051 37.7374L30.4909 38.9561ZM33.2693 34.6224C33.2768 34.6074 33.2834 34.5934 33.2834 34.5934C33.2852 34.5895 33.2819 34.5966 33.2775 34.6054C33.2727 34.6151 33.2635 34.6329 33.2506 34.6549C33.2377 34.6769 33.2188 34.7071 33.1932 34.7412L31.5931 33.5413C31.5367 33.6165 31.5023 33.6836 31.4887 33.711C31.4813 33.7257 31.4752 33.7386 31.4744 33.7404C31.4717 33.7461 31.4756 33.7377 31.4805 33.7279L33.2693 34.6224ZM32.5576 35.1277C32.5972 35.1211 32.6567 35.1107 32.7268 35.0932L32.2418 33.1529C32.2494 33.151 32.2516 33.1511 32.2288 33.1549L32.5576 35.1277ZM32.677 35.1043L40.062 33.6538L39.6765 31.6913L32.2916 33.1418L32.677 35.1043ZM40.0596 33.6543C40.1986 33.6273 40.2938 33.6084 40.3809 33.5957C40.4682 33.583 40.4973 33.5847 40.4929 33.5844L40.6259 31.5889C40.2694 31.5651 39.876 31.6526 39.6789 31.6909L40.0596 33.6543ZM40.5046 33.5851C40.5035 33.5851 40.5353 33.5877 40.6132 33.6083C40.6874 33.628 40.7735 33.6557 40.8797 33.6919L41.5255 31.7991C41.3239 31.7303 40.9637 31.6073 40.6141 31.5881L40.5046 33.5851ZM40.8837 33.6933C43.9708 34.7319 49.3702 36.5984 51.2458 37.3949L52.0276 35.5541C50.0647 34.7204 44.5798 32.8267 41.5214 31.7977L40.8837 33.6933ZM50.7413 36.9198L55.1655 45.8154L56.9563 44.9247L52.5321 36.0292L50.7413 36.9198ZM55.6037 44.4807C55.2249 44.6754 54.8116 44.8211 54.3782 44.9222L54.8323 46.8699C55.4041 46.7366 55.9751 46.5386 56.5182 46.2594L55.6037 44.4807ZM54.6428 44.8968L54.6407 44.8967L54.5657 46.8953L54.5678 46.8953L54.6428 44.8968Z" fill="black" mask="url(#path-2-inside-1_22_1807)"/>
<path d="M33.6235 18.4513L33.6211 18.4756V18.5C33.6211 18.7652 33.5157 19.0196 33.3282 19.2071C33.1407 19.3946 32.8863 19.5 32.6211 19.5C32.3559 19.5 32.1015 19.3946 31.914 19.2071C31.7265 19.0196 31.6211 18.7652 31.6211 18.5C31.6211 18.2348 31.7265 17.9804 31.914 17.7929C32.1015 17.6054 32.3559 17.5 32.6211 17.5H32.8282L32.9746 17.3536L35.9746 14.3536L36.1211 14.2071V14C36.1211 13.7348 36.2265 13.4804 36.414 13.2929C36.6015 13.1054 36.8559 13 37.1211 13C37.3863 13 37.6407 13.1054 37.8282 13.2929C38.0157 13.4804 38.1211 13.7348 38.1211 14V14.2046L38.2645 14.3505L39.9945 16.1105L40.1415 16.26H40.3511H40.5111H40.7182L40.8646 16.1136L44.4746 12.5036L44.6417 12.3365L44.6187 12.1013C44.617 12.0838 44.617 12.0662 44.6187 12.0487L44.6211 12.0244V12C44.6211 11.8022 44.6797 11.6089 44.7896 11.4444C44.8995 11.28 45.0557 11.1518 45.2384 11.0761C45.4211 11.0004 45.6222 10.9806 45.8162 11.0192C46.0102 11.0578 46.1883 11.153 46.3282 11.2929C46.4681 11.4327 46.5633 11.6109 46.6019 11.8049C46.6405 11.9989 46.6207 12.2 46.545 12.3827C46.4693 12.5654 46.3411 12.7216 46.1767 12.8315C46.0122 12.9414 45.8189 13 45.6211 13H45.4128L45.2661 13.1479L41.6261 16.8179L41.4811 16.9641V17.17V17.25C41.4811 17.5152 41.3757 17.7696 41.1882 17.9571C41.0007 18.1446 40.7463 18.25 40.4811 18.25C40.2159 18.25 39.9615 18.1446 39.774 17.9571C39.5865 17.7696 39.4811 17.5152 39.4811 17.25V17.17V16.9629L39.3346 16.8164L37.7246 15.2064L37.5782 15.06H37.3711H36.9111H36.704L36.5575 15.2064L33.7675 17.9964L33.6005 18.1635L33.6235 18.3987C33.6252 18.4162 33.6252 18.4338 33.6235 18.4513ZM28.6211 24V24.5H29.1211H46.1211C46.2537 24.5 46.3809 24.5527 46.4746 24.6464C46.5684 24.7402 46.6211 24.8674 46.6211 25C46.6211 25.1326 46.5684 25.2598 46.4746 25.3536C46.3809 25.4473 46.2537 25.5 46.1211 25.5H28.1211C27.9885 25.5 27.8613 25.4473 27.7675 25.3536C27.6738 25.2598 27.6211 25.1326 27.6211 25V7C27.6211 6.86739 27.6738 6.74021 27.7675 6.64645C27.8613 6.55268 27.9885 6.5 28.1211 6.5C28.2537 6.5 28.3809 6.55268 28.4746 6.64645C28.5684 6.74021 28.6211 6.86739 28.6211 7V24Z" fill="#FFD550" stroke="black"/>
</svg>
