<svg width="50" height="56" viewBox="0 0 50 56" fill="none" xmlns="http://www.w3.org/2000/svg">
<path d="M3.95868 18.012L25.0389 29.8464L24.669 52.7758L3.95868 40.9413V18.012Z" fill="#FFD550"/>
<path d="M25.4087 4.32837L46.8587 16.5327L37.2432 21.7103L15.4233 9.87578L25.4087 4.32837Z" fill="#FFD550"/>
<path d="M48.2492 40.7108V17.5032C48.2474 17.168 48.1572 16.8391 47.9878 16.5499C47.8184 16.2606 47.5757 16.0211 47.2842 15.8556L26.5715 4.2047C26.2924 4.04357 25.9758 3.95874 25.6535 3.95874C25.3313 3.95874 25.0147 4.04357 24.7356 4.2047L4.0229 15.8556C3.73139 16.0211 3.48869 16.2606 3.31926 16.5499C3.14984 16.8391 3.05968 17.168 3.05788 17.5032V40.7108C3.05968 41.046 3.14984 41.3748 3.31926 41.6641C3.48869 41.9534 3.73139 42.1929 4.0229 42.3584L24.7356 54.0093C25.0147 54.1704 25.3313 54.2552 25.6535 54.2552C25.9758 54.2552 26.2924 54.1704 26.5715 54.0093L47.2842 42.3584C47.5757 42.1929 47.8184 41.9534 47.9878 41.6641C48.1572 41.3748 48.2474 41.046 48.2492 40.7108V40.7108Z" stroke="#1C1F35" stroke-width="2" stroke-linecap="round" stroke-linejoin="round"/>
<path d="M37.1867 34.8734V22.6341L14.3557 10.0417" stroke="#1C1F35" stroke-width="2" stroke-linecap="round" stroke-linejoin="round"/>
<path d="M47.9904 16.5381L25.8655 29.1069L3.31689 16.5381" stroke="#1C1F35" stroke-width="2" stroke-linecap="round" stroke-linejoin="round"/>
<path d="M25.8658 29.1069L25.6539 54.2446" stroke="#1C1F35" stroke-width="2" stroke-linecap="round" stroke-linejoin="round"/>
<path d="M1.00001 13.0696L11.6351 6.91699" stroke="#1C1F35" stroke-width="2" stroke-linecap="round" stroke-linejoin="round"/>
<path d="M29.8466 1.00001L40.4871 7.14331" stroke="#1C1F35" stroke-width="2" stroke-linecap="round" stroke-linejoin="round"/>
<path d="M40.4872 41.6809L29.8466 47.8242" stroke="#1C1F35" stroke-width="2" stroke-linecap="round" stroke-linejoin="round"/>
</svg>
