<svg width="49" height="51" viewBox="0 0 49 51" fill="none" xmlns="http://www.w3.org/2000/svg">
<path d="M25.5117 39.2375C27.1618 40.3664 29.0278 41.1379 30.9909 41.5032C32.954 41.8684 34.9713 41.8193 36.9145 41.3589C38.8577 40.8986 40.6843 40.0371 42.278 38.8293C43.8717 37.6215 45.1977 36.0937 46.1717 34.3433C47.1457 32.5928 47.7463 30.6579 47.9353 28.6616C48.1244 26.6653 47.8978 24.6514 47.2698 22.7479C46.6419 20.8444 45.6264 19.0929 44.288 17.605C42.9496 16.117 41.3175 14.9251 39.4955 14.1051C39.0955 13.9031 38.7776 13.5679 38.5962 13.1567C37.4307 10.3679 35.4711 7.9869 32.9634 6.31251C30.4556 4.63811 27.5113 3.74487 24.5 3.74487C21.4887 3.74487 18.5444 4.63811 16.0366 6.31251C13.5289 7.9869 11.5693 10.3679 10.4038 13.1567C10.2224 13.5679 9.90453 13.9031 9.50447 14.1051C7.68253 14.9251 6.05045 16.117 4.71202 17.605C3.37359 19.0929 2.35812 20.8444 1.73018 22.7479C1.10225 24.6514 0.875601 26.6653 1.06465 28.6616C1.25371 30.6579 1.85432 32.5928 2.8283 34.3433C3.80227 36.0937 5.12829 37.6215 6.72202 38.8293C8.31574 40.0371 10.1423 40.8986 12.0855 41.3589C14.0287 41.8193 16.046 41.8684 18.0091 41.5032C19.9722 41.1379 21.8382 40.3664 23.4883 39.2375C23.7888 39.0394 24.1405 38.9338 24.5 38.9338C24.8595 38.9338 25.2112 39.0394 25.5117 39.2375Z" fill="#FFD550" stroke="#1C1F35" stroke-width="2" stroke-linecap="round" stroke-linejoin="round"/>
<path d="M42.553 29.3874C41.4126 32.2356 38.6088 37.0017 30.9353 37.0017" stroke="#1C1F35" stroke-width="2" stroke-linecap="round" stroke-linejoin="round"/>
<path d="M6.88071 10.2233C8.18323 7.24873 11.2225 2.99936 17.8402 1.46851" stroke="#1C1F35" stroke-width="2" stroke-linecap="round" stroke-linejoin="round"/>
<path d="M24.8622 49.4112V18.2146" stroke="#1C1F35" stroke-width="2" stroke-linecap="round" stroke-linejoin="round"/>
<path d="M24.8626 32.08L14.2377 26.8806" stroke="#1C1F35" stroke-width="2" stroke-linecap="round" stroke-linejoin="round"/>
<path d="M15.1229 23.8587L18.5871 25.8162" stroke="white" stroke-linecap="round" stroke-linejoin="round"/>
<path d="M21.7745 17.9266L21.7745 21.8416" stroke="#1C1F35" stroke-linecap="round" stroke-linejoin="round"/>
<path d="M27.5652 42.7449L27.5652 47.7449" stroke="#1C1F35" stroke-width="1.5" stroke-linecap="round" stroke-linejoin="round"/>
<path d="M24.8622 26.8808L35.4871 21.6814" stroke="#1C1F35" stroke-width="2" stroke-linecap="round" stroke-linejoin="round"/>
</svg>
